<?xml version="1.0" encoding="UTF-8" standalone="no"?>
<!-- Created with Inkscape (http://www.inkscape.org/) -->

<svg
   width="1920"
   height="1080"
   viewBox="0 0 640 360"
   version="1.1"
   id="svg5"
   xml:space="preserve"
   inkscape:version="1.2.2 (b0a8486541, 2022-12-01)"
   sodipodi:docname="header.svg"
   inkscape:export-filename="h2.png"
   inkscape:export-xdpi="96"
   inkscape:export-ydpi="96"
   xmlns:inkscape="http://www.inkscape.org/namespaces/inkscape"
   xmlns:sodipodi="http://sodipodi.sourceforge.net/DTD/sodipodi-0.dtd"
   xmlns="http://www.w3.org/2000/svg"
   xmlns:svg="http://www.w3.org/2000/svg"><sodipodi:namedview
     id="namedview7"
     pagecolor="#00212e"
     bordercolor="#000000"
     borderopacity="0.25"
     inkscape:showpageshadow="2"
     inkscape:pageopacity="1"
     inkscape:pagecheckerboard="0"
     inkscape:deskcolor="#d1d1d1"
     inkscape:document-units="mm"
     showgrid="false"
     inkscape:zoom="0.63477104"
     inkscape:cx="882.99554"
     inkscape:cy="551.37991"
     inkscape:window-width="1920"
     inkscape:window-height="1131"
     inkscape:window-x="0"
     inkscape:window-y="0"
     inkscape:window-maximized="1"
     inkscape:current-layer="layer1" /><defs
     id="defs2"><style
       id="style1303">.cls-1,.cls-2{fill:#21dd83;}.cls-2{font-size:80px;font-family:Unbounded-Bold, Unbounded;font-weight:700;}</style></defs><g
     inkscape:label="Layer 1"
     inkscape:groupmode="layer"
     id="layer1"><g
       id="g1006"
       style="fill:#23dd83;fill-opacity:1"><text
         xml:space="preserve"
         style="font-weight:bold;font-size:41.825px;font-family:Unbounded;-inkscape-font-specification:'Unbounded Bold';fill:#23dd83;fill-opacity:1;stroke-width:0.622473"
         x="39.112682"
         y="90.776817"
         id="text316"
         inkscape:label="text316"><tspan
           sodipodi:role="line"
           id="tspan314"
           style="font-size:41.825px;fill:#23dd83;fill-opacity:1;stroke-width:0.622473"
           x="39.112682"
           y="90.776817">Приехали</tspan><tspan
           sodipodi:role="line"
           style="font-size:41.825px;fill:#23dd83;fill-opacity:1;stroke-width:0.622473"
           x="39.112682"
           y="143.05807"
           id="tspan318">Ради</tspan><tspan
           sodipodi:role="line"
           style="font-size:41.825px;fill:#23dd83;fill-opacity:1;stroke-width:0.622473"
           x="39.112682"
           y="195.33932"
           id="tspan324">Мерча</tspan></text><path
         d="m 441.39493,187.71011 h 27.23245 l -7.97649,46.99326 c -0.27555,1.57623 0.1701,3.19327 1.21676,4.40555 1.04553,1.21222 2.57978,1.89033 4.17969,1.84725 1.60003,-0.0419 3.09573,-0.80058 4.07548,-2.06724 l 45.35309,-57.96648 10e-4,0.001 c 0.83234,-1.05686 1.2349,-2.38816 1.12717,-3.72742 -0.1066,-1.34036 -0.71552,-2.59113 -1.7055,-3.50156 -0.98997,-0.90944 -2.28609,-1.41293 -3.63103,-1.40727 h -27.23262 l 7.97649,-46.99326 c 0.27442,-1.57624 -0.17236,-3.19328 -1.21788,-4.4044 -1.04553,-1.21109 -2.57979,-1.88806 -4.1797,-1.84612 -1.59889,0.0431 -3.09456,0.80172 -4.07431,2.06611 l -45.35309,57.96648 c -0.83008,1.05685 -1.2315,2.38702 -1.12377,3.72625 0.10772,1.3381 0.71782,2.58774 1.7055,3.49721 0.9888,0.90944 2.28382,1.4118 3.62754,1.4084 z"
         id="path40"
         style="fill:#23dd83;fill-opacity:1;stroke-width:0.290297" /></g><g
       id="Слой_2"
       data-name="Слой 2"
       transform="matrix(0.52321475,0,0,0.52321475,32.863262,150.08749)"
       style="display:inline"><path
         class="cls-1"
         d="m 150.72,314.81 c -13.37,6.08 -34,15.61 -47.3,21.61 C 98.05,323.13 92.25,309.63 86,296.75 A 195.66,195.66 0 0 0 73.57,274.33 42.56,42.56 0 0 0 69,268.56 l 8.13,1.89 c -8.39,3.27 -16.29,9.52 -23.52,14.9 A 177,177 0 0 0 36.74,271.09 c -3.81,-2.87 -7.82,-5.92 -11.8,-8.55 L 24.44,262.23 17.5,258 c 5.42,-8.94 11.11,-18 17.08,-26.54 a 207.92,207.92 0 0 1 14.83,-19.2 c 3.28,-3.53 6.48,-7 11,-9.34 7.13,-3.83 13.78,0.49 18.44,6 3.53,3.68 7.12,11.72 12.66,10.47 6.86,-1.47 5.76,-6.33 4.52,-12 -2.64,-10 -3.27,-21.09 8.33,-25.78 5.36,-2.15 11.27,-2.87 16.49,-3.39 A 211.94,211.94 0 0 1 145,177.69 c 6.09,0.08 13.2,0.72 19.36,1.12 -0.17,8.79 -0.15,19.42 -0.43,28.17 h -15 c -0.08,-6.1 -0.33,-14.7 -0.34,-20.87 l 7.28,7.82 a 290.63,290.63 0 0 0 -33.78,-0.23 c -4.43,0.27 -9.77,1 -12.82,2.19 -1,1.77 -0.34,6.7 -0.27,9.83 0.94,11.8 -2.44,21.1 -14.92,24.39 -5.13,1.59 -11.74,0.06 -16,-3 -5.89,-3.82 -8.31,-8 -13.29,-10.92 a 0.56,0.56 0 0 1 -0.18,-0.07 4.86,4.86 0 0 0 1,0.25 4.1,4.1 0 0 0 1.5,-0.06 c 0.19,-0.05 0.17,-0.06 0.07,0 a 33,33 0 0 0 -6.42,6 191.93,191.93 0 0 0 -13.43,17.87 C 43.07,246.46 38.92,253 35,259.42 l -2.89,-10.9 c 1.19,0.67 2.9,1.84 4.05,2.61 5.68,4 11.27,8.15 16.71,12.42 2.37,1.87 4.44,3.53 6.78,5.69 l -10.34,-0.57 c 7.25,-5.32 14.17,-10.18 22.76,-13.34 l 4.69,-1.61 a 70.33,70.33 0 0 1 10,11.69 208.67,208.67 0 0 1 13.53,24.38 c 5.31,10.95 10.09,21.89 14.59,33.22 l -10.49,-4.25 c 10,-4.46 30.19,-13.25 40.21,-17.64 l 6.13,13.69 z"
         id="path1307" /><g
         aria-label="CHFTM"
         transform="translate(108.08,286.26)"
         id="text1309"
         style="font-weight:bold;font-size:80px;font-family:Unbounded;-inkscape-font-specification:'Unbounded Bold';fill:#21dd83"
         class="cls-2"><path
           d="m 72.24,-25.12 q -0.88,7.88 -5.44,13.88 -4.56,5.96 -12.04,9.28 -7.48,3.28 -16.92,3.28 -10.36,0 -18.28,-3.92 -7.92,-3.92 -12.28,-11 -4.32,-7.12 -4.32,-16.4 0,-9.28 4.32,-16.36 4.36,-7.12 12.28,-11.04 7.92,-3.92 18.28,-3.92 9.44,0 16.92,3.32 7.48,3.28 12.04,9.28 4.56,5.96 5.44,13.84 H 55.56 q -1.2,-5.68 -5.8,-8.88 -4.6,-3.2 -11.96,-3.2 -5.56,0 -9.64,2.08 -4.04,2.04 -6.24,5.88 -2.16,3.8 -2.16,9 0,5.2 2.16,9.04 2.2,3.8 6.24,5.88 4.08,2.04 9.64,2.04 7.44,0 12,-3.08 4.6,-3.12 5.76,-9 z"
           id="path1431" /><path
           d="m 96.880001,-60 v 22.2 H 127.56 V -60 h 16.6 V 0 h -16.6 V -23.16 H 96.880001 V 0 h -16.6 v -60 z"
           id="path1433" /><path
           d="m 208.4,-45.96 h -36.52 v 10.52 h 35.04 V -21.4 H 171.88 V 0 h -16.6 v -60 h 53.12 z"
           id="path1435" /><path
           d="m 275.24002,-60 v 14.76 h -22.88 V 0 h -16.6 v -45.24 h -22.88 V -60 Z"
           id="path1437" /><path
           d="m 370.03995,0 h -15.76 V -45.52 L 334.55995,0 h -16.76 l -19.68,-45.32 V 0 h -15.8 v -60 h 25.64 l 18.28,43.88 18.2,-43.88 h 25.6 z"
           id="path1439" /></g></g></g></svg>
