<?xml version="1.0" encoding="UTF-8" standalone="no"?>
<!-- Created with Inkscape (http://www.inkscape.org/) -->

<svg
   width="1920"
   height="1080"
   viewBox="0 0 640 360"
   version="1.1"
   id="svg5"
   xml:space="preserve"
   inkscape:version="1.2.2 (b0a8486541, 2022-12-01)"
   sodipodi:docname="header.svg"
   xmlns:inkscape="http://www.inkscape.org/namespaces/inkscape"
   xmlns:sodipodi="http://sodipodi.sourceforge.net/DTD/sodipodi-0.dtd"
   xmlns="http://www.w3.org/2000/svg"
   xmlns:svg="http://www.w3.org/2000/svg"><sodipodi:namedview
     id="namedview7"
     pagecolor="#00212e"
     bordercolor="#000000"
     borderopacity="0.25"
     inkscape:showpageshadow="2"
     inkscape:pageopacity="1"
     inkscape:pagecheckerboard="0"
     inkscape:deskcolor="#d1d1d1"
     inkscape:document-units="mm"
     showgrid="false"
     inkscape:zoom="0.42205732"
     inkscape:cx="714.35795"
     inkscape:cy="573.38183"
     inkscape:window-width="1920"
     inkscape:window-height="1131"
     inkscape:window-x="0"
     inkscape:window-y="0"
     inkscape:window-maximized="1"
     inkscape:current-layer="g1006" /><defs
     id="defs2" /><g
     inkscape:label="Layer 1"
     inkscape:groupmode="layer"
     id="layer1"><g
       id="g1006"
       style="fill:#23dd83;fill-opacity:1"><text
         xml:space="preserve"
         style="font-weight:bold;font-size:41.825px;font-family:Unbounded;-inkscape-font-specification:'Unbounded Bold';fill:#23dd83;fill-opacity:1;stroke-width:0.622473"
         x="39.112682"
         y="90.776817"
         id="text316"><tspan
           sodipodi:role="line"
           id="tspan314"
           style="font-size:41.825px;fill:#23dd83;fill-opacity:1;stroke-width:0.622473"
           x="39.112682"
           y="90.776817">Приехали</tspan><tspan
           sodipodi:role="line"
           style="font-size:41.825px;fill:#23dd83;fill-opacity:1;stroke-width:0.622473"
           x="39.112682"
           y="143.05807"
           id="tspan318">Ради</tspan><tspan
           sodipodi:role="line"
           style="font-size:41.825px;fill:#23dd83;fill-opacity:1;stroke-width:0.622473"
           x="39.112682"
           y="195.33932"
           id="tspan320">Мерча</tspan><tspan
           sodipodi:role="line"
           style="font-size:41.825px;fill:#23dd83;fill-opacity:1;stroke-width:0.622473"
           x="39.112682"
           y="247.62057"
           id="tspan322" /><tspan
           sodipodi:role="line"
           style="font-size:41.825px;fill:#23dd83;fill-opacity:1;stroke-width:0.622473"
           x="39.112682"
           y="299.90182"
           id="tspan324">CHFTM</tspan></text><path
         d="m 441.39493,187.71011 h 27.23245 l -7.97649,46.99326 c -0.27555,1.57623 0.1701,3.19327 1.21676,4.40555 1.04553,1.21222 2.57978,1.89033 4.17969,1.84725 1.60003,-0.0419 3.09573,-0.80058 4.07548,-2.06724 l 45.35309,-57.96648 10e-4,0.001 c 0.83234,-1.05686 1.2349,-2.38816 1.12717,-3.72742 -0.1066,-1.34036 -0.71552,-2.59113 -1.7055,-3.50156 -0.98997,-0.90944 -2.28609,-1.41293 -3.63103,-1.40727 h -27.23262 l 7.97649,-46.99326 c 0.27442,-1.57624 -0.17236,-3.19328 -1.21788,-4.4044 -1.04553,-1.21109 -2.57979,-1.88806 -4.1797,-1.84612 -1.59889,0.0431 -3.09456,0.80172 -4.07431,2.06611 l -45.35309,57.96648 c -0.83008,1.05685 -1.2315,2.38702 -1.12377,3.72625 0.10772,1.3381 0.71782,2.58774 1.7055,3.49721 0.9888,0.90944 2.28382,1.4118 3.62754,1.4084 z"
         id="path40"
         style="fill:#23dd83;fill-opacity:1;stroke-width:0.290297" /></g></g></svg>
