<?xml version="1.0" encoding="UTF-8" standalone="no"?>
<!-- Created with Inkscape (http://www.inkscape.org/) -->

<svg
   width="177.38617mm"
   height="139.47539mm"
   viewBox="0 0 177.38617 139.47539"
   version="1.1"
   id="svg5"
   xml:space="preserve"
   inkscape:version="1.2.2 (b0a8486541, 2022-12-01)"
   sodipodi:docname="Logo.svg"
   inkscape:export-filename="Logo.svg"
   inkscape:export-xdpi="131.11989"
   inkscape:export-ydpi="131.11989"
   xmlns:inkscape="http://www.inkscape.org/namespaces/inkscape"
   xmlns:sodipodi="http://sodipodi.sourceforge.net/DTD/sodipodi-0.dtd"
   xmlns="http://www.w3.org/2000/svg"
   xmlns:svg="http://www.w3.org/2000/svg"><sodipodi:namedview
     id="namedview7"
     pagecolor="#ffffff"
     bordercolor="#000000"
     borderopacity="0.25"
     inkscape:showpageshadow="2"
     inkscape:pageopacity="0.0"
     inkscape:pagecheckerboard="0"
     inkscape:deskcolor="#d1d1d1"
     inkscape:document-units="mm"
     showgrid="false"
     inkscape:zoom="1.1842197"
     inkscape:cx="301.88655"
     inkscape:cy="558.17345"
     inkscape:window-width="1920"
     inkscape:window-height="1131"
     inkscape:window-x="0"
     inkscape:window-y="0"
     inkscape:window-maximized="1"
     inkscape:current-layer="layer1" /><defs
     id="defs2" /><g
     inkscape:label="Layer 1"
     inkscape:groupmode="layer"
     id="layer1"
     transform="translate(-16.306914,-78.762304)"><path
       d="m 148.75871,80.146181 c -1.10518,-0.926042 -2.51079,-1.416614 -3.95217,-1.382183 h -16.98978 c -1.50481,-0.0041 -2.95589,0.566385 -4.05694,1.594379 -1.09968,1.026654 -1.76939,2.434978 -1.86863,3.937 0,6.034264 -3.22047,11.611327 -8.44585,14.62793 -5.22535,3.017903 -11.66495,3.017903 -16.890647,0 -5.226755,-3.016532 -8.445853,-8.593314 -8.445853,-14.62793 -0.100598,-1.502057 -0.768949,-2.910417 -1.870004,-3.937 -1.099679,-1.02803 -2.55076,-1.598507 -4.056944,-1.594379 H 65.192114 c -1.441414,-0.03445 -2.845646,0.456141 -3.950758,1.382183 L 18.371801,117.28662 c -1.116224,0.95914 -1.836913,2.29994 -2.018841,3.76061 -0.183278,1.46072 0.184658,2.9366 1.030782,4.14232 l 20.940535,28.6452 c 0.788247,1.08451 1.919605,1.87138 3.210842,2.22966 1.292613,0.35829 2.667882,0.26872 3.90137,-0.25493 l 9.285111,-3.95076 -0.592561,60.452 c 0,1.57233 0.62424,3.07992 1.736337,4.19064 1.110685,1.11207 2.618281,1.73634 4.190647,1.73634 h 90.085327 c 1.57233,0 3.07993,-0.62424 4.19065,-1.73634 1.11206,-1.11068 1.73634,-2.61828 1.73634,-4.19064 l -0.59257,-60.452 9.28512,3.95076 c 1.23334,0.52366 2.60861,0.61323 3.90136,0.25493 1.29124,-0.35828 2.4226,-1.14515 3.21085,-2.22966 l 20.74227,-28.6452 c 0.84748,-1.20579 1.21405,-2.68167 1.03216,-4.14232 -0.18328,-1.46071 -0.90262,-2.80154 -2.01884,-3.76061 z"
       id="path1661"
       style="fill:#00212e;fill-opacity:1;stroke-width:0.352778"
       inkscape:label="Shirt" /><path
       d="m 81.929314,168.74307 h 17.982215 l -5.267056,31.03073 c -0.181956,1.04081 0.112318,2.10858 0.803448,2.90908 0.690389,0.80046 1.703488,1.24822 2.759947,1.21978 1.056536,-0.0277 2.044182,-0.52865 2.691132,-1.36504 l 29.94767,-38.2766 5.5e-4,5.5e-4 c 0.54961,-0.69787 0.81542,-1.57696 0.74429,-2.46129 -0.0704,-0.88508 -0.47248,-1.71099 -1.12618,-2.31217 -0.65369,-0.60052 -1.50956,-0.93299 -2.39765,-0.92925 h -17.98222 l 5.26706,-31.03072 c 0.18121,-1.04082 -0.11381,-2.10859 -0.80419,-2.90832 -0.69039,-0.79971 -1.70349,-1.24673 -2.75995,-1.21903 -1.05579,0.0285 -2.04341,0.52939 -2.69036,1.36429 L 79.150562,163.0419 c -0.548117,0.69786 -0.813185,1.57621 -0.74205,2.46053 0.07113,0.88357 0.473991,1.70874 1.126177,2.30928 0.652933,0.60053 1.508061,0.93224 2.395354,0.93001 z"
       id="path502"
       inkscape:label="Bolt"
       style="fill:#23dd83;fill-opacity:1;stroke-width:0.19169" /></g></svg>
