<svg width="45" height="15" viewBox="0 0 45 15" fill="none" xmlns="http://www.w3.org/2000/svg">
<path d="M7.07143 0.947365H6H3.14286C1.95939 0.947365 1 1.91742 1 3.11403V11.7807C1 12.9773 1.95939 13.9474 3.14286 13.9474H8.85714C10.0406 13.9474 11 12.9773 11 11.7807V6.58973V5.00986M7.07143 0.947365L11 5.00986M7.07143 0.947365V4.28764C7.07143 4.68651 7.39122 5.00986 7.78572 5.00986H11" stroke="#23DD83" stroke-width="1.3" stroke-linecap="round" stroke-linejoin="round"/>
<path d="M4.57139 7.44736L3.14282 8.89181L4.57139 10.3363" stroke="#23DD83" stroke-width="1.3" stroke-linecap="round" stroke-linejoin="round"/>
<path d="M7.42856 7.44736L8.85713 8.89181L7.42856 10.3363" stroke="#23DD83" stroke-width="1.3" stroke-linecap="round" stroke-linejoin="round"/>
<path d="M15.3895 3H17.8675V8.664L22.3015 3H24.9355L21.8695 6.786L25.0555 12H22.2295L20.2975 8.724L17.6395 12H15.3895V3ZM29.1513 12.198C28.2833 12.198 27.5173 12.048 26.8533 11.748C26.1893 11.444 25.6733 11.018 25.3053 10.47C24.9413 9.922 24.7593 9.29 24.7593 8.574C24.7593 7.858 24.9413 7.226 25.3053 6.678C25.6733 6.126 26.1893 5.7 26.8533 5.4C27.5173 5.096 28.2833 4.944 29.1513 4.944C30.0193 4.944 30.7853 5.096 31.4493 5.4C32.1133 5.7 32.6273 6.126 32.9913 6.678C33.3593 7.226 33.5433 7.858 33.5433 8.574C33.5433 9.29 33.3593 9.922 32.9913 10.47C32.6273 11.018 32.1133 11.444 31.4493 11.748C30.7853 12.048 30.0193 12.198 29.1513 12.198ZM27.2313 8.574C27.2313 8.946 27.3073 9.268 27.4593 9.54C27.6153 9.808 27.8373 10.014 28.1253 10.158C28.4133 10.302 28.7553 10.374 29.1513 10.374C29.5473 10.374 29.8893 10.302 30.1773 10.158C30.4653 10.014 30.6853 9.808 30.8373 9.54C30.9893 9.268 31.0653 8.946 31.0653 8.574C31.0653 8.202 30.9873 7.88 30.8313 7.608C30.6793 7.336 30.4593 7.128 30.1713 6.984C29.8873 6.84 29.5473 6.768 29.1513 6.768C28.7553 6.768 28.4133 6.84 28.1253 6.984C27.8373 7.128 27.6153 7.336 27.4593 7.608C27.3073 7.88 27.2313 8.202 27.2313 8.574ZM44.1437 13.644H42.0317V12H36.0497V13.644H33.9377V10.176H34.8377C35.0617 9.908 35.2277 9.536 35.3357 9.06C35.4477 8.58 35.5037 7.986 35.5037 7.278C35.5037 6.622 35.4557 5.91 35.3597 5.142H42.8957V10.176H44.1437V13.644ZM40.4537 10.212V6.924H37.6757C37.6997 7.168 37.7117 7.448 37.7117 7.764C37.7117 8.796 37.5497 9.612 37.2257 10.212H40.4537Z" fill="#23DD83"/>
</svg>
