<svg width="79" height="15" viewBox="0 0 79 15" fill="none" xmlns="http://www.w3.org/2000/svg">
<path d="M7.5 9.45C5.34609 9.45 3.6 7.7039 3.6 5.55V1.93889C3.6 1.66989 3.6 1.53539 3.6392 1.42769C3.70492 1.24714 3.84714 1.10492 4.02769 1.0392C4.13539 1 4.26989 1 4.53889 1H10.4611C10.7301 1 10.8646 1 10.9723 1.0392C11.1529 1.10492 11.2951 1.24714 11.3608 1.42769C11.4 1.53539 11.4 1.66989 11.4 1.93889V5.55C11.4 7.7039 9.6539 9.45 7.5 9.45ZM7.5 9.45V11.4M11.4 2.3H13.025C13.3278 2.3 13.4793 2.3 13.5988 2.34948C13.758 2.41545 13.8846 2.54199 13.9505 2.70126C14 2.82071 14 2.97214 14 3.275V3.6C14 4.20448 14 4.50672 13.9336 4.7547C13.7533 5.42762 13.2276 5.95325 12.5547 6.13356C12.3068 6.2 12.0045 6.2 11.4 6.2M3.6 2.3H1.975C1.67214 2.3 1.52071 2.3 1.40126 2.34948C1.24199 2.41545 1.11545 2.54199 1.04948 2.70126C1 2.82071 1 2.97214 1 3.275V3.6C1 4.20448 1 4.50672 1.06644 4.7547C1.24675 5.42762 1.77238 5.95325 2.4453 6.13356C2.69328 6.2 2.99552 6.2 3.6 6.2M4.53889 14H10.4611C10.6206 14 10.75 13.8706 10.75 13.7111C10.75 12.4347 9.71526 11.4 8.43886 11.4H6.56114C5.28472 11.4 4.25 12.4347 4.25 13.7111C4.25 13.8706 4.37934 14 4.53889 14Z" stroke="#C6C6C6" stroke-width="1.5" stroke-linecap="round" stroke-linejoin="round"/>
<path d="M18.402 6.24C18.45 5.544 18.682 4.938 19.098 4.422C19.514 3.902 20.07 3.502 20.766 3.222C21.462 2.942 22.244 2.802 23.112 2.802C23.928 2.802 24.65 2.928 25.278 3.18C25.906 3.432 26.392 3.786 26.736 4.242C27.084 4.694 27.258 5.212 27.258 5.796C27.258 6.256 27.134 6.684 26.886 7.08C26.638 7.472 26.25 7.858 25.722 8.238C25.198 8.614 24.504 9.012 23.64 9.432L22.446 10.032H27.504V12H18.594V10.272L22.458 8.094C23.082 7.742 23.556 7.452 23.88 7.224C24.204 6.992 24.434 6.778 24.57 6.582C24.706 6.386 24.774 6.172 24.774 5.94C24.774 5.568 24.622 5.272 24.318 5.052C24.014 4.828 23.582 4.716 23.022 4.716C22.342 4.716 21.826 4.858 21.474 5.142C21.126 5.422 20.93 5.788 20.886 6.24H18.402ZM31.6624 5.142H35.3464L37.1164 9.78L38.8744 5.142H42.5584V12H40.2604V7.038L38.2264 12H35.9884L33.9604 7.074V12H31.6624V5.142ZM47.9165 12.198C47.0885 12.198 46.3465 12.046 45.6905 11.742C45.0345 11.434 44.5205 11.004 44.1485 10.452C43.7765 9.9 43.5905 9.266 43.5905 8.55C43.5905 7.846 43.7685 7.22 44.1245 6.672C44.4845 6.124 44.9805 5.7 45.6125 5.4C46.2445 5.096 46.9565 4.944 47.7485 4.944C48.5525 4.944 49.2485 5.122 49.8365 5.478C50.4245 5.83 50.8745 6.332 51.1865 6.984C51.5025 7.632 51.6605 8.394 51.6605 9.27H46.2485C46.4165 9.634 46.7005 9.914 47.1005 10.11C47.5005 10.302 48.0045 10.398 48.6125 10.398C49.1165 10.398 49.6185 10.332 50.1185 10.2C50.6185 10.068 51.0745 9.88 51.4865 9.636V11.196C51.0065 11.52 50.4645 11.768 49.8605 11.94C49.2565 12.112 48.6085 12.198 47.9165 12.198ZM49.3805 7.794C49.2685 7.434 49.0765 7.158 48.8045 6.966C48.5365 6.77 48.2025 6.672 47.8025 6.672C47.3825 6.672 47.0265 6.774 46.7345 6.978C46.4465 7.178 46.2485 7.45 46.1405 7.794H49.3805ZM60.887 9.108C60.819 9.716 60.595 10.254 60.215 10.722C59.835 11.19 59.337 11.554 58.721 11.814C58.105 12.07 57.421 12.198 56.669 12.198C55.833 12.198 55.091 12.046 54.443 11.742C53.799 11.438 53.297 11.012 52.937 10.464C52.581 9.912 52.403 9.282 52.403 8.574C52.403 7.866 52.581 7.238 52.937 6.69C53.297 6.138 53.799 5.71 54.443 5.406C55.091 5.098 55.833 4.944 56.669 4.944C57.421 4.944 58.105 5.074 58.721 5.334C59.337 5.59 59.835 5.954 60.215 6.426C60.595 6.894 60.819 7.432 60.887 8.04H58.451C58.367 7.636 58.165 7.324 57.845 7.104C57.525 6.88 57.133 6.768 56.669 6.768C56.305 6.768 55.987 6.838 55.715 6.978C55.447 7.118 55.239 7.324 55.091 7.596C54.947 7.868 54.875 8.194 54.875 8.574C54.875 9.146 55.035 9.59 55.355 9.906C55.679 10.218 56.117 10.374 56.669 10.374C57.129 10.374 57.519 10.26 57.839 10.032C58.163 9.8 58.367 9.492 58.451 9.108H60.887ZM68.8144 5.142V6.996H66.2104V12H63.7564V6.996H61.1524V5.142H68.8144ZM73.5176 12.198C72.6496 12.198 71.8836 12.048 71.2196 11.748C70.5556 11.444 70.0396 11.018 69.6716 10.47C69.3076 9.922 69.1256 9.29 69.1256 8.574C69.1256 7.858 69.3076 7.226 69.6716 6.678C70.0396 6.126 70.5556 5.7 71.2196 5.4C71.8836 5.096 72.6496 4.944 73.5176 4.944C74.3856 4.944 75.1516 5.096 75.8156 5.4C76.4796 5.7 76.9936 6.126 77.3576 6.678C77.7256 7.226 77.9096 7.858 77.9096 8.574C77.9096 9.29 77.7256 9.922 77.3576 10.47C76.9936 11.018 76.4796 11.444 75.8156 11.748C75.1516 12.048 74.3856 12.198 73.5176 12.198ZM71.5976 8.574C71.5976 8.946 71.6736 9.268 71.8256 9.54C71.9816 9.808 72.2036 10.014 72.4916 10.158C72.7796 10.302 73.1216 10.374 73.5176 10.374C73.9136 10.374 74.2556 10.302 74.5436 10.158C74.8316 10.014 75.0516 9.808 75.2036 9.54C75.3556 9.268 75.4316 8.946 75.4316 8.574C75.4316 8.202 75.3536 7.88 75.1976 7.608C75.0456 7.336 74.8256 7.128 74.5376 6.984C74.2536 6.84 73.9136 6.768 73.5176 6.768C73.1216 6.768 72.7796 6.84 72.4916 6.984C72.2036 7.128 71.9816 7.336 71.8256 7.608C71.6736 7.88 71.5976 8.202 71.5976 8.574Z" fill="#C6C6C6"/>
</svg>
