<svg width="79" height="15" viewBox="0 0 79 15" fill="none" xmlns="http://www.w3.org/2000/svg">
<path d="M7.5 9.45C5.34609 9.45 3.6 7.7039 3.6 5.55V1.93889C3.6 1.66989 3.6 1.53539 3.6392 1.42769C3.70492 1.24714 3.84714 1.10492 4.02769 1.0392C4.13539 1 4.26989 1 4.53889 1H10.4611C10.7301 1 10.8646 1 10.9723 1.0392C11.1529 1.10492 11.2951 1.24714 11.3608 1.42769C11.4 1.53539 11.4 1.66989 11.4 1.93889V5.55C11.4 7.7039 9.6539 9.45 7.5 9.45ZM7.5 9.45V11.4M11.4 2.3H13.025C13.3278 2.3 13.4793 2.3 13.5988 2.34948C13.758 2.41545 13.8846 2.54199 13.9505 2.70126C14 2.82071 14 2.97214 14 3.275V3.6C14 4.20448 14 4.50672 13.9336 4.7547C13.7533 5.42762 13.2276 5.95325 12.5547 6.13356C12.3068 6.2 12.0045 6.2 11.4 6.2M3.6 2.3H1.975C1.67214 2.3 1.52071 2.3 1.40126 2.34948C1.24199 2.41545 1.11545 2.54199 1.04948 2.70126C1 2.82071 1 2.97214 1 3.275V3.6C1 4.20448 1 4.50672 1.06644 4.7547C1.24675 5.42762 1.77238 5.95325 2.4453 6.13356C2.69328 6.2 2.99552 6.2 3.6 6.2M4.53889 14H10.4611C10.6206 14 10.75 13.8706 10.75 13.7111C10.75 12.4347 9.71526 11.4 8.43886 11.4H6.56114C5.28472 11.4 4.25 12.4347 4.25 13.7111C4.25 13.8706 4.37934 14 4.53889 14Z" stroke="#B38368" stroke-width="1.5" stroke-linecap="round" stroke-linejoin="round"/>
<path d="M18.57 5.91C18.61 5.33 18.814 4.804 19.182 4.332C19.554 3.86 20.084 3.488 20.772 3.216C21.46 2.94 22.276 2.802 23.22 2.802C24.044 2.802 24.768 2.908 25.392 3.12C26.016 3.328 26.498 3.622 26.838 4.002C27.178 4.382 27.348 4.822 27.348 5.322C27.348 5.802 27.188 6.22 26.868 6.576C26.548 6.932 26.062 7.19 25.41 7.35C26.098 7.47 26.624 7.7 26.988 8.04C27.356 8.38 27.54 8.826 27.54 9.378C27.54 9.93 27.362 10.42 27.006 10.848C26.654 11.272 26.138 11.604 25.458 11.844C24.778 12.08 23.968 12.198 23.028 12.198C22.1 12.198 21.286 12.07 20.586 11.814C19.89 11.554 19.346 11.186 18.954 10.71C18.562 10.23 18.354 9.67 18.33 9.03H20.814C20.934 9.866 21.672 10.284 23.028 10.284C23.668 10.284 24.158 10.19 24.498 10.002C24.842 9.81 25.014 9.54 25.014 9.192C25.014 8.984 24.956 8.814 24.84 8.682C24.728 8.55 24.534 8.45 24.258 8.382C23.986 8.314 23.612 8.28 23.136 8.28H21.594V6.606H23.136C23.74 6.606 24.176 6.526 24.444 6.366C24.712 6.206 24.846 5.976 24.846 5.676C24.846 5.368 24.696 5.132 24.396 4.968C24.1 4.8 23.664 4.716 23.088 4.716C22.476 4.716 22 4.818 21.66 5.022C21.32 5.226 21.116 5.522 21.048 5.91H18.57ZM31.7093 5.142H35.3933L37.1633 9.78L38.9213 5.142H42.6053V12H40.3073V7.038L38.2733 12H36.0353L34.0073 7.074V12H31.7093V5.142ZM47.9633 12.198C47.1353 12.198 46.3933 12.046 45.7373 11.742C45.0813 11.434 44.5673 11.004 44.1953 10.452C43.8233 9.9 43.6373 9.266 43.6373 8.55C43.6373 7.846 43.8153 7.22 44.1713 6.672C44.5313 6.124 45.0273 5.7 45.6593 5.4C46.2913 5.096 47.0033 4.944 47.7953 4.944C48.5993 4.944 49.2953 5.122 49.8833 5.478C50.4713 5.83 50.9213 6.332 51.2333 6.984C51.5493 7.632 51.7073 8.394 51.7073 9.27H46.2953C46.4633 9.634 46.7473 9.914 47.1473 10.11C47.5473 10.302 48.0513 10.398 48.6593 10.398C49.1633 10.398 49.6653 10.332 50.1653 10.2C50.6653 10.068 51.1213 9.88 51.5333 9.636V11.196C51.0533 11.52 50.5113 11.768 49.9073 11.94C49.3033 12.112 48.6553 12.198 47.9633 12.198ZM49.4273 7.794C49.3153 7.434 49.1233 7.158 48.8513 6.966C48.5833 6.77 48.2493 6.672 47.8493 6.672C47.4293 6.672 47.0733 6.774 46.7813 6.978C46.4933 7.178 46.2953 7.45 46.1873 7.794H49.4273ZM60.9338 9.108C60.8658 9.716 60.6418 10.254 60.2618 10.722C59.8818 11.19 59.3838 11.554 58.7678 11.814C58.1518 12.07 57.4678 12.198 56.7158 12.198C55.8798 12.198 55.1378 12.046 54.4898 11.742C53.8458 11.438 53.3438 11.012 52.9838 10.464C52.6278 9.912 52.4498 9.282 52.4498 8.574C52.4498 7.866 52.6278 7.238 52.9838 6.69C53.3438 6.138 53.8458 5.71 54.4898 5.406C55.1378 5.098 55.8798 4.944 56.7158 4.944C57.4678 4.944 58.1518 5.074 58.7678 5.334C59.3838 5.59 59.8818 5.954 60.2618 6.426C60.6418 6.894 60.8658 7.432 60.9338 8.04H58.4978C58.4138 7.636 58.2118 7.324 57.8918 7.104C57.5718 6.88 57.1798 6.768 56.7158 6.768C56.3518 6.768 56.0338 6.838 55.7618 6.978C55.4938 7.118 55.2858 7.324 55.1378 7.596C54.9938 7.868 54.9218 8.194 54.9218 8.574C54.9218 9.146 55.0818 9.59 55.4018 9.906C55.7258 10.218 56.1638 10.374 56.7158 10.374C57.1758 10.374 57.5658 10.26 57.8858 10.032C58.2098 9.8 58.4138 9.492 58.4978 9.108H60.9338ZM68.8613 5.142V6.996H66.2573V12H63.8033V6.996H61.1993V5.142H68.8613ZM73.5645 12.198C72.6965 12.198 71.9305 12.048 71.2665 11.748C70.6025 11.444 70.0865 11.018 69.7185 10.47C69.3545 9.922 69.1725 9.29 69.1725 8.574C69.1725 7.858 69.3545 7.226 69.7185 6.678C70.0865 6.126 70.6025 5.7 71.2665 5.4C71.9305 5.096 72.6965 4.944 73.5645 4.944C74.4325 4.944 75.1985 5.096 75.8625 5.4C76.5265 5.7 77.0405 6.126 77.4045 6.678C77.7725 7.226 77.9565 7.858 77.9565 8.574C77.9565 9.29 77.7725 9.922 77.4045 10.47C77.0405 11.018 76.5265 11.444 75.8625 11.748C75.1985 12.048 74.4325 12.198 73.5645 12.198ZM71.6445 8.574C71.6445 8.946 71.7205 9.268 71.8725 9.54C72.0285 9.808 72.2505 10.014 72.5385 10.158C72.8265 10.302 73.1685 10.374 73.5645 10.374C73.9605 10.374 74.3025 10.302 74.5905 10.158C74.8785 10.014 75.0985 9.808 75.2505 9.54C75.4025 9.268 75.4785 8.946 75.4785 8.574C75.4785 8.202 75.4005 7.88 75.2445 7.608C75.0925 7.336 74.8725 7.128 74.5845 6.984C74.3005 6.84 73.9605 6.768 73.5645 6.768C73.1685 6.768 72.8265 6.84 72.5385 6.984C72.2505 7.128 72.0285 7.336 71.8725 7.608C71.7205 7.88 71.6445 8.202 71.6445 8.574Z" fill="#B28368"/>
</svg>
