<svg width="75" height="15" viewBox="0 0 75 15" fill="none" xmlns="http://www.w3.org/2000/svg">
<path d="M7.5 9.45C5.34609 9.45 3.6 7.7039 3.6 5.55V1.93889C3.6 1.66989 3.6 1.53539 3.6392 1.42769C3.70492 1.24714 3.84714 1.10492 4.02769 1.0392C4.13539 1 4.26989 1 4.53889 1H10.4611C10.7301 1 10.8646 1 10.9723 1.0392C11.1529 1.10492 11.2951 1.24714 11.3608 1.42769C11.4 1.53539 11.4 1.66989 11.4 1.93889V5.55C11.4 7.7039 9.6539 9.45 7.5 9.45ZM7.5 9.45V11.4M11.4 2.3H13.025C13.3278 2.3 13.4793 2.3 13.5988 2.34948C13.758 2.41545 13.8846 2.54199 13.9505 2.70126C14 2.82071 14 2.97214 14 3.275V3.6C14 4.20448 14 4.50672 13.9336 4.7547C13.7533 5.42762 13.2276 5.95325 12.5547 6.13356C12.3068 6.2 12.0045 6.2 11.4 6.2M3.6 2.3H1.975C1.67214 2.3 1.52071 2.3 1.40126 2.34948C1.24199 2.41545 1.11545 2.54199 1.04948 2.70126C1 2.82071 1 2.97214 1 3.275V3.6C1 4.20448 1 4.50672 1.06644 4.7547C1.24675 5.42762 1.77238 5.95325 2.4453 6.13356C2.69328 6.2 2.99552 6.2 3.6 6.2M4.53889 14H10.4611C10.6206 14 10.75 13.8706 10.75 13.7111C10.75 12.4347 9.71526 11.4 8.43886 11.4H6.56114C5.28472 11.4 4.25 12.4347 4.25 13.7111C4.25 13.8706 4.37934 14 4.53889 14Z" stroke="#FFCC00" stroke-width="1.5" stroke-linecap="round" stroke-linejoin="round"/>
<path d="M23.352 12H20.892V5.136L18.168 5.616V3.69L21.522 3H23.352V12ZM27.8772 5.142H31.5612L33.3312 9.78L35.0892 5.142H38.7732V12H36.4752V7.038L34.4412 12H32.2032L30.1752 7.074V12H27.8772V5.142ZM44.1313 12.198C43.3033 12.198 42.5613 12.046 41.9053 11.742C41.2493 11.434 40.7353 11.004 40.3633 10.452C39.9913 9.9 39.8053 9.266 39.8053 8.55C39.8053 7.846 39.9833 7.22 40.3393 6.672C40.6993 6.124 41.1953 5.7 41.8273 5.4C42.4593 5.096 43.1713 4.944 43.9633 4.944C44.7673 4.944 45.4633 5.122 46.0513 5.478C46.6393 5.83 47.0893 6.332 47.4013 6.984C47.7173 7.632 47.8753 8.394 47.8753 9.27H42.4633C42.6313 9.634 42.9153 9.914 43.3153 10.11C43.7153 10.302 44.2193 10.398 44.8273 10.398C45.3313 10.398 45.8333 10.332 46.3333 10.2C46.8333 10.068 47.2893 9.88 47.7013 9.636V11.196C47.2213 11.52 46.6793 11.768 46.0753 11.94C45.4713 12.112 44.8233 12.198 44.1313 12.198ZM45.5953 7.794C45.4833 7.434 45.2913 7.158 45.0193 6.966C44.7513 6.77 44.4173 6.672 44.0173 6.672C43.5973 6.672 43.2413 6.774 42.9493 6.978C42.6613 7.178 42.4633 7.45 42.3553 7.794H45.5953ZM57.1018 9.108C57.0338 9.716 56.8098 10.254 56.4298 10.722C56.0498 11.19 55.5518 11.554 54.9358 11.814C54.3198 12.07 53.6358 12.198 52.8838 12.198C52.0478 12.198 51.3058 12.046 50.6578 11.742C50.0138 11.438 49.5118 11.012 49.1518 10.464C48.7958 9.912 48.6178 9.282 48.6178 8.574C48.6178 7.866 48.7958 7.238 49.1518 6.69C49.5118 6.138 50.0138 5.71 50.6578 5.406C51.3058 5.098 52.0478 4.944 52.8838 4.944C53.6358 4.944 54.3198 5.074 54.9358 5.334C55.5518 5.59 56.0498 5.954 56.4298 6.426C56.8098 6.894 57.0338 7.432 57.1018 8.04H54.6658C54.5818 7.636 54.3798 7.324 54.0598 7.104C53.7398 6.88 53.3478 6.768 52.8838 6.768C52.5198 6.768 52.2018 6.838 51.9298 6.978C51.6618 7.118 51.4538 7.324 51.3058 7.596C51.1618 7.868 51.0898 8.194 51.0898 8.574C51.0898 9.146 51.2498 9.59 51.5698 9.906C51.8938 10.218 52.3318 10.374 52.8838 10.374C53.3438 10.374 53.7338 10.26 54.0538 10.032C54.3778 9.8 54.5818 9.492 54.6658 9.108H57.1018ZM65.0292 5.142V6.996H62.4252V12H59.9712V6.996H57.3672V5.142H65.0292ZM69.7325 12.198C68.8645 12.198 68.0985 12.048 67.4345 11.748C66.7705 11.444 66.2545 11.018 65.8865 10.47C65.5225 9.922 65.3405 9.29 65.3405 8.574C65.3405 7.858 65.5225 7.226 65.8865 6.678C66.2545 6.126 66.7705 5.7 67.4345 5.4C68.0985 5.096 68.8645 4.944 69.7325 4.944C70.6005 4.944 71.3665 5.096 72.0305 5.4C72.6945 5.7 73.2085 6.126 73.5725 6.678C73.9405 7.226 74.1245 7.858 74.1245 8.574C74.1245 9.29 73.9405 9.922 73.5725 10.47C73.2085 11.018 72.6945 11.444 72.0305 11.748C71.3665 12.048 70.6005 12.198 69.7325 12.198ZM67.8125 8.574C67.8125 8.946 67.8885 9.268 68.0405 9.54C68.1965 9.808 68.4185 10.014 68.7065 10.158C68.9945 10.302 69.3365 10.374 69.7325 10.374C70.1285 10.374 70.4705 10.302 70.7585 10.158C71.0465 10.014 71.2665 9.808 71.4185 9.54C71.5705 9.268 71.6465 8.946 71.6465 8.574C71.6465 8.202 71.5685 7.88 71.4125 7.608C71.2605 7.336 71.0405 7.128 70.7525 6.984C70.4685 6.84 70.1285 6.768 69.7325 6.768C69.3365 6.768 68.9945 6.84 68.7065 6.984C68.4185 7.128 68.1965 7.336 68.0405 7.608C67.8885 7.88 67.8125 8.202 67.8125 8.574Z" fill="#FFCC00"/>
</svg>
