<svg width="100" height="15" viewBox="0 0 100 15" fill="none" xmlns="http://www.w3.org/2000/svg">
<path d="M11.4 14C11.4 12.0854 9.07187 10.5333 6.2 10.5333C3.32812 10.5333 1 12.0854 1 14M6.2 7.93333C4.28541 7.93333 2.73333 6.38122 2.73333 4.46667C2.73333 2.55208 4.28541 1 6.2 1C8.11455 1 9.66667 2.55208 9.66667 4.46667C9.66667 6.38122 8.11455 7.93333 6.2 7.93333Z" stroke="#127F59" stroke-width="1.5" stroke-linecap="round" stroke-linejoin="round"/>
<path d="M19.104 10.02L15.048 3H17.796L20.478 7.68L23.142 3H25.836L20.658 12H17.964L19.104 10.02ZM28.509 10.14C27.541 10.14 26.801 9.872 26.289 9.336C25.777 8.796 25.521 8.02 25.521 7.008V5.142H27.969V6.894C27.969 7.346 28.077 7.688 28.293 7.92C28.509 8.148 28.829 8.262 29.253 8.262C29.577 8.262 29.887 8.19 30.183 8.046C30.479 7.898 30.743 7.68 30.975 7.392V5.142H33.429V12H30.975V9.192C30.707 9.492 30.359 9.726 29.931 9.894C29.507 10.058 29.033 10.14 28.509 10.14ZM40.7856 10.614C40.4536 11.118 40.0396 11.508 39.5436 11.784C39.0476 12.06 38.4936 12.198 37.8816 12.198C37.2176 12.198 36.6276 12.048 36.1116 11.748C35.5996 11.444 35.2016 11.018 34.9176 10.47C34.6336 9.918 34.4916 9.286 34.4916 8.574C34.4916 7.858 34.6336 7.226 34.9176 6.678C35.2016 6.126 35.5996 5.7 36.1116 5.4C36.6276 5.096 37.2176 4.944 37.8816 4.944C38.4896 4.944 39.0436 5.08 39.5436 5.352C40.0436 5.624 40.4596 6.01 40.7916 6.51L40.9656 5.142H43.5096L43.0776 8.568L43.5096 12H40.9656L40.7856 10.614ZM36.9696 8.574C36.9696 8.91 37.0396 9.21 37.1796 9.474C37.3196 9.738 37.5136 9.946 37.7616 10.098C38.0136 10.246 38.2996 10.32 38.6196 10.32C38.9436 10.32 39.2536 10.246 39.5496 10.098C39.8496 9.946 40.1116 9.738 40.3356 9.474C40.5636 9.21 40.7336 8.91 40.8456 8.574C40.7336 8.238 40.5636 7.938 40.3356 7.674C40.1116 7.406 39.8496 7.198 39.5496 7.05C39.2536 6.898 38.9436 6.822 38.6196 6.822C38.2996 6.822 38.0136 6.898 37.7616 7.05C37.5136 7.198 37.3196 7.406 37.1796 7.674C37.0396 7.938 36.9696 8.238 36.9696 8.574ZM52.801 9.108C52.733 9.716 52.509 10.254 52.129 10.722C51.749 11.19 51.251 11.554 50.635 11.814C50.019 12.07 49.335 12.198 48.583 12.198C47.747 12.198 47.005 12.046 46.357 11.742C45.713 11.438 45.211 11.012 44.851 10.464C44.495 9.912 44.317 9.282 44.317 8.574C44.317 7.866 44.495 7.238 44.851 6.69C45.211 6.138 45.713 5.71 46.357 5.406C47.005 5.098 47.747 4.944 48.583 4.944C49.335 4.944 50.019 5.074 50.635 5.334C51.251 5.59 51.749 5.954 52.129 6.426C52.509 6.894 52.733 7.432 52.801 8.04H50.365C50.281 7.636 50.079 7.324 49.759 7.104C49.439 6.88 49.047 6.768 48.583 6.768C48.219 6.768 47.901 6.838 47.629 6.978C47.361 7.118 47.153 7.324 47.005 7.596C46.861 7.868 46.789 8.194 46.789 8.574C46.789 9.146 46.949 9.59 47.269 9.906C47.593 10.218 48.031 10.374 48.583 10.374C49.043 10.374 49.433 10.26 49.753 10.032C50.077 9.8 50.281 9.492 50.365 9.108H52.801ZM60.7284 5.142V6.996H58.1244V12H55.6704V6.996H53.0664V5.142H60.7284ZM64.0283 5.142V7.584H67.2563V5.142H69.7043V12H67.2563V9.408H64.0283V12H61.5803V5.142H64.0283ZM71.0608 5.142H73.4728V9.726L76.5388 5.142H79.6888V12H77.2708V7.284L74.1148 12H71.0608V5.142ZM81.0452 5.142H83.4992V8.952L86.5952 5.142H89.1872L86.8172 7.86L89.3732 12H86.6132L85.2512 9.66L83.2172 12H81.0452V5.142ZM89.9514 5.142H92.3634V9.726L95.4294 5.142H98.5794V12H96.1614V7.284L93.0054 12H89.9514V5.142Z" fill="#127F59"/>
</svg>
