<?xml version="1.0" encoding="UTF-8" standalone="no"?>
<!-- Created with Inkscape (http://www.inkscape.org/) -->

<svg
   width="224.93739mm"
   height="69.234001mm"
   viewBox="0 0 224.93739 69.234001"
   version="1.1"
   id="svg5"
   xml:space="preserve"
   xmlns="http://www.w3.org/2000/svg"
   xmlns:svg="http://www.w3.org/2000/svg"><defs
     id="defs2" /><g
     id="layer1"
     transform="translate(-12.546532,-9.3468567)"><g
       aria-label="Статус проекта"
       id="text202"
       style="font-weight:500;font-size:15.4622px;font-family:Unbounded;-inkscape-font-specification:'Unbounded Medium';fill:#ffff00;fill-opacity:0;stroke-width:11.5963;stroke-linecap:round;stroke-linejoin:round"><path
         d="m 32.188891,22.990543 q -0.170084,1.468909 -1.028236,2.597649 -0.858152,1.12101 -2.265213,1.739498 -1.40706,0.618488 -3.185213,0.618488 -1.97143,0 -3.478995,-0.749917 -1.499833,-0.757648 -2.327061,-2.126052 -0.827228,-1.368405 -0.827228,-3.154289 0,-1.785884 0.827228,-3.154289 0.827228,-1.368405 2.327061,-2.118321 1.507565,-0.757648 3.478995,-0.757648 1.778153,0 3.185213,0.618488 1.407061,0.618488 2.265213,1.747228 0.858152,1.12101 1.028236,2.589919 H 29.552586 Q 29.390233,20.0218 28.87998,19.426506 28.377459,18.82348 27.565693,18.506505 q -0.811765,-0.324707 -1.863195,-0.324707 -1.213783,0 -2.11059,0.456135 -0.889077,0.456135 -1.376136,1.298825 -0.479328,0.84269 -0.479328,1.979162 0,1.136471 0.479328,1.979161 0.487059,0.84269 1.376136,1.298825 0.896807,0.456135 2.11059,0.456135 1.592607,0 2.59765,-0.695799 1.012774,-0.695799 1.252438,-1.963699 z"
         style="fill:#23dd83;fill-opacity:1"
         id="path8941" /><path
         d="m 42.363012,18.923984 v 1.979162 h -3.494457 v 6.811099 h -2.589919 v -6.811099 h -3.494457 v -1.979162 z"
         style="fill:#23dd83;fill-opacity:1"
         id="path8943" /><path
         d="m 51.068218,25.735083 q -0.657143,1.05143 -1.662186,1.631262 -0.997312,0.579833 -2.218826,0.579833 -1.275632,0 -2.272944,-0.579833 -0.997312,-0.579832 -1.553951,-1.631262 -0.548908,-1.051429 -0.548908,-2.412103 0,-1.368405 0.548908,-2.419834 0.556639,-1.059161 1.54622,-1.638994 0.997312,-0.579832 2.280675,-0.579832 1.221514,0 2.218826,0.579832 1.005043,0.572102 1.669917,1.623531 l 0.224202,-1.963699 h 2.674961 l -0.510253,4.391265 0.510253,4.398996 H 51.300151 Z M 45.432246,23.32298 q 0,0.757648 0.316975,1.352943 0.316975,0.595294 0.873614,0.927732 0.564371,0.332437 1.275632,0.332437 0.718992,0 1.368405,-0.332437 0.649412,-0.332438 1.136471,-0.920001 0.494791,-0.595295 0.77311,-1.360674 -0.278319,-0.765379 -0.77311,-1.360674 -0.487059,-0.595294 -1.136471,-0.927732 -0.649413,-0.340168 -1.368405,-0.340168 -0.711261,0 -1.275632,0.340168 -0.556639,0.332438 -0.873614,0.935463 -0.316975,0.595295 -0.316975,1.352943 z"
         style="fill:#23dd83;fill-opacity:1"
         id="path8945" /><path
         d="m 64.520325,18.923984 v 1.979162 h -3.494458 v 6.811099 h -2.589918 v -6.811099 h -3.494457 v -1.979162 z"
         style="fill:#23dd83;fill-opacity:1"
         id="path8947" /><path
         d="m 68.200323,30.497441 q -0.858152,0 -1.553951,-0.20874 -0.695799,-0.20874 -1.329749,-0.641681 v -1.863195 q 0.672606,0.42521 1.252438,0.603026 0.579833,0.185546 1.283363,0.185546 0.672605,0 1.151934,-0.301513 0.487059,-0.293782 0.788572,-0.989581 l 0.05412,-0.115966 h -1.090085 l -3.888743,-8.241353 h 2.845045 l 2.852776,6.594628 2.891431,-6.594628 h 2.744541 l -4.383534,9.184547 q -0.587564,1.252438 -1.523027,1.816808 -0.935463,0.572102 -2.095128,0.572102 z"
         style="fill:#23dd83;fill-opacity:1"
         id="path8949" /><path
         d="m 86.847737,24.127014 q -0.13916,1.128741 -0.858152,1.994624 -0.711262,0.865883 -1.855464,1.345212 -1.144203,0.479328 -2.52807,0.479328 -1.553951,0 -2.760003,-0.579833 -1.206051,-0.587563 -1.878657,-1.631262 -0.664875,-1.051429 -0.664875,-2.412103 0,-1.360674 0.664875,-2.412103 0.672606,-1.05143 1.878657,-1.638993 1.206052,-0.587564 2.760003,-0.587564 1.383867,0 2.52807,0.479328 1.144202,0.479328 1.855464,1.352943 0.718992,0.873614 0.858152,2.002355 H 84.265549 Q 84.072272,21.6376 83.35328,21.14281 q -0.711262,-0.494791 -1.747229,-0.494791 -0.819497,0 -1.430254,0.316975 -0.603025,0.316976 -0.935463,0.920001 -0.324706,0.603026 -0.324706,1.437985 0,0.827228 0.324706,1.430254 0.332438,0.603025 0.935463,0.92 0.610757,0.316976 1.430254,0.316976 0.680337,0 1.236976,-0.224202 0.56437,-0.231933 0.927732,-0.657144 0.371093,-0.42521 0.49479,-0.98185 z"
         style="fill:#23dd83;fill-opacity:1"
         id="path8951" /><path
         d="m 102.1012,27.714245 h -2.589915 v -6.842024 h -4.715971 v 6.842024 h -2.589919 v -8.790261 h 9.895805 z"
         style="fill:#23dd83;fill-opacity:1"
         id="path8953" /><path
         d="m 106.62389,18.923984 v 1.971431 q 0.66487,-1.059161 1.66219,-1.631263 1.00504,-0.579832 2.23428,-0.579832 1.28337,0 2.27295,0.579832 0.99731,0.579833 1.54622,1.638994 0.55664,1.051429 0.55664,2.419834 0,1.360674 -0.55664,2.412103 -0.54891,1.05143 -1.54622,1.631262 -0.99731,0.579833 -2.27295,0.579833 -1.22924,0 -2.23428,-0.579833 -0.99732,-0.587563 -1.66219,-1.646724 v 4.545887 h -2.58992 V 18.923984 Z m -0.0928,4.398996 q 0.27832,0.765379 0.76537,1.360674 0.4948,0.587563 1.14421,0.920001 0.64941,0.332437 1.3684,0.332437 0.71126,0 1.2679,-0.332437 0.56437,-0.332438 0.88135,-0.927732 0.31697,-0.595295 0.31697,-1.352943 0,-0.757648 -0.31697,-1.352943 -0.31698,-0.603025 -0.88135,-0.935463 -0.55664,-0.340168 -1.2679,-0.340168 -0.71899,0 -1.3684,0.340168 -0.64941,0.332438 -1.14421,0.927732 -0.48705,0.595295 -0.76537,1.360674 z"
         style="fill:#23dd83;fill-opacity:1"
         id="path8955" /><path
         d="m 121.45988,27.946178 q -1.62353,0 -2.87597,-0.579833 -1.2447,-0.579832 -1.93277,-1.623531 -0.68807,-1.051429 -0.68807,-2.419834 0,-1.376136 0.68807,-2.427565 0.68807,-1.05143 1.93277,-1.631263 1.25244,-0.579832 2.87597,-0.579832 1.62353,0 2.86824,0.579832 1.25244,0.579833 1.94051,1.631263 0.68806,1.051429 0.68806,2.427565 0,1.368405 -0.68806,2.419834 -0.68807,1.043699 -1.94051,1.623531 -1.24471,0.579833 -2.86824,0.579833 z m -2.8837,-4.623198 q 0,0.819497 0.3479,1.422522 0.3479,0.595295 0.99731,0.920001 0.64941,0.324707 1.53849,0.324707 0.88908,0 1.53076,-0.324707 0.64941,-0.324706 0.99731,-0.920001 0.3479,-0.603025 0.3479,-1.422522 0,-0.819497 -0.3479,-1.422522 -0.3479,-0.603026 -0.99731,-0.927732 -0.64941,-0.324707 -1.53076,-0.324707 -0.88908,0 -1.53849,0.324707 -0.64941,0.324706 -0.99731,0.927732 -0.3479,0.603025 -0.3479,1.422522 z"
         style="fill:#23dd83;fill-opacity:1"
         id="path8957" /><path
         d="m 133.41989,27.946178 q -1.56168,0 -2.79866,-0.579833 -1.23698,-0.587563 -1.93277,-1.638993 -0.6958,-1.059161 -0.6958,-2.435296 0,-1.352943 0.66487,-2.396641 0.66488,-1.05143 1.84773,-1.631263 1.18286,-0.579832 2.67496,-0.579832 1.49984,0 2.61312,0.672606 1.11327,0.664874 1.70857,1.90185 0.60302,1.229245 0.60302,2.868238 h -7.34454 q 0.29378,0.896808 1.1442,1.383867 0.85042,0.48706 2.15698,0.48706 0.99731,0 2.00235,-0.286051 1.00505,-0.286051 1.80135,-0.804034 v 1.731766 q -0.87361,0.618488 -2.03328,0.966387 -1.15193,0.340169 -2.4121,0.340169 z m 2.17244,-5.535468 q -0.2242,-0.873614 -0.85042,-1.345211 -0.61849,-0.479328 -1.54622,-0.479328 -0.98185,0 -1.64673,0.49479 -0.65714,0.487059 -0.86588,1.329749 z"
         style="fill:#23dd83;fill-opacity:1"
         id="path8959" /><path
         d="m 139.60477,18.923984 h 2.58992 v 5.504543 l 4.48404,-5.504543 h 2.81412 l -3.06152,3.564037 3.32438,5.226224 h -2.95328 l -2.01009,-3.316642 -2.85278,3.316642 h -2.33479 z"
         style="fill:#23dd83;fill-opacity:1"
         id="path8961" /><path
         d="m 159.44277,18.923984 v 1.979162 h -3.49446 v 6.811099 h -2.58991 v -6.811099 h -3.49446 v -1.979162 z"
         style="fill:#23dd83;fill-opacity:1"
         id="path8963" /><path
         d="m 168.14798,25.735083 q -0.65714,1.05143 -1.66219,1.631262 -0.99731,0.579833 -2.21882,0.579833 -1.27563,0 -2.27295,-0.579833 -0.99731,-0.579832 -1.55395,-1.631262 -0.54891,-1.051429 -0.54891,-2.412103 0,-1.368405 0.54891,-2.419834 0.55664,-1.059161 1.54622,-1.638994 0.99731,-0.579832 2.28068,-0.579832 1.22151,0 2.21882,0.579832 1.00505,0.572102 1.66992,1.623531 l 0.2242,-1.963699 h 2.67496 l -0.51025,4.391265 0.51025,4.398996 h -2.67496 z m -5.63597,-2.412103 q 0,0.757648 0.31697,1.352943 0.31698,0.595294 0.87362,0.927732 0.56437,0.332437 1.27563,0.332437 0.71899,0 1.3684,-0.332437 0.64942,-0.332438 1.13647,-0.920001 0.4948,-0.595295 0.77311,-1.360674 -0.27831,-0.765379 -0.77311,-1.360674 -0.48705,-0.595294 -1.13647,-0.927732 -0.64941,-0.340168 -1.3684,-0.340168 -0.71126,0 -1.27563,0.340168 -0.55664,0.332438 -0.87362,0.935463 -0.31697,0.595295 -0.31697,1.352943 z"
         style="fill:#23dd83;fill-opacity:1"
         id="path8965" /></g><g
       aria-label="Набросок"
       id="text202-3"
       style="font-weight:500;font-size:13.0738px;font-family:Unbounded;-inkscape-font-specification:'Unbounded Medium';fill:#1aae6e;stroke-width:9.80506;stroke-linecap:round;stroke-linejoin:round"><path
         d="m 51.387326,38.685704 v 3.863308 h 5.628271 v -3.863308 h 2.222546 v 9.805351 h -2.222546 v -3.980973 h -5.628271 v 3.980973 h -2.216009 v -9.805351 z"
         id="path8924" /><path
         d="m 67.58577,46.817608 q -0.555637,0.889019 -1.405434,1.379286 -0.84326,0.490268 -1.87609,0.490268 -1.078589,0 -1.921849,-0.490268 -0.84326,-0.490267 -1.313917,-1.379286 -0.464119,-0.889018 -0.464119,-2.039513 0,-1.157031 0.464119,-2.046049 0.470657,-0.895556 1.30738,-1.385823 0.843261,-0.490268 1.928386,-0.490268 1.03283,0 1.87609,0.490268 0.849797,0.48373 1.411971,1.372749 l 0.18957,-1.660373 h 2.261767 l -0.431435,3.712959 0.431435,3.719497 h -2.261767 z m -4.7654,-2.039513 q 0,0.640617 0.268013,1.143958 0.268012,0.503341 0.738669,0.784428 0.477194,0.281087 1.078589,0.281087 0.607932,0 1.157031,-0.281087 0.5491,-0.281087 0.960924,-0.777891 0.418362,-0.503342 0.65369,-1.150495 -0.235328,-0.647153 -0.65369,-1.150494 -0.411824,-0.503341 -0.960924,-0.784428 -0.549099,-0.287624 -1.157031,-0.287624 -0.601395,0 -1.078589,0.287624 -0.470657,0.281087 -0.738669,0.790965 -0.268013,0.503341 -0.268013,1.143957 z"
         id="path8926" /><path
         d="m 76.044502,48.687162 q -1.523098,0 -2.61476,-0.581785 -1.085125,-0.581784 -1.660373,-1.68652 -0.575247,-1.104736 -0.575247,-2.647444 0,-1.529635 0.555637,-2.647445 0.555636,-1.11781 1.627688,-1.758426 1.072051,-0.640616 2.608223,-0.771354 1.313917,-0.104591 1.974144,-0.176496 0.666763,-0.07191 1.052441,-0.143812 0.392214,-0.07844 0.764817,-0.209181 v 1.810721 q -0.424899,0.16996 -1.183179,0.268013 -0.75828,0.09152 -2.183325,0.156886 -3.366503,0.156885 -3.379577,3.412262 0.281087,-0.63408 0.810576,-1.091663 0.536025,-0.46412 1.261621,-0.705985 0.725596,-0.248402 1.562319,-0.248402 1.11781,0 1.974144,0.431435 0.862871,0.424899 1.333528,1.20279 0.477194,0.771354 0.477194,1.784574 0,1.078588 -0.5491,1.895701 -0.542563,0.817112 -1.542708,1.261621 -0.993609,0.44451 -2.314063,0.44451 z m -2.582076,-3.660664 q 0.130738,0.607931 0.496805,1.065514 0.372603,0.451046 0.921703,0.699449 0.549099,0.241865 1.215863,0.241865 0.640616,0 1.124347,-0.235329 0.490267,-0.241865 0.751743,-0.6733 0.268013,-0.431436 0.268013,-1.000146 0,-0.56871 -0.268013,-1.000146 -0.261476,-0.431435 -0.745206,-0.666763 -0.483731,-0.235329 -1.130884,-0.235329 -0.895555,0 -1.595003,0.477194 -0.692912,0.477194 -1.039368,1.326991 z"
         id="path8928" /><path
         d="m 83.914933,41.058599 v 1.66691 q 0.562173,-0.895556 1.405434,-1.379286 0.849797,-0.490268 1.889164,-0.490268 1.085125,0 1.921848,0.490268 0.84326,0.490267 1.30738,1.385823 0.470657,0.889018 0.470657,2.046049 0,1.150495 -0.470657,2.039513 -0.46412,0.889019 -1.30738,1.379286 -0.84326,0.490268 -1.921848,0.490268 -1.039367,0 -1.889164,-0.490268 -0.843261,-0.496804 -1.405434,-1.39236 v 3.843698 h -2.189862 v -9.589633 z m -0.07844,3.719496 q 0.235329,0.647153 0.647153,1.150495 0.418362,0.496804 0.967462,0.777891 0.549099,0.281087 1.157031,0.281087 0.601395,0 1.072051,-0.281087 0.477194,-0.281087 0.745207,-0.784428 0.268013,-0.503341 0.268013,-1.143958 0,-0.640616 -0.268013,-1.143957 -0.268013,-0.509878 -0.745207,-0.790965 -0.470656,-0.287624 -1.072051,-0.287624 -0.607932,0 -1.157031,0.287624 -0.5491,0.281087 -0.967462,0.784428 -0.411824,0.503341 -0.647153,1.150494 z"
         id="path8930" /><path
         d="m 96.459259,48.687162 q -1.372749,0 -2.431727,-0.490268 -1.052441,-0.490267 -1.634225,-1.372749 -0.581784,-0.889018 -0.581784,-2.04605 0,-1.163568 0.581784,-2.052586 0.581784,-0.889019 1.634225,-1.379286 1.058978,-0.490268 2.431727,-0.490268 1.372749,0 2.42519,0.490268 1.058977,0.490267 1.640761,1.379286 0.58178,0.889018 0.58178,2.052586 0,1.157032 -0.58178,2.04605 -0.581784,0.882482 -1.640761,1.372749 -1.052441,0.490268 -2.42519,0.490268 z m -2.438264,-3.909067 q 0,0.692912 0.29416,1.20279 0.294161,0.503341 0.843261,0.777891 0.549099,0.27455 1.300843,0.27455 0.751743,0 1.294306,-0.27455 0.549099,-0.27455 0.84326,-0.777891 0.29416,-0.509878 0.29416,-1.20279 0,-0.692911 -0.29416,-1.202789 -0.294161,-0.509879 -0.84326,-0.784428 -0.5491,-0.27455 -1.294306,-0.27455 -0.751744,0 -1.300843,0.27455 -0.5491,0.274549 -0.843261,0.784428 -0.29416,0.509878 -0.29416,1.202789 z"
         id="path8932" /><path
         d="m 110.89927,45.457933 q -0.11767,0.954387 -0.7256,1.68652 -0.60139,0.732133 -1.56885,1.137421 -0.96747,0.405288 -2.13757,0.405288 -1.31392,0 -2.33367,-0.490268 -1.01976,-0.496804 -1.58847,-1.379286 -0.56217,-0.889018 -0.56217,-2.039513 0,-1.150494 0.56217,-2.039513 0.56871,-0.889018 1.58847,-1.385822 1.01975,-0.496805 2.33367,-0.496805 1.1701,0 2.13757,0.405288 0.96746,0.405288 1.56885,1.143958 0.60793,0.738669 0.7256,1.693057 h -2.18333 q -0.16342,-0.745207 -0.77135,-1.163569 -0.6014,-0.418361 -1.47734,-0.418361 -0.69291,0 -1.20933,0.268013 -0.50988,0.268013 -0.79096,0.777891 -0.27455,0.509878 -0.27455,1.215863 0,0.699449 0.27455,1.209327 0.28108,0.509878 0.79096,0.777891 0.51642,0.268013 1.20933,0.268013 0.57525,0 1.0459,-0.18957 0.4772,-0.196107 0.78443,-0.555637 0.31377,-0.359529 0.41836,-0.830186 z"
         id="path8934" /><path
         d="m 116.3445,48.687162 q -1.37274,0 -2.43172,-0.490268 -1.05244,-0.490267 -1.63423,-1.372749 -0.58178,-0.889018 -0.58178,-2.04605 0,-1.163568 0.58178,-2.052586 0.58179,-0.889019 1.63423,-1.379286 1.05898,-0.490268 2.43172,-0.490268 1.37275,0 2.42519,0.490268 1.05898,0.490267 1.64077,1.379286 0.58178,0.889018 0.58178,2.052586 0,1.157032 -0.58178,2.04605 -0.58179,0.882482 -1.64077,1.372749 -1.05244,0.490268 -2.42519,0.490268 z m -2.43826,-3.909067 q 0,0.692912 0.29416,1.20279 0.29416,0.503341 0.84326,0.777891 0.5491,0.27455 1.30084,0.27455 0.75175,0 1.29431,-0.27455 0.5491,-0.27455 0.84326,-0.777891 0.29416,-0.509878 0.29416,-1.20279 0,-0.692911 -0.29416,-1.202789 -0.29416,-0.509879 -0.84326,-0.784428 -0.5491,-0.27455 -1.29431,-0.27455 -0.75174,0 -1.30084,0.27455 -0.5491,0.274549 -0.84326,0.784428 -0.29416,0.509878 -0.29416,1.202789 z"
         id="path8936" /><path
         d="m 122.24733,41.058599 h 2.18986 v 4.654273 l 3.7914,-4.654273 h 2.37943 l -2.58861,3.013511 2.81087,4.418945 h -2.4971 l -1.69959,-2.804331 -2.41212,2.804331 h -1.97414 z"
         id="path8938" /></g><path
       d="m 20.565545,57.223786 h 7.578464 l -2.21976,13.077652 c -0.07668,0.438645 0.04734,0.888647 0.338607,1.22601 0.290959,0.337347 0.717921,0.526055 1.163158,0.514066 0.445268,-0.01168 0.861502,-0.222792 1.134155,-0.575287 l 12.621212,-16.131366 3.2e-4,3.21e-4 c 0.23163,-0.294111 0.343657,-0.664596 0.313677,-1.037294 -0.02966,-0.373006 -0.199122,-0.721081 -0.474618,-0.974442 -0.275497,-0.253086 -0.636191,-0.393202 -1.010473,-0.391627 h -7.57846 l 2.219759,-13.07765 c 0.07637,-0.438644 -0.04797,-0.888647 -0.338921,-1.225686 -0.290959,-0.337032 -0.717922,-0.525425 -1.163159,-0.513751 -0.444953,0.01199 -0.86118,0.223107 -1.133832,0.574971 L 19.394462,54.821069 c -0.230999,0.29411 -0.342711,0.664281 -0.312731,1.036971 0.02998,0.372375 0.19976,0.720135 0.474619,0.97323 0.275174,0.253086 0.63556,0.392887 1.009502,0.391942 z"
       id="path40"
       style="fill:none;fill-opacity:1;stroke:#1aae6e;stroke-width:1.85208;stroke-linecap:butt;stroke-linejoin:round;stroke-dasharray:1.85208, 1.85208;stroke-dashoffset:0;stroke-opacity:1" /><g
       aria-label="Куски кода, которые должны были
стать проектом, но не смогли."
       id="text1463"
       style="font-weight:500;font-size:8.31932px;font-family:Unbounded;-inkscape-font-specification:'Unbounded Medium';fill:#127f59;stroke-width:6.2393;stroke-linecap:round;stroke-linejoin:round"><path
         d="m 48.883084,55.202927 h 1.405965 v 4.317727 l 3.460837,-4.317727 h 1.505797 l -2.158863,2.637225 2.246216,3.602265 h -1.605629 l -1.539074,-2.504115 -2.046553,2.504115 h -1.268696 z"
         id="path8819" /><path
         d="m 56.773964,62.939895 q -0.461722,0 -0.836092,-0.112311 -0.374369,-0.112311 -0.715461,-0.345252 v -1.002478 q 0.36189,0.228781 0.673865,0.324454 0.311974,0.09983 0.690503,0.09983 0.361891,0 0.61979,-0.162226 0.262058,-0.158067 0.424285,-0.532437 l 0.02912,-0.0624 h -0.586513 l -2.092308,-4.434197 h 1.530754 l 1.534915,3.54819 1.555713,-3.54819 h 1.476679 l -2.358527,4.941676 q -0.316134,0.673865 -0.819453,0.97752 -0.503319,0.307815 -1.127268,0.307815 z"
         id="path8821" /><path
         d="m 66.807065,59.512335 q -0.07487,0.60731 -0.461723,1.073192 -0.382688,0.465882 -0.998318,0.723781 -0.61563,0.257899 -1.360209,0.257899 -0.836091,0 -1.484998,-0.311975 -0.648907,-0.316134 -1.010798,-0.877688 -0.35773,-0.565714 -0.35773,-1.297814 0,-0.7321 0.35773,-1.297814 0.361891,-0.565713 1.010798,-0.881847 0.648907,-0.316135 1.484998,-0.316135 0.744579,0 1.360209,0.257899 0.61563,0.257899 0.998318,0.727941 0.386849,0.470041 0.461723,1.077352 h -1.389327 q -0.103991,-0.474202 -0.49084,-0.74042 -0.382688,-0.266218 -0.940083,-0.266218 -0.440924,0 -0.769537,0.170546 -0.324453,0.170546 -0.503319,0.495 -0.174705,0.324453 -0.174705,0.773696 0,0.445084 0.174705,0.769537 0.178866,0.324454 0.503319,0.495 0.328613,0.170546 0.769537,0.170546 0.36605,0 0.665546,-0.12063 0.303655,-0.12479 0.499159,-0.353571 0.199664,-0.228782 0.266218,-0.528277 z"
         id="path8823" /><path
         d="m 67.555804,56.712884 h 1.393486 v 2.961678 l 2.412603,-2.961678 h 1.514116 l -1.647225,1.917603 1.788654,2.81193 h -1.58899 l -1.081512,-1.784494 -1.534915,1.784494 h -1.256217 z"
         id="path8825" /><path
         d="m 73.483315,56.712884 h 1.372688 v 3.431719 l 2.508275,-3.431719 h 1.788654 v 4.729533 h -1.368528 v -3.498274 l -2.558191,3.498274 h -1.742898 z"
         id="path8827" /><path
         d="m 82.330909,56.712884 h 1.393486 v 2.961678 l 2.412602,-2.961678 h 1.514117 l -1.647226,1.917603 1.788654,2.81193 h -1.58899 l -1.081512,-1.784494 -1.534914,1.784494 h -1.256217 z"
         id="path8829" /><path
         d="m 90.708463,61.567207 q -0.873528,0 -1.547393,-0.311975 -0.669705,-0.311974 -1.039915,-0.873528 -0.37021,-0.565714 -0.37021,-1.301974 0,-0.740419 0.37021,-1.306133 0.37021,-0.565714 1.039915,-0.877688 0.673865,-0.311975 1.547393,-0.311975 0.873529,0 1.543234,0.311975 0.673865,0.311974 1.044075,0.877688 0.37021,0.565714 0.37021,1.306133 0,0.73626 -0.37021,1.301974 -0.37021,0.561554 -1.044075,0.873528 -0.669705,0.311975 -1.543234,0.311975 z M 89.15691,59.07973 q 0,0.440924 0.187185,0.765378 0.187185,0.320294 0.536596,0.494999 0.349412,0.174706 0.827772,0.174706 0.478361,0 0.823613,-0.174706 0.349412,-0.174705 0.536596,-0.494999 0.187185,-0.324454 0.187185,-0.765378 0,-0.440924 -0.187185,-0.765377 -0.187184,-0.324454 -0.536596,-0.499159 -0.349411,-0.174706 -0.823613,-0.174706 -0.47836,0 -0.827772,0.174706 -0.349411,0.174705 -0.536596,0.499159 -0.187185,0.324453 -0.187185,0.765377 z"
         id="path8831" /><path
         d="m 100.74572,62.607122 h -1.202137 v -1.164705 h -4.430038 v 1.164705 h -1.202141 v -2.212939 h 0.619789 q 0.24958,-0.282857 0.37021,-0.815293 0.12479,-0.532437 0.12479,-1.335251 0,-0.715462 -0.09567,-1.530755 h 4.945836 v 3.681299 h 0.869361 z M 98.491189,60.414981 V 57.74448 h -2.233737 q 0.03744,0.316134 0.03744,0.773696 0,0.61563 -0.09983,1.09815 -0.09567,0.478361 -0.287016,0.798655 z"
         id="path8833" /><path
         d="m 105.5959,60.377544 q -0.35357,0.565714 -0.89433,0.877688 -0.5366,0.311975 -1.19382,0.311975 -0.68635,0 -1.22294,-0.311975 -0.5366,-0.311974 -0.83609,-0.877688 -0.29534,-0.565714 -0.29534,-1.297814 0,-0.736259 0.29534,-1.301973 0.29949,-0.569874 0.83193,-0.881848 0.53659,-0.311975 1.2271,-0.311975 0.65722,0 1.19382,0.311975 0.54076,0.307815 0.89849,0.873528 l 0.12063,-1.056553 h 1.43924 l -0.27454,2.362687 0.27454,2.366846 h -1.43924 z m -3.0324,-1.297814 q 0,0.407647 0.17055,0.727941 0.17055,0.320294 0.47004,0.499159 0.30366,0.178865 0.68635,0.178865 0.38684,0 0.73626,-0.178865 0.34941,-0.178865 0.61147,-0.495 0.26621,-0.320293 0.41596,-0.7321 -0.14975,-0.411806 -0.41596,-0.7321 -0.26206,-0.320294 -0.61147,-0.499159 -0.34942,-0.183025 -0.73626,-0.183025 -0.38269,0 -0.68635,0.183025 -0.29949,0.178865 -0.47004,0.503319 -0.17055,0.320294 -0.17055,0.72794 z"
         id="path8835" /><path
         d="m 108.4411,61.446577 q -0.2371,-0.08735 -0.38269,-0.291176 -0.14559,-0.207983 -0.14559,-0.465882 0,-0.220462 0.10815,-0.403487 0.10815,-0.187185 0.29534,-0.291176 0.19134,-0.108152 0.41596,-0.108152 0.22879,0 0.41597,0.112311 0.18719,0.108151 0.29534,0.299496 0.10815,0.191344 0.10815,0.420125 0,0.220462 -0.10399,0.470042 -0.0998,0.24542 -0.34942,0.636428 l -0.50331,0.806974 h -0.71131 z"
         id="path8837" /><path
         d="m 112.37197,56.712884 h 1.39349 v 2.961678 l 2.4126,-2.961678 h 1.51412 l -1.64723,1.917603 1.78866,2.81193 h -1.58899 l -1.08151,-1.784494 -1.53492,1.784494 h -1.25622 z"
         id="path8839" /><path
         d="m 120.74952,61.567207 q -0.87352,0 -1.54739,-0.311975 -0.6697,-0.311974 -1.03991,-0.873528 -0.37021,-0.565714 -0.37021,-1.301974 0,-0.740419 0.37021,-1.306133 0.37021,-0.565714 1.03991,-0.877688 0.67387,-0.311975 1.54739,-0.311975 0.87353,0 1.54324,0.311975 0.67386,0.311974 1.04407,0.877688 0.37021,0.565714 0.37021,1.306133 0,0.73626 -0.37021,1.301974 -0.37021,0.561554 -1.04407,0.873528 -0.66971,0.311975 -1.54324,0.311975 z m -1.55155,-2.487477 q 0,0.440924 0.18719,0.765378 0.18718,0.320294 0.53659,0.494999 0.34941,0.174706 0.82777,0.174706 0.47837,0 0.82362,-0.174706 0.34941,-0.174705 0.53659,-0.494999 0.18719,-0.324454 0.18719,-0.765378 0,-0.440924 -0.18719,-0.765377 -0.18718,-0.324454 -0.53659,-0.499159 -0.34941,-0.174706 -0.82362,-0.174706 -0.47836,0 -0.82777,0.174706 -0.34941,0.174705 -0.53659,0.499159 -0.18719,0.324453 -0.18719,0.765377 z"
         id="path8841" /><path
         d="m 129.07717,56.712884 v 1.064873 H 127.197 v 3.66466 h -1.39348 v -3.66466 h -1.88017 v -1.064873 z"
         id="path8843" /><path
         d="m 132.25098,61.567207 q -0.87353,0 -1.54739,-0.311975 -0.66971,-0.311974 -1.03992,-0.873528 -0.37021,-0.565714 -0.37021,-1.301974 0,-0.740419 0.37021,-1.306133 0.37021,-0.565714 1.03992,-0.877688 0.67386,-0.311975 1.54739,-0.311975 0.87353,0 1.54324,0.311975 0.67386,0.311974 1.04407,0.877688 0.37021,0.565714 0.37021,1.306133 0,0.73626 -0.37021,1.301974 -0.37021,0.561554 -1.04407,0.873528 -0.66971,0.311975 -1.54324,0.311975 z m -1.55155,-2.487477 q 0,0.440924 0.18718,0.765378 0.18719,0.320294 0.5366,0.494999 0.34941,0.174706 0.82777,0.174706 0.47836,0 0.82361,-0.174706 0.34942,-0.174705 0.5366,-0.494999 0.18719,-0.324454 0.18719,-0.765378 0,-0.440924 -0.18719,-0.765377 -0.18718,-0.324454 -0.5366,-0.499159 -0.34941,-0.174706 -0.82361,-0.174706 -0.47836,0 -0.82777,0.174706 -0.34941,0.174705 -0.5366,0.499159 -0.18718,0.324453 -0.18718,0.765377 z"
         id="path8845" /><path
         d="m 137.40065,56.712884 v 1.060713 q 0.35773,-0.569873 0.89432,-0.877688 0.54076,-0.311975 1.20214,-0.311975 0.69051,0 1.22294,0.311975 0.5366,0.311974 0.83194,0.881848 0.29949,0.565714 0.29949,1.301973 0,0.7321 -0.29949,1.297814 -0.29534,0.565714 -0.83194,0.877688 -0.53659,0.311975 -1.22294,0.311975 -0.66138,0 -1.20214,-0.311975 -0.53659,-0.316134 -0.89432,-0.886007 v 2.44588 h -1.39349 v -6.102221 z m -0.0499,2.366846 q 0.14975,0.411807 0.41181,0.7321 0.26621,0.316135 0.61563,0.495 0.34941,0.178865 0.73626,0.178865 0.38268,0 0.68218,-0.178865 0.30365,-0.178865 0.4742,-0.499159 0.17055,-0.320294 0.17055,-0.727941 0,-0.407646 -0.17055,-0.72794 -0.17055,-0.324454 -0.4742,-0.503319 -0.2995,-0.183025 -0.68218,-0.183025 -0.38685,0 -0.73626,0.183025 -0.34942,0.178865 -0.61563,0.499159 -0.26206,0.320294 -0.41181,0.7321 z"
         id="path8847" /><path
         d="m 149.52606,56.712884 v 4.729533 h -1.39349 v -4.729533 z m -6.85928,0 h 1.38933 v 1.360209 h 1.60563 q 0.59483,0 1.04407,0.212142 0.4534,0.207983 0.69882,0.590672 0.24958,0.382689 0.24958,0.881848 0,0.503319 -0.24958,0.886007 -0.24542,0.378529 -0.69466,0.590672 -0.44508,0.207983 -1.03159,0.207983 h -3.0116 z m 2.78281,3.735374 q 0.37437,0 0.58652,-0.187184 0.2163,-0.191345 0.2163,-0.519958 0,-0.328613 -0.2163,-0.515798 -0.21215,-0.191344 -0.58652,-0.191344 h -1.39348 v 1.414284 z"
         id="path8849" /><path
         d="m 153.24479,61.567207 q -0.84025,0 -1.5058,-0.311975 -0.66554,-0.316134 -1.03991,-0.881847 -0.37437,-0.569874 -0.37437,-1.310293 0,-0.727941 0.35773,-1.289495 0.35773,-0.565714 0.99416,-0.877688 0.63642,-0.311975 1.43924,-0.311975 0.80697,0 1.40596,0.361891 0.59899,0.357731 0.91929,1.023276 0.32445,0.661386 0.32445,1.543234 h -3.95168 q 0.15807,0.482521 0.61563,0.744579 0.45757,0.262059 1.16055,0.262059 0.5366,0 1.07735,-0.153908 0.54076,-0.153907 0.9692,-0.432604 v 0.931763 q -0.47004,0.332773 -1.09399,0.519958 -0.61979,0.183025 -1.29781,0.183025 z m 1.16886,-2.978317 q -0.12063,-0.470041 -0.45756,-0.72378 -0.33277,-0.257899 -0.83193,-0.257899 -0.52828,0 -0.88601,0.266218 -0.35357,0.262059 -0.46588,0.715461 z"
         id="path8851" /><path
         d="m 165.0291,62.607122 h -1.20214 v -1.164705 h -4.43004 v 1.164705 h -1.20214 v -2.212939 h 0.61979 q 0.24958,-0.282857 0.37021,-0.815293 0.12479,-0.532437 0.12479,-1.335251 0,-0.715462 -0.0957,-1.530755 h 4.94583 v 3.681299 h 0.86937 z m -2.25453,-2.192141 V 57.74448 h -2.23374 q 0.0374,0.316134 0.0374,0.773696 0,0.61563 -0.0998,1.09815 -0.0957,0.478361 -0.28702,0.798655 z"
         id="path8853" /><path
         d="m 168.35267,61.567207 q -0.87352,0 -1.54739,-0.311975 -0.6697,-0.311974 -1.03991,-0.873528 -0.37021,-0.565714 -0.37021,-1.301974 0,-0.740419 0.37021,-1.306133 0.37021,-0.565714 1.03991,-0.877688 0.67387,-0.311975 1.54739,-0.311975 0.87353,0 1.54324,0.311975 0.67386,0.311974 1.04407,0.877688 0.37021,0.565714 0.37021,1.306133 0,0.73626 -0.37021,1.301974 -0.37021,0.561554 -1.04407,0.873528 -0.66971,0.311975 -1.54324,0.311975 z m -1.55155,-2.487477 q 0,0.440924 0.18719,0.765378 0.18718,0.320294 0.53659,0.494999 0.34941,0.174706 0.82777,0.174706 0.47837,0 0.82362,-0.174706 0.34941,-0.174705 0.53659,-0.494999 0.18719,-0.324454 0.18719,-0.765378 0,-0.440924 -0.18719,-0.765377 -0.18718,-0.324454 -0.53659,-0.499159 -0.34941,-0.174706 -0.82362,-0.174706 -0.47836,0 -0.82777,0.174706 -0.34941,0.174705 -0.53659,0.499159 -0.18719,0.324453 -0.18719,0.765377 z"
         id="path8855" /><path
         d="m 177.68279,56.712884 v 4.729533 h -1.39349 v -3.681299 h -2.17134 q 0.0541,0.744579 0.0541,1.185503 0,0.915125 -0.17887,1.484999 -0.1747,0.565714 -0.54907,0.836091 -0.37021,0.270378 -0.9692,0.270378 -0.5158,0 -0.92761,-0.228781 V 60.30267 q 0.30366,0.12063 0.56156,0.12063 0.28701,0 0.46172,-0.170546 0.17886,-0.170546 0.2579,-0.532436 0.0832,-0.36605 0.0832,-0.965041 0,-0.819453 -0.12479,-2.042393 z"
         id="path8857" /><path
         d="m 179.96644,58.630487 -1.64306,-1.917603 h 1.57235 l 2.33773,2.93256 v -2.93256 h 1.36853 v 2.93672 l 2.33772,-2.93672 h 1.57652 l -1.64723,1.921763 1.78449,2.80777 h -1.60978 l -1.05656,-1.784494 -1.53075,1.784494 h -1.07735 l -1.5266,-1.780334 -1.06071,1.780334 h -1.60979 z"
         id="path8859" /><path
         d="m 189.53782,56.712884 v 1.796973 h 2.58731 v -1.796973 h 1.38516 v 4.729533 h -1.38516 v -1.884326 h -2.58731 v 1.884326 h -1.38517 v -4.729533 z"
         id="path8861" /><path
         d="m 201.40948,56.712884 v 4.729533 H 200.016 v -4.729533 z m -6.85928,0 h 1.38933 v 1.360209 h 1.60563 q 0.59483,0 1.04407,0.212142 0.45341,0.207983 0.69883,0.590672 0.24958,0.382689 0.24958,0.881848 0,0.503319 -0.24958,0.886007 -0.24542,0.378529 -0.69467,0.590672 -0.44508,0.207983 -1.03159,0.207983 h -3.0116 z m 2.78282,3.735374 q 0.37437,0 0.58651,-0.187184 0.2163,-0.191345 0.2163,-0.519958 0,-0.328613 -0.2163,-0.515798 -0.21214,-0.191344 -0.58651,-0.191344 h -1.39349 v 1.414284 z"
         id="path8863" /><path
         d="m 207.49089,61.567207 q -0.9692,0 -1.66387,-0.37021 -0.6905,-0.37021 -1.05655,-1.073192 -0.36605,-0.702983 -0.36605,-1.684662 0,-0.973361 0.35357,-1.684663 0.35357,-0.711301 1.03576,-1.118948 0.68218,-0.407647 1.6597,-0.49084 0.83609,-0.06655 1.25622,-0.112311 0.42428,-0.04576 0.6697,-0.09151 0.24958,-0.04992 0.48668,-0.133109 v 1.152225 q -0.27037,0.108152 -0.7529,0.170547 -0.48252,0.05823 -1.38932,0.09983 -2.14223,0.09983 -2.15055,2.171343 0.17887,-0.403487 0.5158,-0.694663 0.34109,-0.295336 0.80282,-0.449244 0.46172,-0.158067 0.99416,-0.158067 0.7113,0 1.25621,0.274538 0.54908,0.270378 0.84857,0.765377 0.30366,0.49084 0.30366,1.135587 0,0.686344 -0.34941,1.206302 -0.34525,0.519957 -0.98168,0.802814 -0.63227,0.282857 -1.47252,0.282856 z m -1.64307,-2.32941 q 0.0832,0.386849 0.31614,0.678025 0.2371,0.287017 0.58651,0.445084 0.34941,0.153907 0.77369,0.153907 0.40765,0 0.71547,-0.149748 0.31197,-0.153907 0.47836,-0.428445 0.17054,-0.274537 0.17054,-0.636428 0,-0.36189 -0.17054,-0.636428 -0.16639,-0.274537 -0.4742,-0.424285 -0.30782,-0.149748 -0.71963,-0.149748 -0.56987,0 -1.01495,0.303655 -0.44093,0.303656 -0.66139,0.844411 z"
         id="path8865" /><path
         d="m 217.96492,56.712884 v 4.729533 h -1.39349 v -4.729533 z m -6.85928,0 h 1.38933 v 1.360209 h 1.60562 q 0.59484,0 1.04408,0.212142 0.4534,0.207983 0.69882,0.590672 0.24958,0.382689 0.24958,0.881848 0,0.503319 -0.24958,0.886007 -0.24542,0.378529 -0.69466,0.590672 -0.44508,0.207983 -1.0316,0.207983 h -3.01159 z m 2.78281,3.735374 q 0.37437,0 0.58651,-0.187184 0.21631,-0.191345 0.21631,-0.519958 0,-0.328613 -0.21631,-0.515798 -0.21214,-0.191344 -0.58651,-0.191344 h -1.39348 v 1.414284 z"
         id="path8867" /><path
         d="m 224.7202,56.712884 v 4.729533 h -1.39349 v -3.681299 h -2.17134 q 0.0541,0.744579 0.0541,1.185503 0,0.915125 -0.17886,1.484999 -0.17471,0.565714 -0.54908,0.836091 -0.37021,0.270378 -0.9692,0.270378 -0.51579,0 -0.9276,-0.228781 V 60.30267 q 0.30365,0.12063 0.56155,0.12063 0.28702,0 0.46173,-0.170546 0.17886,-0.170546 0.25789,-0.532436 0.0832,-0.36605 0.0832,-0.965041 0,-0.819453 -0.12479,-2.042393 z"
         id="path8869" /><path
         d="m 225.76012,56.712884 h 1.37269 v 3.431719 l 2.50827,-3.431719 h 1.78866 v 4.729533 h -1.36853 v -3.498274 l -2.55819,3.498274 h -1.7429 z"
         id="path8871" /><path
         d="m 54.19497,69.911485 q -0.07487,0.60731 -0.461722,1.073192 -0.382689,0.465882 -0.998319,0.723781 -0.61563,0.257899 -1.360209,0.257899 -0.836091,0 -1.484998,-0.311975 -0.648907,-0.316134 -1.010798,-0.877688 -0.35773,-0.565714 -0.35773,-1.297814 0,-0.7321 0.35773,-1.297814 0.361891,-0.565714 1.010798,-0.881848 0.648907,-0.316134 1.484998,-0.316134 0.744579,0 1.360209,0.257899 0.61563,0.257899 0.998319,0.72794 0.386848,0.470042 0.461722,1.077352 h -1.389327 q -0.103991,-0.474201 -0.49084,-0.740419 -0.382688,-0.266218 -0.940083,-0.266218 -0.440924,0 -0.769537,0.170546 -0.324453,0.170546 -0.503319,0.494999 -0.174705,0.324454 -0.174705,0.773697 0,0.445084 0.174705,0.769537 0.178866,0.324454 0.503319,0.495 0.328613,0.170546 0.769537,0.170546 0.36605,0 0.665546,-0.12063 0.303655,-0.12479 0.499159,-0.353572 0.199664,-0.228781 0.266218,-0.528276 z"
         id="path8873" /><path
         d="m 59.515176,67.112034 v 1.064872 h -1.880167 v 3.664661 h -1.393486 v -3.664661 h -1.880166 v -1.064872 z"
         id="path8875" /><path
         d="m 64.198946,70.776694 q -0.353571,0.565714 -0.894326,0.877688 -0.536597,0.311975 -1.193823,0.311975 -0.686344,0 -1.22294,-0.311975 -0.536596,-0.311974 -0.836091,-0.877688 -0.295336,-0.565714 -0.295336,-1.297814 0,-0.73626 0.295336,-1.301974 0.299495,-0.569873 0.831932,-0.881847 0.536596,-0.311975 1.227099,-0.311975 0.657226,0 1.193823,0.311975 0.540755,0.307814 0.898486,0.873528 l 0.12063,-1.056553 h 1.439243 l -0.274538,2.362686 0.274538,2.366847 H 64.323736 Z M 61.166554,69.47888 q 0,0.407647 0.170547,0.72794 0.170546,0.320294 0.470041,0.49916 0.303655,0.178865 0.686344,0.178865 0.386848,0 0.73626,-0.178865 0.349411,-0.178866 0.61147,-0.495 0.266218,-0.320294 0.415966,-0.7321 -0.149748,-0.411806 -0.415966,-0.7321 -0.262059,-0.320294 -0.61147,-0.499159 -0.349412,-0.183025 -0.73626,-0.183025 -0.382689,0 -0.686344,0.183025 -0.299495,0.178865 -0.470041,0.503319 -0.170547,0.320293 -0.170547,0.72794 z"
         id="path8877" /><path
         d="m 71.436749,67.112034 v 1.064872 h -1.880166 v 3.664661 h -1.393486 v -3.664661 h -1.880166 v -1.064872 z"
         id="path8879" /><path
         d="m 72.069014,67.112034 h 1.389327 v 1.360208 h 1.605629 q 0.594831,0 1.044074,0.212143 0.453403,0.207983 0.698823,0.590672 0.24958,0.382688 0.24958,0.881848 0,0.503318 -0.24958,0.886007 -0.24542,0.378529 -0.694663,0.590672 -0.445084,0.207983 -1.031596,0.207983 h -3.011594 z m 2.782813,3.735374 q 0.374369,0 0.586512,-0.187185 0.216302,-0.191344 0.216302,-0.519957 0,-0.328613 -0.216302,-0.515798 -0.212143,-0.191344 -0.586512,-0.191344 h -1.393486 v 1.414284 z"
         id="path8881" /><path
         d="m 84.976448,71.841567 h -1.393486 v -3.681299 h -2.537393 v 3.681299 h -1.393486 v -4.729533 h 5.324365 z"
         id="path8883" /><path
         d="m 87.409842,67.112034 v 1.060713 q 0.357731,-0.569874 0.894327,-0.877688 0.540756,-0.311975 1.202142,-0.311975 0.690504,0 1.22294,0.311975 0.536596,0.311974 0.831932,0.881847 0.299496,0.565714 0.299496,1.301974 0,0.7321 -0.299496,1.297814 -0.295336,0.565714 -0.831932,0.877688 -0.536596,0.311975 -1.22294,0.311975 -0.661386,0 -1.202142,-0.311975 -0.536596,-0.316134 -0.894327,-0.886007 v 2.44588 h -1.393486 v -6.102221 z m -0.04991,2.366846 q 0.149747,0.411806 0.411806,0.7321 0.266218,0.316134 0.61563,0.495 0.349411,0.178865 0.736259,0.178865 0.382689,0 0.682185,-0.178865 0.303655,-0.178866 0.474201,-0.49916 0.170546,-0.320293 0.170546,-0.72794 0,-0.407647 -0.170546,-0.72794 -0.170546,-0.324454 -0.474201,-0.503319 -0.299496,-0.183025 -0.682185,-0.183025 -0.386848,0 -0.736259,0.183025 -0.349412,0.178865 -0.61563,0.499159 -0.262059,0.320294 -0.411806,0.7321 z"
         id="path8885" /><path
         d="m 95.392236,71.966357 q -0.873528,0 -1.547393,-0.311975 -0.669705,-0.311974 -1.039915,-0.873528 -0.37021,-0.565714 -0.37021,-1.301974 0,-0.740419 0.37021,-1.306133 0.37021,-0.565714 1.039915,-0.877688 0.673865,-0.311975 1.547393,-0.311975 0.873529,0 1.543234,0.311975 0.673865,0.311974 1.044075,0.877688 0.37021,0.565714 0.37021,1.306133 0,0.73626 -0.37021,1.301974 -0.37021,0.561554 -1.044075,0.873528 -0.669705,0.311975 -1.543234,0.311975 z M 93.840683,69.47888 q 0,0.440924 0.187185,0.765377 0.187185,0.320294 0.536596,0.495 0.349412,0.174706 0.827772,0.174706 0.478361,0 0.823613,-0.174706 0.349412,-0.174706 0.536596,-0.495 0.187185,-0.324453 0.187185,-0.765377 0,-0.440924 -0.187185,-0.765377 -0.187184,-0.324454 -0.536596,-0.49916 -0.349411,-0.174705 -0.823613,-0.174705 -0.47836,0 -0.827772,0.174705 -0.349411,0.174706 -0.536596,0.49916 -0.187185,0.324453 -0.187185,0.765377 z"
         id="path8887" /><path
         d="m 101.82723,71.966357 q -0.84025,0 -1.5058,-0.311975 -0.665542,-0.316134 -1.039911,-0.881848 -0.374369,-0.569873 -0.374369,-1.310293 0,-0.72794 0.35773,-1.289494 0.357731,-0.565714 0.99416,-0.877688 0.63643,-0.311975 1.43924,-0.311975 0.80698,0 1.40597,0.36189 0.59899,0.357731 0.91928,1.023277 0.32445,0.661386 0.32445,1.543234 h -3.95167 q 0.15806,0.48252 0.61563,0.744579 0.45756,0.262058 1.16054,0.262058 0.5366,0 1.07735,-0.153907 0.54076,-0.153908 0.96921,-0.432605 v 0.931764 q -0.47005,0.332773 -1.094,0.519958 -0.61978,0.183025 -1.29781,0.183025 z m 1.16887,-2.978317 q -0.12063,-0.470041 -0.45757,-0.723781 -0.33277,-0.257899 -0.83193,-0.257899 -0.52828,0 -0.88601,0.266219 -0.35357,0.262058 -0.46588,0.715461 z"
         id="path8889" /><path
         d="m 105.15496,67.112034 h 1.39349 v 2.961677 l 2.4126,-2.961677 h 1.51411 l -1.64722,1.917603 1.78865,2.81193 h -1.58899 l -1.08151,-1.784494 -1.53491,1.784494 h -1.25622 z"
         id="path8891" /><path
         d="m 115.82864,67.112034 v 1.064872 h -1.88016 v 3.664661 h -1.39349 v -3.664661 h -1.88016 v -1.064872 z"
         id="path8893" /><path
         d="m 119.00246,71.966357 q -0.87353,0 -1.54739,-0.311975 -0.66971,-0.311974 -1.03992,-0.873528 -0.37021,-0.565714 -0.37021,-1.301974 0,-0.740419 0.37021,-1.306133 0.37021,-0.565714 1.03992,-0.877688 0.67386,-0.311975 1.54739,-0.311975 0.87353,0 1.54324,0.311975 0.67386,0.311974 1.04407,0.877688 0.37021,0.565714 0.37021,1.306133 0,0.73626 -0.37021,1.301974 -0.37021,0.561554 -1.04407,0.873528 -0.66971,0.311975 -1.54324,0.311975 z m -1.55155,-2.487477 q 0,0.440924 0.18718,0.765377 0.18719,0.320294 0.5366,0.495 0.34941,0.174706 0.82777,0.174706 0.47836,0 0.82361,-0.174706 0.34942,-0.174706 0.5366,-0.495 0.18719,-0.324453 0.18719,-0.765377 0,-0.440924 -0.18719,-0.765377 -0.18718,-0.324454 -0.5366,-0.49916 -0.34941,-0.174705 -0.82361,-0.174705 -0.47836,0 -0.82777,0.174705 -0.34941,0.174706 -0.5366,0.49916 -0.18718,0.324453 -0.18718,0.765377 z"
         id="path8895" /><path
         d="m 122.75863,67.112034 h 2.07983 l 1.50164,3.485795 1.48084,-3.485795 h 2.07983 v 4.729533 h -1.30198 v -3.606425 l -1.61394,3.606425 h -1.30614 l -1.61395,-3.593946 v 3.593946 h -1.30613 z"
         id="path8897" /><path
         d="m 131.29841,71.845726 q -0.2371,-0.08735 -0.38269,-0.291176 -0.14559,-0.207983 -0.14559,-0.465882 0,-0.220462 0.10815,-0.403487 0.10815,-0.187184 0.29534,-0.291176 0.19134,-0.108151 0.41596,-0.108151 0.22878,0 0.41597,0.112311 0.18718,0.108151 0.29533,0.299495 0.10815,0.191345 0.10815,0.420126 0,0.220462 -0.10399,0.470042 -0.0998,0.245419 -0.34941,0.636428 l -0.50332,0.806974 h -0.7113 z"
         id="path8899" /><path
         d="m 136.61445,67.112034 v 1.796973 h 2.58731 v -1.796973 h 1.38516 v 4.729533 h -1.38516 v -1.884326 h -2.58731 v 1.884326 h -1.38517 v -4.729533 z"
         id="path8901" /><path
         d="m 144.34309,71.966357 q -0.87353,0 -1.54739,-0.311975 -0.66971,-0.311974 -1.03992,-0.873528 -0.37021,-0.565714 -0.37021,-1.301974 0,-0.740419 0.37021,-1.306133 0.37021,-0.565714 1.03992,-0.877688 0.67386,-0.311975 1.54739,-0.311975 0.87353,0 1.54324,0.311975 0.67386,0.311974 1.04407,0.877688 0.37021,0.565714 0.37021,1.306133 0,0.73626 -0.37021,1.301974 -0.37021,0.561554 -1.04407,0.873528 -0.66971,0.311975 -1.54324,0.311975 z m -1.55155,-2.487477 q 0,0.440924 0.18718,0.765377 0.18719,0.320294 0.5366,0.495 0.34941,0.174706 0.82777,0.174706 0.47836,0 0.82361,-0.174706 0.34942,-0.174706 0.5366,-0.495 0.18719,-0.324453 0.18719,-0.765377 0,-0.440924 -0.18719,-0.765377 -0.18718,-0.324454 -0.5366,-0.49916 -0.34941,-0.174705 -0.82361,-0.174705 -0.47836,0 -0.82777,0.174705 -0.34941,0.174706 -0.5366,0.49916 -0.18718,0.324453 -0.18718,0.765377 z"
         id="path8903" /><path
         d="m 151.61833,67.112034 v 1.796973 h 2.58731 v -1.796973 h 1.38517 v 4.729533 h -1.38517 v -1.884326 h -2.58731 v 1.884326 h -1.38517 v -4.729533 z"
         id="path8905" /><path
         d="m 159.30954,71.966357 q -0.84025,0 -1.5058,-0.311975 -0.66554,-0.316134 -1.03991,-0.881848 -0.37437,-0.569873 -0.37437,-1.310293 0,-0.72794 0.35773,-1.289494 0.35773,-0.565714 0.99416,-0.877688 0.63642,-0.311975 1.43924,-0.311975 0.80697,0 1.40596,0.36189 0.59899,0.357731 0.91929,1.023277 0.32445,0.661386 0.32445,1.543234 h -3.95167 q 0.15806,0.48252 0.61562,0.744579 0.45757,0.262058 1.16055,0.262058 0.5366,0 1.07735,-0.153907 0.54076,-0.153908 0.9692,-0.432605 v 0.931764 q -0.47004,0.332773 -1.09399,0.519958 -0.61979,0.183025 -1.29781,0.183025 z m 1.16886,-2.978317 q -0.12063,-0.470041 -0.45756,-0.723781 -0.33277,-0.257899 -0.83193,-0.257899 -0.52828,0 -0.88601,0.266219 -0.35357,0.262058 -0.46588,0.715461 z"
         id="path8907" /><path
         d="m 170.20369,69.911485 q -0.0749,0.60731 -0.46172,1.073192 -0.38269,0.465882 -0.99832,0.723781 -0.61563,0.257899 -1.36021,0.257899 -0.83609,0 -1.485,-0.311975 -0.6489,-0.316134 -1.0108,-0.877688 -0.35773,-0.565714 -0.35773,-1.297814 0,-0.7321 0.35773,-1.297814 0.3619,-0.565714 1.0108,-0.881848 0.64891,-0.316134 1.485,-0.316134 0.74458,0 1.36021,0.257899 0.61563,0.257899 0.99832,0.72794 0.38685,0.470042 0.46172,1.077352 h -1.38933 q -0.10399,-0.474201 -0.49084,-0.740419 -0.38268,-0.266218 -0.94008,-0.266218 -0.44092,0 -0.76954,0.170546 -0.32445,0.170546 -0.50332,0.494999 -0.1747,0.324454 -0.1747,0.773697 0,0.445084 0.1747,0.769537 0.17887,0.324454 0.50332,0.495 0.32862,0.170546 0.76954,0.170546 0.36605,0 0.66555,-0.12063 0.30365,-0.12479 0.49916,-0.353572 0.19966,-0.228781 0.26621,-0.528276 z"
         id="path8909" /><path
         d="m 170.95243,67.112034 h 2.07983 l 1.50163,3.485795 1.48084,-3.485795 h 2.07983 v 4.729533 h -1.30197 v -3.606425 l -1.61395,3.606425 h -1.30613 l -1.61395,-3.593946 v 3.593946 h -1.30613 z"
         id="path8911" /><path
         d="m 181.85489,71.966357 q -0.87353,0 -1.5474,-0.311975 -0.6697,-0.311974 -1.03991,-0.873528 -0.37021,-0.565714 -0.37021,-1.301974 0,-0.740419 0.37021,-1.306133 0.37021,-0.565714 1.03991,-0.877688 0.67387,-0.311975 1.5474,-0.311975 0.87353,0 1.54323,0.311975 0.67387,0.311974 1.04408,0.877688 0.3702,0.565714 0.3702,1.306133 0,0.73626 -0.3702,1.301974 -0.37021,0.561554 -1.04408,0.873528 -0.6697,0.311975 -1.54323,0.311975 z m -1.55156,-2.487477 q 0,0.440924 0.18719,0.765377 0.18718,0.320294 0.53659,0.495 0.34942,0.174706 0.82778,0.174706 0.47836,0 0.82361,-0.174706 0.34941,-0.174706 0.5366,-0.495 0.18718,-0.324453 0.18718,-0.765377 0,-0.440924 -0.18718,-0.765377 -0.18719,-0.324454 -0.5366,-0.49916 -0.34941,-0.174705 -0.82361,-0.174705 -0.47836,0 -0.82778,0.174705 -0.34941,0.174706 -0.53659,0.49916 -0.18719,0.324453 -0.18719,0.765377 z"
         id="path8913" /><path
         d="m 189.54193,68.176906 h -2.53739 v 3.664661 h -1.39348 v -4.729533 h 3.93087 z"
         id="path8915" /><path
         d="m 195.18661,67.112034 v 4.729533 h -1.39348 v -3.681299 h -2.17135 q 0.0541,0.744579 0.0541,1.185503 0,0.915125 -0.17887,1.484998 -0.1747,0.565714 -0.54907,0.836092 -0.37021,0.270378 -0.9692,0.270378 -0.5158,0 -0.92761,-0.228781 V 70.70182 q 0.30366,0.12063 0.56156,0.12063 0.28701,0 0.46172,-0.170546 0.17887,-0.170546 0.2579,-0.532436 0.0832,-0.36605 0.0832,-0.965041 0,-0.819453 -0.12479,-2.042393 z"
         id="path8917" /><path
         d="m 196.22652,67.112034 h 1.37269 v 3.431719 l 2.50827,-3.431719 h 1.78866 v 4.729533 h -1.36853 v -3.498274 l -2.55819,3.498274 h -1.7429 z"
         id="path8919" /><path
         d="m 203.58079,71.916441 q -0.22878,0 -0.41596,-0.108151 -0.18719,-0.108152 -0.29534,-0.295336 -0.10815,-0.187185 -0.10815,-0.415966 0,-0.224622 0.10815,-0.411807 0.10815,-0.191344 0.29534,-0.299495 0.18718,-0.108151 0.41596,-0.108151 0.22878,0 0.41597,0.108151 0.18718,0.108151 0.29533,0.299495 0.10815,0.187185 0.10815,0.411807 0,0.228781 -0.10815,0.415966 -0.10815,0.187184 -0.29533,0.295336 -0.18719,0.108151 -0.41597,0.108151 z"
         id="path8921" /></g></g></svg>
