<?xml version="1.0" encoding="UTF-8" standalone="no"?>
<!-- Created with Inkscape (http://www.inkscape.org/) -->

<svg
   width="224.93739mm"
   height="69.234001mm"
   viewBox="0 0 224.93739 69.234001"
   version="1.1"
   id="svg5"
   xml:space="preserve"
   inkscape:export-filename="finished.svg"
   inkscape:export-xdpi="96"
   inkscape:export-ydpi="96"
   sodipodi:docname="base.svg"
   inkscape:version="1.2.2 (b0a8486541, 2022-12-01)"
   xmlns:inkscape="http://www.inkscape.org/namespaces/inkscape"
   xmlns:sodipodi="http://sodipodi.sourceforge.net/DTD/sodipodi-0.dtd"
   xmlns="http://www.w3.org/2000/svg"
   xmlns:svg="http://www.w3.org/2000/svg"><sodipodi:namedview
     id="namedview7"
     pagecolor="#00212e"
     bordercolor="#000000"
     borderopacity="0.25"
     inkscape:showpageshadow="2"
     inkscape:pageopacity="1"
     inkscape:pagecheckerboard="0"
     inkscape:deskcolor="#d1d1d1"
     inkscape:document-units="mm"
     showgrid="false"
     inkscape:zoom="0.92198806"
     inkscape:cx="320.50307"
     inkscape:cy="259.22245"
     inkscape:window-width="1920"
     inkscape:window-height="1131"
     inkscape:window-x="0"
     inkscape:window-y="0"
     inkscape:window-maximized="1"
     inkscape:current-layer="layer1" /><defs
     id="defs2" /><g
     inkscape:label="Layer 1"
     inkscape:groupmode="layer"
     id="layer1"
     transform="translate(-12.546532,-9.3468567)"><g
       aria-label="Статус проекта"
       id="text202"
       style="font-weight:500;font-size:15.4622px;font-family:Unbounded;-inkscape-font-specification:'Unbounded Medium';fill:#ffff00;fill-opacity:0;stroke-width:11.5963;stroke-linecap:round;stroke-linejoin:round"><path
         d="m 32.188891,22.990543 q -0.170084,1.468909 -1.028236,2.597649 -0.858152,1.12101 -2.265213,1.739498 -1.40706,0.618488 -3.185213,0.618488 -1.97143,0 -3.478995,-0.749917 -1.499833,-0.757648 -2.327061,-2.126052 -0.827228,-1.368405 -0.827228,-3.154289 0,-1.785884 0.827228,-3.154289 0.827228,-1.368405 2.327061,-2.118321 1.507565,-0.757648 3.478995,-0.757648 1.778153,0 3.185213,0.618488 1.407061,0.618488 2.265213,1.747228 0.858152,1.12101 1.028236,2.589919 H 29.552586 Q 29.390233,20.0218 28.87998,19.426506 28.377459,18.82348 27.565693,18.506505 q -0.811765,-0.324707 -1.863195,-0.324707 -1.213783,0 -2.11059,0.456135 -0.889077,0.456135 -1.376136,1.298825 -0.479328,0.84269 -0.479328,1.979162 0,1.136471 0.479328,1.979161 0.487059,0.84269 1.376136,1.298825 0.896807,0.456135 2.11059,0.456135 1.592607,0 2.59765,-0.695799 1.012774,-0.695799 1.252438,-1.963699 z"
         style="fill:#23dd83;fill-opacity:1"
         id="path14444" /><path
         d="m 42.363012,18.923984 v 1.979162 h -3.494457 v 6.811099 h -2.589919 v -6.811099 h -3.494457 v -1.979162 z"
         style="fill:#23dd83;fill-opacity:1"
         id="path14446" /><path
         d="m 51.068218,25.735083 q -0.657143,1.05143 -1.662186,1.631262 -0.997312,0.579833 -2.218826,0.579833 -1.275632,0 -2.272944,-0.579833 -0.997312,-0.579832 -1.553951,-1.631262 -0.548908,-1.051429 -0.548908,-2.412103 0,-1.368405 0.548908,-2.419834 0.556639,-1.059161 1.54622,-1.638994 0.997312,-0.579832 2.280675,-0.579832 1.221514,0 2.218826,0.579832 1.005043,0.572102 1.669917,1.623531 l 0.224202,-1.963699 h 2.674961 l -0.510253,4.391265 0.510253,4.398996 H 51.300151 Z M 45.432246,23.32298 q 0,0.757648 0.316975,1.352943 0.316975,0.595294 0.873614,0.927732 0.564371,0.332437 1.275632,0.332437 0.718992,0 1.368405,-0.332437 0.649412,-0.332438 1.136471,-0.920001 0.494791,-0.595295 0.77311,-1.360674 -0.278319,-0.765379 -0.77311,-1.360674 -0.487059,-0.595294 -1.136471,-0.927732 -0.649413,-0.340168 -1.368405,-0.340168 -0.711261,0 -1.275632,0.340168 -0.556639,0.332438 -0.873614,0.935463 -0.316975,0.595295 -0.316975,1.352943 z"
         style="fill:#23dd83;fill-opacity:1"
         id="path14448" /><path
         d="m 64.520325,18.923984 v 1.979162 h -3.494458 v 6.811099 h -2.589918 v -6.811099 h -3.494457 v -1.979162 z"
         style="fill:#23dd83;fill-opacity:1"
         id="path14450" /><path
         d="m 68.200323,30.497441 q -0.858152,0 -1.553951,-0.20874 -0.695799,-0.20874 -1.329749,-0.641681 v -1.863195 q 0.672606,0.42521 1.252438,0.603026 0.579833,0.185546 1.283363,0.185546 0.672605,0 1.151934,-0.301513 0.487059,-0.293782 0.788572,-0.989581 l 0.05412,-0.115966 h -1.090085 l -3.888743,-8.241353 h 2.845045 l 2.852776,6.594628 2.891431,-6.594628 h 2.744541 l -4.383534,9.184547 q -0.587564,1.252438 -1.523027,1.816808 -0.935463,0.572102 -2.095128,0.572102 z"
         style="fill:#23dd83;fill-opacity:1"
         id="path14452" /><path
         d="m 86.847737,24.127014 q -0.13916,1.128741 -0.858152,1.994624 -0.711262,0.865883 -1.855464,1.345212 -1.144203,0.479328 -2.52807,0.479328 -1.553951,0 -2.760003,-0.579833 -1.206051,-0.587563 -1.878657,-1.631262 -0.664875,-1.051429 -0.664875,-2.412103 0,-1.360674 0.664875,-2.412103 0.672606,-1.05143 1.878657,-1.638993 1.206052,-0.587564 2.760003,-0.587564 1.383867,0 2.52807,0.479328 1.144202,0.479328 1.855464,1.352943 0.718992,0.873614 0.858152,2.002355 H 84.265549 Q 84.072272,21.6376 83.35328,21.14281 q -0.711262,-0.494791 -1.747229,-0.494791 -0.819497,0 -1.430254,0.316975 -0.603025,0.316976 -0.935463,0.920001 -0.324706,0.603026 -0.324706,1.437985 0,0.827228 0.324706,1.430254 0.332438,0.603025 0.935463,0.92 0.610757,0.316976 1.430254,0.316976 0.680337,0 1.236976,-0.224202 0.56437,-0.231933 0.927732,-0.657144 0.371093,-0.42521 0.49479,-0.98185 z"
         style="fill:#23dd83;fill-opacity:1"
         id="path14454" /><path
         d="m 102.1012,27.714245 h -2.589915 v -6.842024 h -4.715971 v 6.842024 h -2.589919 v -8.790261 h 9.895805 z"
         style="fill:#23dd83;fill-opacity:1"
         id="path14456" /><path
         d="m 106.62389,18.923984 v 1.971431 q 0.66487,-1.059161 1.66219,-1.631263 1.00504,-0.579832 2.23428,-0.579832 1.28337,0 2.27295,0.579832 0.99731,0.579833 1.54622,1.638994 0.55664,1.051429 0.55664,2.419834 0,1.360674 -0.55664,2.412103 -0.54891,1.05143 -1.54622,1.631262 -0.99731,0.579833 -2.27295,0.579833 -1.22924,0 -2.23428,-0.579833 -0.99732,-0.587563 -1.66219,-1.646724 v 4.545887 h -2.58992 V 18.923984 Z m -0.0928,4.398996 q 0.27832,0.765379 0.76537,1.360674 0.4948,0.587563 1.14421,0.920001 0.64941,0.332437 1.3684,0.332437 0.71126,0 1.2679,-0.332437 0.56437,-0.332438 0.88135,-0.927732 0.31697,-0.595295 0.31697,-1.352943 0,-0.757648 -0.31697,-1.352943 -0.31698,-0.603025 -0.88135,-0.935463 -0.55664,-0.340168 -1.2679,-0.340168 -0.71899,0 -1.3684,0.340168 -0.64941,0.332438 -1.14421,0.927732 -0.48705,0.595295 -0.76537,1.360674 z"
         style="fill:#23dd83;fill-opacity:1"
         id="path14458" /><path
         d="m 121.45988,27.946178 q -1.62353,0 -2.87597,-0.579833 -1.2447,-0.579832 -1.93277,-1.623531 -0.68807,-1.051429 -0.68807,-2.419834 0,-1.376136 0.68807,-2.427565 0.68807,-1.05143 1.93277,-1.631263 1.25244,-0.579832 2.87597,-0.579832 1.62353,0 2.86824,0.579832 1.25244,0.579833 1.94051,1.631263 0.68806,1.051429 0.68806,2.427565 0,1.368405 -0.68806,2.419834 -0.68807,1.043699 -1.94051,1.623531 -1.24471,0.579833 -2.86824,0.579833 z m -2.8837,-4.623198 q 0,0.819497 0.3479,1.422522 0.3479,0.595295 0.99731,0.920001 0.64941,0.324707 1.53849,0.324707 0.88908,0 1.53076,-0.324707 0.64941,-0.324706 0.99731,-0.920001 0.3479,-0.603025 0.3479,-1.422522 0,-0.819497 -0.3479,-1.422522 -0.3479,-0.603026 -0.99731,-0.927732 -0.64941,-0.324707 -1.53076,-0.324707 -0.88908,0 -1.53849,0.324707 -0.64941,0.324706 -0.99731,0.927732 -0.3479,0.603025 -0.3479,1.422522 z"
         style="fill:#23dd83;fill-opacity:1"
         id="path14460" /><path
         d="m 133.41989,27.946178 q -1.56168,0 -2.79866,-0.579833 -1.23698,-0.587563 -1.93277,-1.638993 -0.6958,-1.059161 -0.6958,-2.435296 0,-1.352943 0.66487,-2.396641 0.66488,-1.05143 1.84773,-1.631263 1.18286,-0.579832 2.67496,-0.579832 1.49984,0 2.61312,0.672606 1.11327,0.664874 1.70857,1.90185 0.60302,1.229245 0.60302,2.868238 h -7.34454 q 0.29378,0.896808 1.1442,1.383867 0.85042,0.48706 2.15698,0.48706 0.99731,0 2.00235,-0.286051 1.00505,-0.286051 1.80135,-0.804034 v 1.731766 q -0.87361,0.618488 -2.03328,0.966387 -1.15193,0.340169 -2.4121,0.340169 z m 2.17244,-5.535468 q -0.2242,-0.873614 -0.85042,-1.345211 -0.61849,-0.479328 -1.54622,-0.479328 -0.98185,0 -1.64673,0.49479 -0.65714,0.487059 -0.86588,1.329749 z"
         style="fill:#23dd83;fill-opacity:1"
         id="path14462" /><path
         d="m 139.60477,18.923984 h 2.58992 v 5.504543 l 4.48404,-5.504543 h 2.81412 l -3.06152,3.564037 3.32438,5.226224 h -2.95328 l -2.01009,-3.316642 -2.85278,3.316642 h -2.33479 z"
         style="fill:#23dd83;fill-opacity:1"
         id="path14464" /><path
         d="m 159.44277,18.923984 v 1.979162 h -3.49446 v 6.811099 h -2.58991 v -6.811099 h -3.49446 v -1.979162 z"
         style="fill:#23dd83;fill-opacity:1"
         id="path14466" /><path
         d="m 168.14798,25.735083 q -0.65714,1.05143 -1.66219,1.631262 -0.99731,0.579833 -2.21882,0.579833 -1.27563,0 -2.27295,-0.579833 -0.99731,-0.579832 -1.55395,-1.631262 -0.54891,-1.051429 -0.54891,-2.412103 0,-1.368405 0.54891,-2.419834 0.55664,-1.059161 1.54622,-1.638994 0.99731,-0.579832 2.28068,-0.579832 1.22151,0 2.21882,0.579832 1.00505,0.572102 1.66992,1.623531 l 0.2242,-1.963699 h 2.67496 l -0.51025,4.391265 0.51025,4.398996 h -2.67496 z m -5.63597,-2.412103 q 0,0.757648 0.31697,1.352943 0.31698,0.595294 0.87362,0.927732 0.56437,0.332437 1.27563,0.332437 0.71899,0 1.3684,-0.332437 0.64942,-0.332438 1.13647,-0.920001 0.4948,-0.595295 0.77311,-1.360674 -0.27831,-0.765379 -0.77311,-1.360674 -0.48705,-0.595294 -1.13647,-0.927732 -0.64941,-0.340168 -1.3684,-0.340168 -0.71126,0 -1.27563,0.340168 -0.55664,0.332438 -0.87362,0.935463 -0.31697,0.595295 -0.31697,1.352943 z"
         style="fill:#23dd83;fill-opacity:1"
         id="path14468" /></g><g
       aria-label="Почти закончен"
       id="text202-3"
       style="font-weight:500;font-size:13.0738px;font-family:Unbounded;-inkscape-font-specification:'Unbounded Medium';fill:#1aae6e;stroke-width:9.80506;stroke-linecap:round;stroke-linejoin:round"><path
         d="m 59.185848,48.491055 h -2.209472 v -7.837744 h -5.58905 v 7.837744 h -2.216009 v -9.805351 h 10.014531 z"
         id="path14417" /><path
         d="m 65.160566,48.687162 q -1.372749,0 -2.431727,-0.490268 -1.052441,-0.490267 -1.634225,-1.372749 -0.581784,-0.889018 -0.581784,-2.04605 0,-1.163568 0.581784,-2.052586 0.581784,-0.889019 1.634225,-1.379286 1.058978,-0.490268 2.431727,-0.490268 1.372749,0 2.42519,0.490268 1.058978,0.490267 1.640762,1.379286 0.581784,0.889018 0.581784,2.052586 0,1.157032 -0.581784,2.04605 -0.581784,0.882482 -1.640762,1.372749 -1.052441,0.490268 -2.42519,0.490268 z m -2.438264,-3.909067 q 0,0.692912 0.294161,1.20279 0.29416,0.503341 0.84326,0.777891 0.549099,0.27455 1.300843,0.27455 0.751743,0 1.294306,-0.27455 0.5491,-0.27455 0.84326,-0.777891 0.294161,-0.509878 0.294161,-1.20279 0,-0.692911 -0.294161,-1.202789 -0.29416,-0.509879 -0.84326,-0.784428 -0.549099,-0.27455 -1.294306,-0.27455 -0.751744,0 -1.300843,0.27455 -0.5491,0.274549 -0.84326,0.784428 -0.294161,0.509878 -0.294161,1.202789 z"
         id="path14419" /><path
         d="m 73.815432,46.333878 q -1.549245,0 -2.366358,-0.849797 -0.817112,-0.856334 -0.817112,-2.484023 v -1.941459 h 2.176788 v 1.849943 q 0,0.849797 0.411824,1.287769 0.411825,0.437973 1.209327,0.437973 0.607932,0 1.157031,-0.268013 0.555637,-0.268013 1.006683,-0.797502 v -2.51017 h 2.189861 v 7.432456 h -2.189861 v -3.24884 q -0.46412,0.522952 -1.183179,0.810576 -0.719059,0.281087 -1.595004,0.281087 z"
         id="path14421" /><path
         d="m 87.876317,41.058599 v 1.673447 h -2.954679 v 5.759009 h -2.189862 v -5.759009 h -2.954679 v -1.673447 z"
         id="path14423" /><path
         d="m 88.869919,41.058599 h 2.157177 v 5.392943 l 3.941751,-5.392943 h 2.810867 v 7.432456 h -2.15064 v -5.497533 l -4.020194,5.497533 h -2.738961 z"
         id="path14425" /><path
         d="m 106.45417,48.687162 q -1.22893,0 -2.16371,-0.320309 -0.93478,-0.326845 -1.46427,-0.934776 -0.52295,-0.607932 -0.56217,-1.431581 h 2.11142 q 0.085,0.555636 0.61447,0.849797 0.53602,0.287623 1.46426,0.287623 0.89556,0 1.37929,-0.235328 0.48373,-0.235329 0.48373,-0.705985 0,-0.405288 -0.41836,-0.594858 -0.41183,-0.18957 -1.31392,-0.18957 h -1.39236 v -1.30738 h 1.35314 q 0.78443,0 1.18318,-0.215718 0.39875,-0.222255 0.39875,-0.601395 0,-0.424898 -0.44451,-0.647153 -0.44451,-0.228792 -1.21586,-0.228792 -0.8498,0 -1.35968,0.268013 -0.50334,0.268013 -0.58832,0.784428 h -2.10488 q 0.0588,-0.738669 0.56217,-1.32699 0.50334,-0.594858 1.41851,-0.934777 0.91517,-0.346456 2.15718,-0.346456 1.11781,0 1.97414,0.27455 0.86287,0.27455 1.33353,0.764817 0.47719,0.483731 0.47719,1.104736 0,0.581785 -0.40528,1.032831 -0.39876,0.444509 -1.21587,0.647153 0.88902,0.150349 1.35314,0.575247 0.46412,0.418362 0.46412,1.085125 0,0.686375 -0.48373,1.215864 -0.48373,0.529489 -1.40543,0.830186 -0.92171,0.300698 -2.18987,0.300698 z"
         id="path14427" /><path
         d="m 118.44284,46.817608 q -0.55563,0.889019 -1.40543,1.379286 -0.84326,0.490268 -1.87609,0.490268 -1.07859,0 -1.92185,-0.490268 -0.84326,-0.490267 -1.31392,-1.379286 -0.46412,-0.889018 -0.46412,-2.039513 0,-1.157031 0.46412,-2.046049 0.47066,-0.895556 1.30738,-1.385823 0.84326,-0.490268 1.92839,-0.490268 1.03283,0 1.87609,0.490268 0.8498,0.48373 1.41197,1.372749 l 0.18957,-1.660373 h 2.26177 l -0.43144,3.712959 0.43144,3.719497 h -2.26177 z m -4.7654,-2.039513 q 0,0.640617 0.26802,1.143958 0.26801,0.503341 0.73867,0.784428 0.47719,0.281087 1.07858,0.281087 0.60794,0 1.15704,-0.281087 0.5491,-0.281087 0.96092,-0.777891 0.41836,-0.503342 0.65369,-1.150495 -0.23533,-0.647153 -0.65369,-1.150494 -0.41182,-0.503341 -0.96092,-0.784428 -0.5491,-0.287624 -1.15704,-0.287624 -0.60139,0 -1.07858,0.287624 -0.47066,0.281087 -0.73867,0.790965 -0.26802,0.503341 -0.26802,1.143957 z"
         id="path14429" /><path
         d="m 122.35844,41.058599 h 2.18986 v 4.654273 l 3.7914,-4.654273 h 2.37944 l -2.58862,3.013511 2.81087,4.418945 h -2.4971 l -1.69959,-2.804331 -2.41212,2.804331 h -1.97414 z"
         id="path14431" /><path
         d="m 135.52376,48.687162 q -1.37275,0 -2.43173,-0.490268 -1.05244,-0.490267 -1.63422,-1.372749 -0.58179,-0.889018 -0.58179,-2.04605 0,-1.163568 0.58179,-2.052586 0.58178,-0.889019 1.63422,-1.379286 1.05898,-0.490268 2.43173,-0.490268 1.37275,0 2.42519,0.490268 1.05898,0.490267 1.64076,1.379286 0.58178,0.889018 0.58178,2.052586 0,1.157032 -0.58178,2.04605 -0.58178,0.882482 -1.64076,1.372749 -1.05244,0.490268 -2.42519,0.490268 z m -2.43827,-3.909067 q 0,0.692912 0.29416,1.20279 0.29416,0.503341 0.84326,0.777891 0.5491,0.27455 1.30085,0.27455 0.75174,0 1.2943,-0.27455 0.5491,-0.27455 0.84326,-0.777891 0.29416,-0.509878 0.29416,-1.20279 0,-0.692911 -0.29416,-1.202789 -0.29416,-0.509879 -0.84326,-0.784428 -0.5491,-0.27455 -1.2943,-0.27455 -0.75175,0 -1.30085,0.27455 -0.5491,0.274549 -0.84326,0.784428 -0.29416,0.509878 -0.29416,1.202789 z"
         id="path14433" /><path
         d="m 143.60337,41.058599 v 2.823941 h 4.06595 v -2.823941 h 2.17679 v 7.432456 h -2.17679 v -2.961216 h -4.06595 v 2.961216 h -2.17679 v -7.432456 z"
         id="path14435" /><path
         d="m 154.29772,46.333878 q -1.54924,0 -2.36635,-0.849797 -0.81712,-0.856334 -0.81712,-2.484023 v -1.941459 h 2.17679 v 1.849943 q 0,0.849797 0.41183,1.287769 0.41182,0.437973 1.20932,0.437973 0.60793,0 1.15703,-0.268013 0.55564,-0.268013 1.00669,-0.797502 v -2.51017 h 2.18986 v 7.432456 h -2.18986 v -3.24884 q -0.46412,0.522952 -1.18318,0.810576 -0.71906,0.281087 -1.59501,0.281087 z"
         id="path14437" /><path
         d="m 165.10977,48.687162 q -1.32045,0 -2.36636,-0.490268 -1.0459,-0.496804 -1.63422,-1.385823 -0.58832,-0.895555 -0.58832,-2.059123 0,-1.143958 0.56217,-2.026439 0.56217,-0.889019 1.56232,-1.379286 1.00014,-0.490268 2.26177,-0.490268 1.26815,0 2.20947,0.568711 0.94131,0.562173 1.44465,1.608077 0.50988,1.039367 0.50988,2.42519 h -6.21005 q 0.2484,0.75828 0.96746,1.170105 0.71906,0.411825 1.82379,0.411825 0.84326,0 1.69306,-0.241866 0.8498,-0.241865 1.5231,-0.679837 v 1.464265 q -0.73867,0.522952 -1.71921,0.817113 -0.974,0.287624 -2.03951,0.287624 z m 1.83687,-4.680421 q -0.18957,-0.73867 -0.71906,-1.137421 -0.52295,-0.405287 -1.30738,-0.405287 -0.83019,0 -1.39236,0.418361 -0.55564,0.411825 -0.73213,1.124347 z"
         id="path14439" /><path
         d="m 172.51608,41.058599 v 2.823941 h 4.06595 v -2.823941 h 2.17679 v 7.432456 h -2.17679 v -2.961216 h -4.06595 v 2.961216 h -2.17679 v -7.432456 z"
         id="path14441" /></g><path
       d="m 20.565545,57.223786 h 7.578464 l -2.21976,13.077652 c -0.07668,0.438645 0.04734,0.888647 0.338607,1.22601 0.290959,0.337347 0.717921,0.526055 1.163158,0.514066 0.445268,-0.01168 0.861502,-0.222792 1.134155,-0.575287 l 12.621212,-16.131366 3.2e-4,3.21e-4 c 0.23163,-0.294111 0.343657,-0.664596 0.313677,-1.037294 -0.02966,-0.373006 -0.199122,-0.721081 -0.474618,-0.974442 -0.275497,-0.253086 -0.636191,-0.393202 -1.010473,-0.391627 h -7.57846 l 2.219759,-13.07765 c 0.07637,-0.438644 -0.04797,-0.888647 -0.338921,-1.225686 -0.290959,-0.337032 -0.717922,-0.525425 -1.163159,-0.513751 -0.444953,0.01199 -0.86118,0.223107 -1.133832,0.574971 L 19.394462,54.821069 c -0.230999,0.29411 -0.342711,0.664281 -0.312731,1.036971 0.02998,0.372375 0.19976,0.720135 0.474619,0.97323 0.275174,0.253086 0.63556,0.392887 1.009502,0.391942 z"
       id="path40"
       style="fill:none;fill-opacity:1;stroke:#1aae6e;stroke-width:2.64583;stroke-linecap:round;stroke-linejoin:round;stroke-dasharray:none;stroke-opacity:1" /><g
       aria-label="Код работает только частично
или не запускается без изменений."
       id="text1463"
       style="font-weight:500;font-size:8.31932px;font-family:Unbounded;-inkscape-font-specification:'Unbounded Medium';fill:#127f59;stroke-width:6.2393;stroke-linecap:round;stroke-linejoin:round"><path
         d="m 48.883084,55.202927 h 1.405965 v 4.317727 l 3.460837,-4.317727 h 1.505797 l -2.158863,2.637225 2.246216,3.602265 h -1.605629 l -1.539074,-2.504115 -2.046553,2.504115 h -1.268696 z"
         id="path14308" /><path
         d="m 58.175767,61.567207 q -0.873529,0 -1.547394,-0.311975 -0.669705,-0.311974 -1.039915,-0.873528 -0.370209,-0.565714 -0.370209,-1.301974 0,-0.740419 0.370209,-1.306133 0.37021,-0.565714 1.039915,-0.877688 0.673865,-0.311975 1.547394,-0.311975 0.873528,0 1.543234,0.311975 0.673864,0.311974 1.044074,0.877688 0.37021,0.565714 0.37021,1.306133 0,0.73626 -0.37021,1.301974 -0.37021,0.561554 -1.044074,0.873528 -0.669706,0.311975 -1.543234,0.311975 z M 56.624214,59.07973 q 0,0.440924 0.187184,0.765378 0.187185,0.320294 0.536596,0.494999 0.349412,0.174706 0.827773,0.174706 0.478361,0 0.823612,-0.174706 0.349412,-0.174705 0.536597,-0.494999 0.187184,-0.324454 0.187184,-0.765378 0,-0.440924 -0.187184,-0.765377 -0.187185,-0.324454 -0.536597,-0.499159 -0.349411,-0.174706 -0.823612,-0.174706 -0.478361,0 -0.827773,0.174706 -0.349411,0.174705 -0.536596,0.499159 -0.187184,0.324453 -0.187184,0.765377 z"
         id="path14310" /><path
         d="m 68.213027,62.607122 h -1.202141 v -1.164705 h -4.430038 v 1.164705 h -1.202142 v -2.212939 h 0.619789 q 0.24958,-0.282857 0.37021,-0.815293 0.12479,-0.532437 0.12479,-1.335251 0,-0.715462 -0.09567,-1.530755 h 4.945835 v 3.681299 h 0.869369 z M 65.958492,60.414981 V 57.74448 h -2.233738 q 0.03744,0.316134 0.03744,0.773696 0,0.61563 -0.09983,1.09815 -0.09567,0.478361 -0.287016,0.798655 z"
         id="path14312" /><path
         d="m 72.472522,56.712884 v 1.060713 q 0.357731,-0.569873 0.894327,-0.877688 0.540755,-0.311975 1.202141,-0.311975 0.690504,0 1.22294,0.311975 0.536596,0.311974 0.831932,0.881848 0.299496,0.565714 0.299496,1.301973 0,0.7321 -0.299496,1.297814 -0.295336,0.565714 -0.831932,0.877688 -0.536596,0.311975 -1.22294,0.311975 -0.661386,0 -1.202141,-0.311975 -0.536596,-0.316134 -0.894327,-0.886007 v 2.44588 h -1.393486 v -6.102221 z m -0.04992,2.366846 q 0.149748,0.411807 0.411806,0.7321 0.266218,0.316135 0.61563,0.495 0.349411,0.178865 0.73626,0.178865 0.382688,0 0.682184,-0.178865 0.303655,-0.178865 0.474201,-0.499159 0.170546,-0.320294 0.170546,-0.727941 0,-0.407646 -0.170546,-0.72794 -0.170546,-0.324454 -0.474201,-0.503319 -0.299496,-0.183025 -0.682184,-0.183025 -0.386849,0 -0.73626,0.183025 -0.349412,0.178865 -0.61563,0.499159 -0.262058,0.320294 -0.411806,0.7321 z"
         id="path14314" /><path
         d="m 81.956553,60.377544 q -0.353571,0.565714 -0.894327,0.877688 -0.536596,0.311975 -1.193822,0.311975 -0.686344,0 -1.22294,-0.311975 -0.536596,-0.311974 -0.836092,-0.877688 -0.295336,-0.565714 -0.295336,-1.297814 0,-0.736259 0.295336,-1.301973 0.299496,-0.569874 0.831932,-0.881848 0.536596,-0.311975 1.2271,-0.311975 0.657226,0 1.193822,0.311975 0.540756,0.307815 0.898487,0.873528 l 0.12063,-1.056553 h 1.439242 l -0.274537,2.362687 0.274537,2.366846 H 82.081343 Z M 78.924161,59.07973 q 0,0.407647 0.170546,0.727941 0.170546,0.320294 0.470042,0.499159 0.303655,0.178865 0.686343,0.178865 0.386849,0 0.73626,-0.178865 0.349412,-0.178865 0.61147,-0.495 0.266218,-0.320293 0.415966,-0.7321 -0.149748,-0.411806 -0.415966,-0.7321 -0.262058,-0.320294 -0.61147,-0.499159 -0.349411,-0.183025 -0.73626,-0.183025 -0.382688,0 -0.686343,0.183025 -0.299496,0.178865 -0.470042,0.503319 -0.170546,0.320294 -0.170546,0.72794 z"
         id="path14316" /><path
         d="m 87.339143,61.567207 q -0.969201,0 -1.663864,-0.37021 -0.690504,-0.37021 -1.056554,-1.073192 -0.36605,-0.702983 -0.36605,-1.684662 0,-0.973361 0.353571,-1.684663 0.353571,-0.711301 1.035755,-1.118948 0.682185,-0.407647 1.659705,-0.49084 0.836091,-0.06655 1.256217,-0.112311 0.424285,-0.04576 0.669705,-0.09151 0.24958,-0.04992 0.48668,-0.133109 v 1.152225 q -0.270377,0.108152 -0.752898,0.170547 -0.482521,0.05823 -1.389326,0.09983 -2.142225,0.09983 -2.150545,2.171343 0.178866,-0.403487 0.515798,-0.694663 0.341092,-0.295336 0.802815,-0.449244 0.461722,-0.158067 0.994158,-0.158067 0.711302,0 1.256218,0.274538 0.549075,0.270378 0.84857,0.765377 0.303655,0.49084 0.303655,1.135587 0,0.686344 -0.349411,1.206302 -0.345252,0.519957 -0.98168,0.802814 -0.632268,0.282857 -1.472519,0.282856 z m -1.643066,-2.32941 q 0.08319,0.386849 0.316134,0.678025 0.237101,0.287017 0.586512,0.445084 0.349412,0.153907 0.773697,0.153907 0.407647,0 0.715461,-0.149748 0.311975,-0.153907 0.478361,-0.428445 0.170546,-0.274537 0.170546,-0.636428 0,-0.36189 -0.170546,-0.636428 -0.166386,-0.274537 -0.474201,-0.424285 -0.307815,-0.149748 -0.719621,-0.149748 -0.569873,0 -1.014957,0.303655 -0.440924,0.303656 -0.661386,0.844411 z"
         id="path14318" /><path
         d="m 93.670149,61.567207 q -0.873529,0 -1.547394,-0.311975 -0.669705,-0.311974 -1.039915,-0.873528 -0.37021,-0.565714 -0.37021,-1.301974 0,-0.740419 0.37021,-1.306133 0.37021,-0.565714 1.039915,-0.877688 0.673865,-0.311975 1.547394,-0.311975 0.873528,0 1.543233,0.311975 0.673865,0.311974 1.044075,0.877688 0.37021,0.565714 0.37021,1.306133 0,0.73626 -0.37021,1.301974 -0.37021,0.561554 -1.044075,0.873528 -0.669705,0.311975 -1.543233,0.311975 z M 92.118596,59.07973 q 0,0.440924 0.187184,0.765378 0.187185,0.320294 0.536596,0.494999 0.349412,0.174706 0.827773,0.174706 0.478361,0 0.823612,-0.174706 0.349412,-0.174705 0.536596,-0.494999 0.187185,-0.324454 0.187185,-0.765378 0,-0.440924 -0.187185,-0.765377 -0.187184,-0.324454 -0.536596,-0.499159 -0.349411,-0.174706 -0.823612,-0.174706 -0.478361,0 -0.827773,0.174706 -0.349411,0.174705 -0.536596,0.499159 -0.187184,0.324453 -0.187184,0.765377 z"
         id="path14320" /><path
         d="m 101.99779,56.712884 v 1.064873 h -1.88017 v 3.66466 h -1.393484 v -3.66466 H 96.84397 v -1.064873 z"
         id="path14322" /><path
         d="m 106.68156,60.377544 q -0.35358,0.565714 -0.89433,0.877688 -0.5366,0.311975 -1.19382,0.311975 -0.68635,0 -1.22294,-0.311975 -0.5366,-0.311974 -0.8361,-0.877688 -0.29533,-0.565714 -0.29533,-1.297814 0,-0.736259 0.29533,-1.301973 0.2995,-0.569874 0.83194,-0.881848 0.53659,-0.311975 1.2271,-0.311975 0.65722,0 1.19382,0.311975 0.54075,0.307815 0.89848,0.873528 l 0.12064,-1.056553 h 1.43924 l -0.27454,2.362687 0.27454,2.366846 h -1.43924 z m -3.0324,-1.297814 q 0,0.407647 0.17055,0.727941 0.17055,0.320294 0.47004,0.499159 0.30366,0.178865 0.68634,0.178865 0.38685,0 0.73626,-0.178865 0.34942,-0.178865 0.61147,-0.495 0.26622,-0.320293 0.41597,-0.7321 -0.14975,-0.411806 -0.41597,-0.7321 -0.26205,-0.320294 -0.61147,-0.499159 -0.34941,-0.183025 -0.73626,-0.183025 -0.38268,0 -0.68634,0.183025 -0.29949,0.178865 -0.47004,0.503319 -0.17055,0.320294 -0.17055,0.72794 z"
         id="path14324" /><path
         d="m 111.83536,61.567207 q -0.84025,0 -1.50579,-0.311975 -0.66555,-0.316134 -1.03992,-0.881847 -0.37437,-0.569874 -0.37437,-1.310293 0,-0.727941 0.35773,-1.289495 0.35773,-0.565714 0.99416,-0.877688 0.63643,-0.311975 1.43924,-0.311975 0.80698,0 1.40597,0.361891 0.59899,0.357731 0.91928,1.023276 0.32446,0.661386 0.32446,1.543234 h -3.95168 q 0.15807,0.482521 0.61563,0.744579 0.45756,0.262059 1.16055,0.262059 0.53659,0 1.07735,-0.153908 0.54075,-0.153907 0.9692,-0.432604 v 0.931763 q -0.47004,0.332773 -1.09399,0.519958 -0.61979,0.183025 -1.29782,0.183025 z m 1.16887,-2.978317 q -0.12063,-0.470041 -0.45756,-0.72378 -0.33278,-0.257899 -0.83194,-0.257899 -0.52827,0 -0.886,0.266218 -0.35358,0.262059 -0.46589,0.715461 z"
         id="path14326" /><path
         d="m 119.71792,56.712884 v 1.064873 h -1.88017 v 3.66466 h -1.39349 v -3.66466 h -1.88016 v -1.064873 z"
         id="path14328" /><path
         d="m 126.76438,56.712884 v 1.064873 h -1.88017 v 3.66466 h -1.39348 v -3.66466 h -1.88017 v -1.064873 z"
         id="path14330" /><path
         d="m 129.9382,61.567207 q -0.87353,0 -1.54739,-0.311975 -0.66971,-0.311974 -1.03992,-0.873528 -0.37021,-0.565714 -0.37021,-1.301974 0,-0.740419 0.37021,-1.306133 0.37021,-0.565714 1.03992,-0.877688 0.67386,-0.311975 1.54739,-0.311975 0.87353,0 1.54323,0.311975 0.67387,0.311974 1.04408,0.877688 0.37021,0.565714 0.37021,1.306133 0,0.73626 -0.37021,1.301974 -0.37021,0.561554 -1.04408,0.873528 -0.6697,0.311975 -1.54323,0.311975 z m -1.55155,-2.487477 q 0,0.440924 0.18718,0.765378 0.18719,0.320294 0.5366,0.494999 0.34941,0.174706 0.82777,0.174706 0.47836,0 0.82361,-0.174706 0.34941,-0.174705 0.5366,-0.494999 0.18718,-0.324454 0.18718,-0.765378 0,-0.440924 -0.18718,-0.765377 -0.18719,-0.324454 -0.5366,-0.499159 -0.34941,-0.174706 -0.82361,-0.174706 -0.47836,0 -0.82777,0.174706 -0.34941,0.174705 -0.5366,0.499159 -0.18718,0.324453 -0.18718,0.765377 z"
         id="path14332" /><path
         d="m 139.26832,56.712884 v 4.729533 h -1.39349 v -3.681299 h -2.17134 q 0.0541,0.744579 0.0541,1.185503 0,0.915125 -0.17886,1.484999 -0.17471,0.565714 -0.54908,0.836091 -0.37021,0.270378 -0.9692,0.270378 -0.5158,0 -0.9276,-0.228781 V 60.30267 q 0.30365,0.12063 0.56155,0.12063 0.28702,0 0.46172,-0.170546 0.17887,-0.170546 0.2579,-0.532436 0.0832,-0.36605 0.0832,-0.965041 0,-0.819453 -0.12479,-2.042393 z"
         id="path14334" /><path
         d="m 140.30823,56.712884 h 1.38933 v 1.360209 h 1.60563 q 0.59483,0 1.04407,0.212142 0.4534,0.207983 0.69882,0.590672 0.24958,0.382689 0.24958,0.881848 0,0.503319 -0.24958,0.886007 -0.24542,0.378529 -0.69466,0.590672 -0.44508,0.207983 -1.0316,0.207983 h -3.01159 z m 2.78281,3.735374 q 0.37437,0 0.58651,-0.187184 0.21631,-0.191345 0.21631,-0.519958 0,-0.328613 -0.21631,-0.515798 -0.21214,-0.191344 -0.58651,-0.191344 h -1.39348 v 1.414284 z"
         id="path14336" /><path
         d="m 145.97368,56.712884 h 1.39349 v 2.961678 l 2.4126,-2.961678 h 1.51412 l -1.64723,1.917603 1.78865,2.81193 h -1.58899 l -1.08151,-1.784494 -1.53491,1.784494 h -1.25622 z"
         id="path14338" /><path
         d="m 154.35124,61.567207 q -0.87353,0 -1.54739,-0.311975 -0.66971,-0.311974 -1.03992,-0.873528 -0.37021,-0.565714 -0.37021,-1.301974 0,-0.740419 0.37021,-1.306133 0.37021,-0.565714 1.03992,-0.877688 0.67386,-0.311975 1.54739,-0.311975 0.87353,0 1.54323,0.311975 0.67387,0.311974 1.04408,0.877688 0.37021,0.565714 0.37021,1.306133 0,0.73626 -0.37021,1.301974 -0.37021,0.561554 -1.04408,0.873528 -0.6697,0.311975 -1.54323,0.311975 z m -1.55155,-2.487477 q 0,0.440924 0.18718,0.765378 0.18719,0.320294 0.5366,0.494999 0.34941,0.174706 0.82777,0.174706 0.47836,0 0.82361,-0.174706 0.34941,-0.174705 0.5366,-0.494999 0.18718,-0.324454 0.18718,-0.765378 0,-0.440924 -0.18718,-0.765377 -0.18719,-0.324454 -0.5366,-0.499159 -0.34941,-0.174706 -0.82361,-0.174706 -0.47836,0 -0.82777,0.174706 -0.34941,0.174705 -0.5366,0.499159 -0.18718,0.324453 -0.18718,0.765377 z"
         id="path14340" /><path
         d="m 161.83447,60.069729 q -0.98584,0 -1.5058,-0.540755 -0.51996,-0.544916 -0.51996,-1.580671 v -1.235419 h 1.38517 v 1.177184 q 0,0.540755 0.26206,0.819453 0.26205,0.278697 0.76953,0.278697 0.38685,0 0.73626,-0.170546 0.35357,-0.170546 0.64059,-0.507479 v -1.597309 h 1.39349 v 4.729533 h -1.39349 v -2.067351 q -0.29534,0.332773 -0.7529,0.515798 -0.45756,0.178865 -1.01495,0.178865 z"
         id="path14342" /><path
         d="m 170.25363,60.377544 q -0.35357,0.565714 -0.89433,0.877688 -0.5366,0.311975 -1.19382,0.311975 -0.68635,0 -1.22294,-0.311975 -0.5366,-0.311974 -0.83609,-0.877688 -0.29534,-0.565714 -0.29534,-1.297814 0,-0.736259 0.29534,-1.301973 0.29949,-0.569874 0.83193,-0.881848 0.53659,-0.311975 1.2271,-0.311975 0.65722,0 1.19382,0.311975 0.54076,0.307815 0.89849,0.873528 l 0.12063,-1.056553 h 1.43924 l -0.27454,2.362687 0.27454,2.366846 h -1.43924 z m -3.0324,-1.297814 q 0,0.407647 0.17055,0.727941 0.17055,0.320294 0.47004,0.499159 0.30366,0.178865 0.68635,0.178865 0.38684,0 0.73626,-0.178865 0.34941,-0.178865 0.61147,-0.495 0.26621,-0.320293 0.41596,-0.7321 -0.14975,-0.411806 -0.41596,-0.7321 -0.26206,-0.320294 -0.61147,-0.499159 -0.34942,-0.183025 -0.73626,-0.183025 -0.38269,0 -0.68635,0.183025 -0.29949,0.178865 -0.47004,0.503319 -0.17055,0.320294 -0.17055,0.72794 z"
         id="path14344" /><path
         d="m 178.16113,59.512335 q -0.0749,0.60731 -0.46173,1.073192 -0.38269,0.465882 -0.99831,0.723781 -0.61563,0.257899 -1.36021,0.257899 -0.8361,0 -1.485,-0.311975 -0.64891,-0.316134 -1.0108,-0.877688 -0.35773,-0.565714 -0.35773,-1.297814 0,-0.7321 0.35773,-1.297814 0.36189,-0.565713 1.0108,-0.881847 0.6489,-0.316135 1.485,-0.316135 0.74458,0 1.36021,0.257899 0.61562,0.257899 0.99831,0.727941 0.38685,0.470041 0.46173,1.077352 h -1.38933 q -0.10399,-0.474202 -0.49084,-0.74042 -0.38269,-0.266218 -0.94008,-0.266218 -0.44093,0 -0.76954,0.170546 -0.32445,0.170546 -0.50332,0.495 -0.17471,0.324453 -0.17471,0.773696 0,0.445084 0.17471,0.769537 0.17887,0.324454 0.50332,0.495 0.32861,0.170546 0.76954,0.170546 0.36605,0 0.66554,-0.12063 0.30366,-0.12479 0.49916,-0.353571 0.19966,-0.228782 0.26622,-0.528277 z"
         id="path14346" /><path
         d="m 183.48133,56.712884 v 1.064873 h -1.88017 v 3.66466 h -1.39348 v -3.66466 h -1.88017 v -1.064873 z"
         id="path14348" /><path
         d="m 184.1136,56.712884 h 1.37269 v 3.431719 l 2.50828,-3.431719 h 1.78865 v 4.729533 h -1.36853 v -3.498274 l -2.55819,3.498274 h -1.7429 z"
         id="path14350" /><path
         d="m 192.6201,60.069729 q -0.98584,0 -1.50579,-0.540755 -0.51996,-0.544916 -0.51996,-1.580671 v -1.235419 h 1.38516 v 1.177184 q 0,0.540755 0.26206,0.819453 0.26206,0.278697 0.76954,0.278697 0.38685,0 0.73626,-0.170546 0.35357,-0.170546 0.64059,-0.507479 v -1.597309 h 1.39348 v 4.729533 h -1.39348 v -2.067351 q -0.29534,0.332773 -0.7529,0.515798 -0.45756,0.178865 -1.01496,0.178865 z"
         id="path14352" /><path
         d="m 198.20653,56.712884 v 1.796973 h 2.58731 v -1.796973 h 1.38517 v 4.729533 h -1.38517 v -1.884326 h -2.58731 v 1.884326 h -1.38516 v -4.729533 z"
         id="path14354" /><path
         d="m 205.93516,61.567207 q -0.87353,0 -1.54739,-0.311975 -0.66971,-0.311974 -1.03992,-0.873528 -0.3702,-0.565714 -0.3702,-1.301974 0,-0.740419 0.3702,-1.306133 0.37021,-0.565714 1.03992,-0.877688 0.67386,-0.311975 1.54739,-0.311975 0.87353,0 1.54324,0.311975 0.67386,0.311974 1.04407,0.877688 0.37021,0.565714 0.37021,1.306133 0,0.73626 -0.37021,1.301974 -0.37021,0.561554 -1.04407,0.873528 -0.66971,0.311975 -1.54324,0.311975 z m -1.55155,-2.487477 q 0,0.440924 0.18718,0.765378 0.18719,0.320294 0.5366,0.494999 0.34941,0.174706 0.82777,0.174706 0.47836,0 0.82362,-0.174706 0.34941,-0.174705 0.53659,-0.494999 0.18719,-0.324454 0.18719,-0.765378 0,-0.440924 -0.18719,-0.765377 -0.18718,-0.324454 -0.53659,-0.499159 -0.34942,-0.174706 -0.82362,-0.174706 -0.47836,0 -0.82777,0.174706 -0.34941,0.174705 -0.5366,0.499159 -0.18718,0.324453 -0.18718,0.765377 z"
         id="path14356" /><path
         d="m 48.762454,67.112034 h 1.372688 v 3.431719 l 2.508275,-3.431719 h 1.788653 v 4.729533 h -1.368528 v -3.498274 l -2.558191,3.498274 h -1.742897 z"
         id="path14358" /><path
         d="m 61.191511,67.112034 v 4.729533 h -1.393486 v -3.681299 h -2.171342 q 0.05407,0.744579 0.05407,1.185503 0,0.915125 -0.178865,1.484998 -0.174706,0.565714 -0.549075,0.836092 -0.37021,0.270378 -0.969201,0.270378 -0.515798,0 -0.927604,-0.228781 V 70.70182 q 0.303655,0.12063 0.561554,0.12063 0.287016,0 0.461722,-0.170546 0.178866,-0.170546 0.257899,-0.532436 0.08319,-0.36605 0.08319,-0.965041 0,-0.819453 -0.124789,-2.042393 z"
         id="path14360" /><path
         d="m 62.231429,67.112034 h 1.372688 v 3.431719 l 2.508275,-3.431719 h 1.788653 v 4.729533 h -1.368528 v -3.498274 l -2.55819,3.498274 h -1.742898 z"
         id="path14362" /><path
         d="m 72.464187,67.112034 v 1.796973 h 2.587309 v -1.796973 h 1.385166 v 4.729533 h -1.385166 v -1.884326 h -2.587309 v 1.884326 H 71.07902 v -4.729533 z"
         id="path14364" /><path
         d="m 80.15539,71.966357 q -0.840251,0 -1.505797,-0.311975 -0.665545,-0.316134 -1.039915,-0.881848 -0.374369,-0.569873 -0.374369,-1.310293 0,-0.72794 0.357731,-1.289494 0.35773,-0.565714 0.994158,-0.877688 0.636428,-0.311975 1.439243,-0.311975 0.806974,0 1.405965,0.36189 0.598991,0.357731 0.919284,1.023277 0.324454,0.661386 0.324454,1.543234 h -3.951677 q 0.158067,0.48252 0.61563,0.744579 0.457562,0.262058 1.160545,0.262058 0.536596,0 1.077352,-0.153907 0.540756,-0.153908 0.9692,-0.432605 v 0.931764 q -0.470041,0.332773 -1.09399,0.519958 -0.619789,0.183025 -1.297814,0.183025 z m 1.168864,-2.978317 q -0.12063,-0.470041 -0.457562,-0.723781 -0.332773,-0.257899 -0.831932,-0.257899 -0.528277,0 -0.886008,0.266219 -0.353571,0.262058 -0.465882,0.715461 z"
         id="path14366" /><path
         d="m 87.958915,71.966357 q -0.782016,0 -1.376848,-0.203824 -0.594831,-0.207983 -0.931763,-0.594831 -0.332773,-0.386848 -0.357731,-0.910966 h 1.34357 q 0.05408,0.353571 0.391008,0.540756 0.341092,0.183025 0.931764,0.183025 0.569873,0 0.877688,-0.149748 0.307815,-0.149747 0.307815,-0.449243 0,-0.257899 -0.266218,-0.378529 -0.262059,-0.12063 -0.836092,-0.12063 H 87.1561 v -0.831932 h 0.86105 q 0.499159,0 0.752898,-0.137269 0.25374,-0.141428 0.25374,-0.382688 0,-0.270378 -0.282857,-0.411807 -0.282857,-0.145588 -0.773697,-0.145588 -0.540756,0 -0.865209,0.170546 -0.320294,0.170546 -0.37437,0.499159 h -1.33941 q 0.03744,-0.470041 0.357731,-0.844411 0.320294,-0.378529 0.902646,-0.594831 0.582352,-0.220462 1.372688,-0.220462 0.711302,0 1.256217,0.174706 0.549075,0.174706 0.848571,0.48668 0.303655,0.307815 0.303655,0.702983 0,0.370209 -0.257899,0.657226 -0.253739,0.282857 -0.773697,0.411806 0.565714,0.09567 0.86105,0.36605 0.295336,0.266218 0.295336,0.690504 0,0.436764 -0.307815,0.773696 -0.307815,0.336933 -0.894327,0.528277 -0.586512,0.191345 -1.393486,0.191345 z"
         id="path14368" /><path
         d="m 95.587729,70.776694 q -0.353571,0.565714 -0.894327,0.877688 -0.536596,0.311975 -1.193822,0.311975 -0.686344,0 -1.22294,-0.311975 -0.536596,-0.311974 -0.836092,-0.877688 -0.295336,-0.565714 -0.295336,-1.297814 0,-0.73626 0.295336,-1.301974 0.299496,-0.569873 0.831932,-0.881847 0.536596,-0.311975 1.2271,-0.311975 0.657226,0 1.193822,0.311975 0.540756,0.307814 0.898487,0.873528 l 0.12063,-1.056553 h 1.439242 l -0.274537,2.362686 0.274537,2.366847 H 95.712519 Z M 92.555337,69.47888 q 0,0.407647 0.170546,0.72794 0.170546,0.320294 0.470042,0.49916 0.303655,0.178865 0.686343,0.178865 0.386849,0 0.73626,-0.178865 0.349412,-0.178866 0.61147,-0.495 0.266218,-0.320294 0.415966,-0.7321 -0.149748,-0.411806 -0.415966,-0.7321 -0.262058,-0.320294 -0.61147,-0.499159 -0.349411,-0.183025 -0.73626,-0.183025 -0.382688,0 -0.686343,0.183025 -0.299496,0.178865 -0.470042,0.503319 -0.170546,0.320293 -0.170546,0.72794 z"
         id="path14370" /><path
         d="m 103.40372,71.841567 h -1.39348 v -3.681299 h -2.537394 v 3.681299 H 98.07936 v -4.729533 h 5.32436 z"
         id="path14372" /><path
         d="m 105.79137,73.339044 q -0.46173,0 -0.8361,-0.11231 -0.37436,-0.112311 -0.71546,-0.345252 v -1.002478 q 0.36189,0.228781 0.67387,0.324453 0.31197,0.09983 0.6905,0.09983 0.36189,0 0.61979,-0.162227 0.26206,-0.158067 0.42429,-0.532436 l 0.0291,-0.06239 h -0.58651 l -2.09231,-4.434197 h 1.53076 l 1.53491,3.548189 1.55572,-3.548189 h 1.47667 l -2.35852,4.941675 q -0.31614,0.673865 -0.81946,0.977521 -0.50331,0.307814 -1.12726,0.307814 z"
         id="path14374" /><path
         d="m 115.82447,69.911485 q -0.0749,0.60731 -0.46172,1.073192 -0.38269,0.465882 -0.99832,0.723781 -0.61563,0.257899 -1.36021,0.257899 -0.83609,0 -1.485,-0.311975 -0.64891,-0.316134 -1.0108,-0.877688 -0.35773,-0.565714 -0.35773,-1.297814 0,-0.7321 0.35773,-1.297814 0.36189,-0.565714 1.0108,-0.881848 0.64891,-0.316134 1.485,-0.316134 0.74458,0 1.36021,0.257899 0.61563,0.257899 0.99832,0.72794 0.38684,0.470042 0.46172,1.077352 h -1.38933 q -0.10399,-0.474201 -0.49084,-0.740419 -0.38269,-0.266218 -0.94008,-0.266218 -0.44093,0 -0.76954,0.170546 -0.32445,0.170546 -0.50332,0.494999 -0.1747,0.324454 -0.1747,0.773697 0,0.445084 0.1747,0.769537 0.17887,0.324454 0.50332,0.495 0.32861,0.170546 0.76954,0.170546 0.36605,0 0.66554,-0.12063 0.30366,-0.12479 0.49916,-0.353572 0.19967,-0.228781 0.26622,-0.528276 z"
         id="path14376" /><path
         d="m 116.57321,67.112034 h 1.39348 v 2.961677 l 2.41261,-2.961677 h 1.51411 l -1.64722,1.917603 1.78865,2.81193 h -1.58899 l -1.08151,-1.784494 -1.53492,1.784494 h -1.25621 z"
         id="path14378" /><path
         d="m 126.49399,70.776694 q -0.35357,0.565714 -0.89433,0.877688 -0.53659,0.311975 -1.19382,0.311975 -0.68634,0 -1.22294,-0.311975 -0.53659,-0.311974 -0.83609,-0.877688 -0.29534,-0.565714 -0.29534,-1.297814 0,-0.73626 0.29534,-1.301974 0.2995,-0.569873 0.83193,-0.881847 0.5366,-0.311975 1.2271,-0.311975 0.65723,0 1.19382,0.311975 0.54076,0.307814 0.89849,0.873528 l 0.12063,-1.056553 h 1.43924 l -0.27454,2.362686 0.27454,2.366847 h -1.43924 z M 123.4616,69.47888 q 0,0.407647 0.17054,0.72794 0.17055,0.320294 0.47005,0.49916 0.30365,0.178865 0.68634,0.178865 0.38685,0 0.73626,-0.178865 0.34941,-0.178866 0.61147,-0.495 0.26622,-0.320294 0.41597,-0.7321 -0.14975,-0.411806 -0.41597,-0.7321 -0.26206,-0.320294 -0.61147,-0.499159 -0.34941,-0.183025 -0.73626,-0.183025 -0.38269,0 -0.68634,0.183025 -0.2995,0.178865 -0.47005,0.503319 -0.17054,0.320293 -0.17054,0.72794 z"
         id="path14380" /><path
         d="m 131.6478,71.966357 q -0.84026,0 -1.5058,-0.311975 -0.66555,-0.316134 -1.03992,-0.881848 -0.37437,-0.569873 -0.37437,-1.310293 0,-0.72794 0.35773,-1.289494 0.35774,-0.565714 0.99416,-0.877688 0.63643,-0.311975 1.43925,-0.311975 0.80697,0 1.40596,0.36189 0.59899,0.357731 0.91929,1.023277 0.32445,0.661386 0.32445,1.543234 h -3.95168 q 0.15807,0.48252 0.61563,0.744579 0.45756,0.262058 1.16055,0.262058 0.53659,0 1.07735,-0.153907 0.54075,-0.153908 0.9692,-0.432605 v 0.931764 q -0.47004,0.332773 -1.09399,0.519958 -0.61979,0.183025 -1.29781,0.183025 z m 1.16886,-2.978317 q -0.12063,-0.470041 -0.45756,-0.723781 -0.33278,-0.257899 -0.83194,-0.257899 -0.52827,0 -0.886,0.266219 -0.35357,0.262058 -0.46588,0.715461 z"
         id="path14382" /><path
         d="m 139.53035,67.112034 v 1.064872 h -1.88017 v 3.664661 h -1.39349 v -3.664661 h -1.88016 v -1.064872 z"
         id="path14384" /><path
         d="m 145.42042,69.911485 q -0.0749,0.60731 -0.46172,1.073192 -0.38269,0.465882 -0.99832,0.723781 -0.61563,0.257899 -1.36021,0.257899 -0.83609,0 -1.485,-0.311975 -0.64891,-0.316134 -1.0108,-0.877688 -0.35773,-0.565714 -0.35773,-1.297814 0,-0.7321 0.35773,-1.297814 0.36189,-0.565714 1.0108,-0.881848 0.64891,-0.316134 1.485,-0.316134 0.74458,0 1.36021,0.257899 0.61563,0.257899 0.99832,0.72794 0.38684,0.470042 0.46172,1.077352 h -1.38933 q -0.10399,-0.474201 -0.49084,-0.740419 -0.38269,-0.266218 -0.94008,-0.266218 -0.44092,0 -0.76954,0.170546 -0.32445,0.170546 -0.50332,0.494999 -0.1747,0.324454 -0.1747,0.773697 0,0.445084 0.1747,0.769537 0.17887,0.324454 0.50332,0.495 0.32862,0.170546 0.76954,0.170546 0.36605,0 0.66554,-0.12063 0.30366,-0.12479 0.49916,-0.353572 0.19967,-0.228781 0.26622,-0.528276 z"
         id="path14386" /><path
         d="m 147.22156,70.102829 q -0.56988,-0.137269 -0.89849,-0.519958 -0.32861,-0.382688 -0.32861,-0.931763 0,-0.453403 0.22462,-0.802815 0.22878,-0.349411 0.63643,-0.540755 0.4118,-0.195504 0.9484,-0.195504 h 3.3402 v 4.729533 h -1.38932 v -1.638906 h -1.07319 l -1.21878,1.638906 h -1.58483 z m 0.17886,-1.435083 q 0,0.287017 0.19551,0.457563 0.19966,0.170546 0.54075,0.170546 h 1.61811 v -1.247898 h -1.61811 q -0.34109,0 -0.54075,0.166386 -0.19551,0.166387 -0.19551,0.453403 z"
         id="path14388" /><path
         d="m 157.22554,71.966357 q -0.9692,0 -1.66387,-0.37021 -0.6905,-0.37021 -1.05655,-1.073192 -0.36605,-0.702983 -0.36605,-1.684663 0,-0.97336 0.35357,-1.684662 0.35357,-0.711302 1.03576,-1.118948 0.68218,-0.407647 1.6597,-0.49084 0.83609,-0.06655 1.25622,-0.112311 0.42428,-0.04576 0.6697,-0.09151 0.24958,-0.04991 0.48668,-0.133109 v 1.152226 q -0.27037,0.108151 -0.7529,0.170546 -0.48252,0.05824 -1.38932,0.09983 -2.14223,0.09983 -2.15055,2.171342 0.17887,-0.403487 0.5158,-0.694663 0.34109,-0.295336 0.80282,-0.449243 0.46172,-0.158067 0.99415,-0.158067 0.71131,0 1.25622,0.274537 0.54908,0.270378 0.84857,0.765378 0.30366,0.49084 0.30366,1.135587 0,0.686344 -0.34941,1.206301 -0.34526,0.519958 -0.98168,0.802815 -0.63227,0.282857 -1.47252,0.282856 z m -1.64307,-2.32941 q 0.0832,0.386848 0.31614,0.678025 0.2371,0.287016 0.58651,0.445083 0.34941,0.153908 0.77369,0.153908 0.40765,0 0.71547,-0.149748 0.31197,-0.153908 0.47836,-0.428445 0.17054,-0.274538 0.17054,-0.636428 0,-0.36189 -0.17054,-0.636428 -0.16639,-0.274538 -0.4742,-0.424285 -0.30782,-0.149748 -0.71963,-0.149748 -0.56987,0 -1.01495,0.303655 -0.44093,0.303655 -0.66139,0.844411 z"
         id="path14390" /><path
         d="m 163.5191,71.966357 q -0.84025,0 -1.50579,-0.311975 -0.66555,-0.316134 -1.03992,-0.881848 -0.37437,-0.569873 -0.37437,-1.310293 0,-0.72794 0.35773,-1.289494 0.35773,-0.565714 0.99416,-0.877688 0.63643,-0.311975 1.43924,-0.311975 0.80698,0 1.40597,0.36189 0.59899,0.357731 0.91928,1.023277 0.32446,0.661386 0.32446,1.543234 h -3.95168 q 0.15807,0.48252 0.61563,0.744579 0.45756,0.262058 1.16054,0.262058 0.5366,0 1.07736,-0.153907 0.54075,-0.153908 0.9692,-0.432605 v 0.931764 q -0.47004,0.332773 -1.09399,0.519958 -0.61979,0.183025 -1.29782,0.183025 z m 1.16887,-2.978317 q -0.12063,-0.470041 -0.45757,-0.723781 -0.33277,-0.257899 -0.83193,-0.257899 -0.52827,0 -0.88601,0.266219 -0.35357,0.262058 -0.46588,0.715461 z"
         id="path14392" /><path
         d="m 169.18872,71.966357 q -0.78201,0 -1.37684,-0.203824 -0.59484,-0.207983 -0.93177,-0.594831 -0.33277,-0.386848 -0.35773,-0.910966 h 1.34357 q 0.0541,0.353571 0.39101,0.540756 0.34109,0.183025 0.93176,0.183025 0.56988,0 0.87769,-0.149748 0.30782,-0.149747 0.30782,-0.449243 0,-0.257899 -0.26622,-0.378529 -0.26206,-0.12063 -0.83609,-0.12063 h -0.88601 v -0.831932 h 0.86105 q 0.49916,0 0.7529,-0.137269 0.25374,-0.141428 0.25374,-0.382688 0,-0.270378 -0.28286,-0.411807 -0.28286,-0.145588 -0.7737,-0.145588 -0.54075,0 -0.86521,0.170546 -0.32029,0.170546 -0.37437,0.499159 h -1.33941 q 0.0374,-0.470041 0.35773,-0.844411 0.3203,-0.378529 0.90265,-0.594831 0.58235,-0.220462 1.37269,-0.220462 0.7113,0 1.25622,0.174706 0.54907,0.174706 0.84857,0.48668 0.30365,0.307815 0.30365,0.702983 0,0.370209 -0.2579,0.657226 -0.25374,0.282857 -0.77369,0.411806 0.56571,0.09567 0.86105,0.36605 0.29533,0.266218 0.29533,0.690504 0,0.436764 -0.30781,0.773696 -0.30782,0.336933 -0.89433,0.528277 -0.58651,0.191345 -1.39349,0.191345 z"
         id="path14394" /><path
         d="m 174.73355,67.112034 h 1.37268 v 3.431719 l 2.50828,-3.431719 h 1.78865 v 4.729533 h -1.36853 v -3.498274 l -2.55819,3.498274 h -1.74289 z"
         id="path14396" /><path
         d="m 183.78913,71.966357 q -0.78202,0 -1.37685,-0.203824 -0.59483,-0.207983 -0.93176,-0.594831 -0.33278,-0.386848 -0.35774,-0.910966 h 1.34357 q 0.0541,0.353571 0.39101,0.540756 0.34109,0.183025 0.93177,0.183025 0.56987,0 0.87768,-0.149748 0.30782,-0.149747 0.30782,-0.449243 0,-0.257899 -0.26622,-0.378529 -0.26206,-0.12063 -0.83609,-0.12063 h -0.88601 v -0.831932 h 0.86105 q 0.49916,0 0.7529,-0.137269 0.25374,-0.141428 0.25374,-0.382688 0,-0.270378 -0.28286,-0.411807 -0.28285,-0.145588 -0.77369,-0.145588 -0.54076,0 -0.86521,0.170546 -0.3203,0.170546 -0.37437,0.499159 h -1.33941 q 0.0374,-0.470041 0.35773,-0.844411 0.32029,-0.378529 0.90264,-0.594831 0.58236,-0.220462 1.37269,-0.220462 0.7113,0 1.25622,0.174706 0.54907,0.174706 0.84857,0.48668 0.30365,0.307815 0.30365,0.702983 0,0.370209 -0.25789,0.657226 -0.25374,0.282857 -0.7737,0.411806 0.56571,0.09567 0.86105,0.36605 0.29533,0.266218 0.29533,0.690504 0,0.436764 -0.30781,0.773696 -0.30782,0.336933 -0.89433,0.528277 -0.58651,0.191345 -1.39348,0.191345 z"
         id="path14398" /><path
         d="m 187.20005,67.112034 h 2.07983 l 1.50163,3.485795 1.48084,-3.485795 h 2.07983 v 4.729533 h -1.30197 v -3.606425 l -1.61395,3.606425 h -1.30613 l -1.61395,-3.593946 v 3.593946 h -1.30613 z"
         id="path14400" /><path
         d="m 198.06507,71.966357 q -0.84025,0 -1.5058,-0.311975 -0.66554,-0.316134 -1.03991,-0.881848 -0.37437,-0.569873 -0.37437,-1.310293 0,-0.72794 0.35773,-1.289494 0.35773,-0.565714 0.99416,-0.877688 0.63643,-0.311975 1.43924,-0.311975 0.80697,0 1.40597,0.36189 0.59899,0.357731 0.91928,1.023277 0.32445,0.661386 0.32445,1.543234 h -3.95167 q 0.15806,0.48252 0.61563,0.744579 0.45756,0.262058 1.16054,0.262058 0.5366,0 1.07735,-0.153907 0.54076,-0.153908 0.9692,-0.432605 v 0.931764 q -0.47004,0.332773 -1.09399,0.519958 -0.61979,0.183025 -1.29781,0.183025 z m 1.16886,-2.978317 q -0.12063,-0.470041 -0.45756,-0.723781 -0.33277,-0.257899 -0.83193,-0.257899 -0.52828,0 -0.88601,0.266219 -0.35357,0.262058 -0.46588,0.715461 z"
         id="path14402" /><path
         d="m 202.77796,67.112034 v 1.796973 h 2.58731 v -1.796973 h 1.38517 v 4.729533 h -1.38517 v -1.884326 h -2.58731 v 1.884326 h -1.38517 v -4.729533 z"
         id="path14404" /><path
         d="m 210.46917,71.966357 q -0.84025,0 -1.5058,-0.311975 -0.66554,-0.316134 -1.03991,-0.881848 -0.37437,-0.569873 -0.37437,-1.310293 0,-0.72794 0.35773,-1.289494 0.35773,-0.565714 0.99416,-0.877688 0.63642,-0.311975 1.43924,-0.311975 0.80697,0 1.40596,0.36189 0.59899,0.357731 0.91929,1.023277 0.32445,0.661386 0.32445,1.543234 h -3.95168 q 0.15807,0.48252 0.61563,0.744579 0.45757,0.262058 1.16055,0.262058 0.5366,0 1.07735,-0.153907 0.54076,-0.153908 0.9692,-0.432605 v 0.931764 q -0.47004,0.332773 -1.09399,0.519958 -0.61979,0.183025 -1.29781,0.183025 z m 1.16886,-2.978317 q -0.12063,-0.470041 -0.45756,-0.723781 -0.33277,-0.257899 -0.83193,-0.257899 -0.52828,0 -0.88601,0.266219 -0.35357,0.262058 -0.46588,0.715461 z"
         id="path14406" /><path
         d="m 215.18206,67.112034 v 1.796973 h 2.58731 v -1.796973 h 1.38516 v 4.729533 h -1.38516 v -1.884326 h -2.58731 v 1.884326 h -1.38517 v -4.729533 z"
         id="path14408" /><path
         d="m 220.19445,67.112034 h 1.37268 v 3.431719 l 2.50828,-3.431719 h 1.78865 v 4.729533 h -1.36853 v -3.498274 l -2.55819,3.498274 h -1.74289 z"
         id="path14410" /><path
         d="m 226.90813,67.112034 h 1.37269 v 3.431719 l 2.50827,-3.431719 h 1.78866 v 4.729533 h -1.36853 v -3.498274 l -2.55819,3.498274 h -1.7429 z m 2.79945,-0.436765 q -0.80697,0 -1.29781,-0.395167 -0.49084,-0.399328 -0.60731,-1.148067 h 1.08567 q 0.0666,0.353572 0.27869,0.544916 0.21215,0.187185 0.54076,0.187185 0.32861,0 0.54076,-0.187185 0.21214,-0.191344 0.27453,-0.544916 h 1.08568 q -0.11648,0.748739 -0.60732,1.148067 -0.48668,0.395167 -1.29365,0.395167 z"
         id="path14412" /><path
         d="m 234.2624,71.916441 q -0.22878,0 -0.41596,-0.108151 -0.18719,-0.108152 -0.29534,-0.295336 -0.10815,-0.187185 -0.10815,-0.415966 0,-0.224622 0.10815,-0.411807 0.10815,-0.191344 0.29534,-0.299495 0.18718,-0.108151 0.41596,-0.108151 0.22878,0 0.41597,0.108151 0.18718,0.108151 0.29533,0.299495 0.10815,0.187185 0.10815,0.411807 0,0.228781 -0.10815,0.415966 -0.10815,0.187184 -0.29533,0.295336 -0.18719,0.108151 -0.41597,0.108151 z"
         id="path14414" /></g></g></svg>
