<?xml version="1.0" encoding="UTF-8" standalone="no"?>
<!-- Created with Inkscape (http://www.inkscape.org/) -->

<svg
   width="224.93739mm"
   height="69.234001mm"
   viewBox="0 0 224.93739 69.234001"
   version="1.1"
   id="svg5"
   xml:space="preserve"
   inkscape:export-filename="finished.svg"
   inkscape:export-xdpi="96"
   inkscape:export-ydpi="96"
   sodipodi:docname="base.svg"
   inkscape:version="1.2.2 (b0a8486541, 2022-12-01)"
   xmlns:inkscape="http://www.inkscape.org/namespaces/inkscape"
   xmlns:sodipodi="http://sodipodi.sourceforge.net/DTD/sodipodi-0.dtd"
   xmlns="http://www.w3.org/2000/svg"
   xmlns:svg="http://www.w3.org/2000/svg"><sodipodi:namedview
     id="namedview7"
     pagecolor="#00212e"
     bordercolor="#000000"
     borderopacity="0.25"
     inkscape:showpageshadow="2"
     inkscape:pageopacity="1"
     inkscape:pagecheckerboard="0"
     inkscape:deskcolor="#d1d1d1"
     inkscape:document-units="mm"
     showgrid="false"
     inkscape:zoom="0.92198806"
     inkscape:cx="320.50307"
     inkscape:cy="259.22245"
     inkscape:window-width="1920"
     inkscape:window-height="1131"
     inkscape:window-x="0"
     inkscape:window-y="0"
     inkscape:window-maximized="1"
     inkscape:current-layer="layer1" /><defs
     id="defs2" /><g
     inkscape:label="Layer 1"
     inkscape:groupmode="layer"
     id="layer1"
     transform="translate(-12.546532,-9.3468567)"><g
       aria-label="Статус проекта"
       id="text202"
       style="font-weight:500;font-size:15.4622px;font-family:Unbounded;-inkscape-font-specification:'Unbounded Medium';fill:#ffff00;fill-opacity:0;stroke-width:11.5963;stroke-linecap:round;stroke-linejoin:round"><path
         d="m 32.188891,22.990543 q -0.170084,1.468909 -1.028236,2.597649 -0.858152,1.12101 -2.265213,1.739498 -1.40706,0.618488 -3.185213,0.618488 -1.97143,0 -3.478995,-0.749917 -1.499833,-0.757648 -2.327061,-2.126052 -0.827228,-1.368405 -0.827228,-3.154289 0,-1.785884 0.827228,-3.154289 0.827228,-1.368405 2.327061,-2.118321 1.507565,-0.757648 3.478995,-0.757648 1.778153,0 3.185213,0.618488 1.407061,0.618488 2.265213,1.747228 0.858152,1.12101 1.028236,2.589919 H 29.552586 Q 29.390233,20.0218 28.87998,19.426506 28.377459,18.82348 27.565693,18.506505 q -0.811765,-0.324707 -1.863195,-0.324707 -1.213783,0 -2.11059,0.456135 -0.889077,0.456135 -1.376136,1.298825 -0.479328,0.84269 -0.479328,1.979162 0,1.136471 0.479328,1.979161 0.487059,0.84269 1.376136,1.298825 0.896807,0.456135 2.11059,0.456135 1.592607,0 2.59765,-0.695799 1.012774,-0.695799 1.252438,-1.963699 z"
         style="fill:#23dd83;fill-opacity:1"
         id="path12427" /><path
         d="m 42.363012,18.923984 v 1.979162 h -3.494457 v 6.811099 h -2.589919 v -6.811099 h -3.494457 v -1.979162 z"
         style="fill:#23dd83;fill-opacity:1"
         id="path12429" /><path
         d="m 51.068218,25.735083 q -0.657143,1.05143 -1.662186,1.631262 -0.997312,0.579833 -2.218826,0.579833 -1.275632,0 -2.272944,-0.579833 -0.997312,-0.579832 -1.553951,-1.631262 -0.548908,-1.051429 -0.548908,-2.412103 0,-1.368405 0.548908,-2.419834 0.556639,-1.059161 1.54622,-1.638994 0.997312,-0.579832 2.280675,-0.579832 1.221514,0 2.218826,0.579832 1.005043,0.572102 1.669917,1.623531 l 0.224202,-1.963699 h 2.674961 l -0.510253,4.391265 0.510253,4.398996 H 51.300151 Z M 45.432246,23.32298 q 0,0.757648 0.316975,1.352943 0.316975,0.595294 0.873614,0.927732 0.564371,0.332437 1.275632,0.332437 0.718992,0 1.368405,-0.332437 0.649412,-0.332438 1.136471,-0.920001 0.494791,-0.595295 0.77311,-1.360674 -0.278319,-0.765379 -0.77311,-1.360674 -0.487059,-0.595294 -1.136471,-0.927732 -0.649413,-0.340168 -1.368405,-0.340168 -0.711261,0 -1.275632,0.340168 -0.556639,0.332438 -0.873614,0.935463 -0.316975,0.595295 -0.316975,1.352943 z"
         style="fill:#23dd83;fill-opacity:1"
         id="path12431" /><path
         d="m 64.520325,18.923984 v 1.979162 h -3.494458 v 6.811099 h -2.589918 v -6.811099 h -3.494457 v -1.979162 z"
         style="fill:#23dd83;fill-opacity:1"
         id="path12433" /><path
         d="m 68.200323,30.497441 q -0.858152,0 -1.553951,-0.20874 -0.695799,-0.20874 -1.329749,-0.641681 v -1.863195 q 0.672606,0.42521 1.252438,0.603026 0.579833,0.185546 1.283363,0.185546 0.672605,0 1.151934,-0.301513 0.487059,-0.293782 0.788572,-0.989581 l 0.05412,-0.115966 h -1.090085 l -3.888743,-8.241353 h 2.845045 l 2.852776,6.594628 2.891431,-6.594628 h 2.744541 l -4.383534,9.184547 q -0.587564,1.252438 -1.523027,1.816808 -0.935463,0.572102 -2.095128,0.572102 z"
         style="fill:#23dd83;fill-opacity:1"
         id="path12435" /><path
         d="m 86.847737,24.127014 q -0.13916,1.128741 -0.858152,1.994624 -0.711262,0.865883 -1.855464,1.345212 -1.144203,0.479328 -2.52807,0.479328 -1.553951,0 -2.760003,-0.579833 -1.206051,-0.587563 -1.878657,-1.631262 -0.664875,-1.051429 -0.664875,-2.412103 0,-1.360674 0.664875,-2.412103 0.672606,-1.05143 1.878657,-1.638993 1.206052,-0.587564 2.760003,-0.587564 1.383867,0 2.52807,0.479328 1.144202,0.479328 1.855464,1.352943 0.718992,0.873614 0.858152,2.002355 H 84.265549 Q 84.072272,21.6376 83.35328,21.14281 q -0.711262,-0.494791 -1.747229,-0.494791 -0.819497,0 -1.430254,0.316975 -0.603025,0.316976 -0.935463,0.920001 -0.324706,0.603026 -0.324706,1.437985 0,0.827228 0.324706,1.430254 0.332438,0.603025 0.935463,0.92 0.610757,0.316976 1.430254,0.316976 0.680337,0 1.236976,-0.224202 0.56437,-0.231933 0.927732,-0.657144 0.371093,-0.42521 0.49479,-0.98185 z"
         style="fill:#23dd83;fill-opacity:1"
         id="path12437" /><path
         d="m 102.1012,27.714245 h -2.589915 v -6.842024 h -4.715971 v 6.842024 h -2.589919 v -8.790261 h 9.895805 z"
         style="fill:#23dd83;fill-opacity:1"
         id="path12439" /><path
         d="m 106.62389,18.923984 v 1.971431 q 0.66487,-1.059161 1.66219,-1.631263 1.00504,-0.579832 2.23428,-0.579832 1.28337,0 2.27295,0.579832 0.99731,0.579833 1.54622,1.638994 0.55664,1.051429 0.55664,2.419834 0,1.360674 -0.55664,2.412103 -0.54891,1.05143 -1.54622,1.631262 -0.99731,0.579833 -2.27295,0.579833 -1.22924,0 -2.23428,-0.579833 -0.99732,-0.587563 -1.66219,-1.646724 v 4.545887 h -2.58992 V 18.923984 Z m -0.0928,4.398996 q 0.27832,0.765379 0.76537,1.360674 0.4948,0.587563 1.14421,0.920001 0.64941,0.332437 1.3684,0.332437 0.71126,0 1.2679,-0.332437 0.56437,-0.332438 0.88135,-0.927732 0.31697,-0.595295 0.31697,-1.352943 0,-0.757648 -0.31697,-1.352943 -0.31698,-0.603025 -0.88135,-0.935463 -0.55664,-0.340168 -1.2679,-0.340168 -0.71899,0 -1.3684,0.340168 -0.64941,0.332438 -1.14421,0.927732 -0.48705,0.595295 -0.76537,1.360674 z"
         style="fill:#23dd83;fill-opacity:1"
         id="path12441" /><path
         d="m 121.45988,27.946178 q -1.62353,0 -2.87597,-0.579833 -1.2447,-0.579832 -1.93277,-1.623531 -0.68807,-1.051429 -0.68807,-2.419834 0,-1.376136 0.68807,-2.427565 0.68807,-1.05143 1.93277,-1.631263 1.25244,-0.579832 2.87597,-0.579832 1.62353,0 2.86824,0.579832 1.25244,0.579833 1.94051,1.631263 0.68806,1.051429 0.68806,2.427565 0,1.368405 -0.68806,2.419834 -0.68807,1.043699 -1.94051,1.623531 -1.24471,0.579833 -2.86824,0.579833 z m -2.8837,-4.623198 q 0,0.819497 0.3479,1.422522 0.3479,0.595295 0.99731,0.920001 0.64941,0.324707 1.53849,0.324707 0.88908,0 1.53076,-0.324707 0.64941,-0.324706 0.99731,-0.920001 0.3479,-0.603025 0.3479,-1.422522 0,-0.819497 -0.3479,-1.422522 -0.3479,-0.603026 -0.99731,-0.927732 -0.64941,-0.324707 -1.53076,-0.324707 -0.88908,0 -1.53849,0.324707 -0.64941,0.324706 -0.99731,0.927732 -0.3479,0.603025 -0.3479,1.422522 z"
         style="fill:#23dd83;fill-opacity:1"
         id="path12443" /><path
         d="m 133.41989,27.946178 q -1.56168,0 -2.79866,-0.579833 -1.23698,-0.587563 -1.93277,-1.638993 -0.6958,-1.059161 -0.6958,-2.435296 0,-1.352943 0.66487,-2.396641 0.66488,-1.05143 1.84773,-1.631263 1.18286,-0.579832 2.67496,-0.579832 1.49984,0 2.61312,0.672606 1.11327,0.664874 1.70857,1.90185 0.60302,1.229245 0.60302,2.868238 h -7.34454 q 0.29378,0.896808 1.1442,1.383867 0.85042,0.48706 2.15698,0.48706 0.99731,0 2.00235,-0.286051 1.00505,-0.286051 1.80135,-0.804034 v 1.731766 q -0.87361,0.618488 -2.03328,0.966387 -1.15193,0.340169 -2.4121,0.340169 z m 2.17244,-5.535468 q -0.2242,-0.873614 -0.85042,-1.345211 -0.61849,-0.479328 -1.54622,-0.479328 -0.98185,0 -1.64673,0.49479 -0.65714,0.487059 -0.86588,1.329749 z"
         style="fill:#23dd83;fill-opacity:1"
         id="path12445" /><path
         d="m 139.60477,18.923984 h 2.58992 v 5.504543 l 4.48404,-5.504543 h 2.81412 l -3.06152,3.564037 3.32438,5.226224 h -2.95328 l -2.01009,-3.316642 -2.85278,3.316642 h -2.33479 z"
         style="fill:#23dd83;fill-opacity:1"
         id="path12447" /><path
         d="m 159.44277,18.923984 v 1.979162 h -3.49446 v 6.811099 h -2.58991 v -6.811099 h -3.49446 v -1.979162 z"
         style="fill:#23dd83;fill-opacity:1"
         id="path12449" /><path
         d="m 168.14798,25.735083 q -0.65714,1.05143 -1.66219,1.631262 -0.99731,0.579833 -2.21882,0.579833 -1.27563,0 -2.27295,-0.579833 -0.99731,-0.579832 -1.55395,-1.631262 -0.54891,-1.051429 -0.54891,-2.412103 0,-1.368405 0.54891,-2.419834 0.55664,-1.059161 1.54622,-1.638994 0.99731,-0.579832 2.28068,-0.579832 1.22151,0 2.21882,0.579832 1.00505,0.572102 1.66992,1.623531 l 0.2242,-1.963699 h 2.67496 l -0.51025,4.391265 0.51025,4.398996 h -2.67496 z m -5.63597,-2.412103 q 0,0.757648 0.31697,1.352943 0.31698,0.595294 0.87362,0.927732 0.56437,0.332437 1.27563,0.332437 0.71899,0 1.3684,-0.332437 0.64942,-0.332438 1.13647,-0.920001 0.4948,-0.595295 0.77311,-1.360674 -0.27831,-0.765379 -0.77311,-1.360674 -0.48705,-0.595294 -1.13647,-0.927732 -0.64941,-0.340168 -1.3684,-0.340168 -0.71126,0 -1.27563,0.340168 -0.55664,0.332438 -0.87362,0.935463 -0.31697,0.595295 -0.31697,1.352943 z"
         style="fill:#23dd83;fill-opacity:1"
         id="path12451" /></g><g
       aria-label="Вечнозелёный"
       id="text202-3"
       style="font-weight:500;font-size:13.0738px;font-family:Unbounded;-inkscape-font-specification:'Unbounded Medium';fill:#1aae6e;stroke-width:9.80506;stroke-linecap:round;stroke-linejoin:round"><path
         d="M 49.615827,43.457642 48.851009,38.685704 H 55.4925 q 0.902092,0 1.542708,0.287624 0.640616,0.287624 0.973998,0.823649 0.339919,0.536026 0.339919,1.274696 0,0.719059 -0.372603,1.326991 -0.372604,0.601394 -1.157032,0.941313 1.085126,0.235329 1.634225,0.875945 0.5491,0.634079 0.5491,1.555782 0,0.804039 -0.372603,1.418507 -0.372604,0.607932 -1.104736,0.954388 -0.732133,0.346456 -1.784574,0.346456 h -6.889893 z m 5.660955,3.392651 q 0.699448,0 1.085125,-0.326845 0.392214,-0.333382 0.392214,-0.934777 0,-0.621006 -0.451046,-0.973998 -0.451046,-0.35953 -1.294306,-0.35953 h -3.392651 l -0.392214,2.59515 z M 51.609581,42.66014 h 3.131175 q 0.601395,0 0.980535,-0.339919 0.37914,-0.339919 0.37914,-0.92824 0,-0.477194 -0.333382,-0.771354 -0.333381,-0.294161 -0.934776,-0.294161 h -3.595295 z"
         id="path12402" /><path
         d="m 64.474187,48.687162 q -1.320454,0 -2.366358,-0.490268 -1.045904,-0.496804 -1.634225,-1.385823 -0.588321,-0.895555 -0.588321,-2.059123 0,-1.143958 0.562173,-2.026439 0.562174,-0.889019 1.562319,-1.379286 1.000146,-0.490268 2.261768,-0.490268 1.268158,0 2.209472,0.568711 0.941314,0.562173 1.444655,1.608077 0.509878,1.039367 0.509878,2.42519 h -6.210055 q 0.248402,0.75828 0.967461,1.170105 0.719059,0.411825 1.823795,0.411825 0.84326,0 1.693057,-0.241866 0.849797,-0.241865 1.523098,-0.679837 v 1.464265 q -0.73867,0.522952 -1.719205,0.817113 -0.973998,0.287624 -2.039512,0.287624 z m 1.836868,-4.680421 q -0.18957,-0.73867 -0.719059,-1.137421 -0.522952,-0.405287 -1.30738,-0.405287 -0.830186,0 -1.392359,0.418361 -0.555637,0.411825 -0.732133,1.124347 z"
         id="path12404" /><path
         d="m 72.442664,46.333878 q -1.549245,0 -2.366358,-0.849797 -0.817112,-0.856334 -0.817112,-2.484023 v -1.941459 h 2.176787 v 1.849943 q 0,0.849797 0.411825,1.287769 0.411825,0.437973 1.209326,0.437973 0.607932,0 1.157032,-0.268013 0.555636,-0.268013 1.006682,-0.797502 v -2.51017 h 2.189862 v 7.432456 h -2.189862 v -3.24884 q -0.46412,0.522952 -1.183179,0.810576 -0.719059,0.281087 -1.595003,0.281087 z"
         id="path12406" /><path
         d="m 81.221733,41.058599 v 2.823941 h 4.065952 v -2.823941 h 2.176788 v 7.432456 h -2.176788 v -2.961216 h -4.065952 v 2.961216 h -2.176788 v -7.432456 z"
         id="path12408" /><path
         d="m 93.367279,48.687162 q -1.372749,0 -2.431727,-0.490268 -1.052441,-0.490267 -1.634225,-1.372749 -0.581784,-0.889018 -0.581784,-2.04605 0,-1.163568 0.581784,-2.052586 0.581784,-0.889019 1.634225,-1.379286 1.058978,-0.490268 2.431727,-0.490268 1.372749,0 2.42519,0.490268 1.058977,0.490267 1.640761,1.379286 0.581785,0.889018 0.581785,2.052586 0,1.157032 -0.581785,2.04605 -0.581784,0.882482 -1.640761,1.372749 -1.052441,0.490268 -2.42519,0.490268 z m -2.438264,-3.909067 q 0,0.692912 0.29416,1.20279 0.294161,0.503341 0.843261,0.777891 0.549099,0.27455 1.300843,0.27455 0.751743,0 1.294306,-0.27455 0.549099,-0.27455 0.84326,-0.777891 0.29416,-0.509878 0.29416,-1.20279 0,-0.692911 -0.29416,-1.202789 -0.294161,-0.509879 -0.84326,-0.784428 -0.5491,-0.27455 -1.294306,-0.27455 -0.751744,0 -1.300843,0.27455 -0.5491,0.274549 -0.843261,0.784428 -0.29416,0.509878 -0.29416,1.202789 z"
         id="path12410" /><path
         d="m 102.95037,48.687162 q -1.22893,0 -2.16371,-0.320309 -0.934776,-0.326845 -1.464265,-0.934776 -0.522952,-0.607932 -0.562173,-1.431581 h 2.111418 q 0.085,0.555636 0.61447,0.849797 0.53603,0.287623 1.46426,0.287623 0.89556,0 1.37929,-0.235328 0.48373,-0.235329 0.48373,-0.705985 0,-0.405288 -0.41836,-0.594858 -0.41182,-0.18957 -1.31392,-0.18957 h -1.39236 v -1.30738 h 1.35314 q 0.78443,0 1.18318,-0.215718 0.39875,-0.222255 0.39875,-0.601395 0,-0.424898 -0.44451,-0.647153 -0.44451,-0.228792 -1.21586,-0.228792 -0.8498,0 -1.35968,0.268013 -0.50334,0.268013 -0.58832,0.784428 h -2.104879 q 0.05883,-0.738669 0.562173,-1.32699 0.503341,-0.594858 1.418506,-0.934777 0.91517,-0.346456 2.15718,-0.346456 1.11781,0 1.97414,0.27455 0.86287,0.27455 1.33353,0.764817 0.47719,0.483731 0.47719,1.104736 0,0.581785 -0.40528,1.032831 -0.39876,0.444509 -1.21587,0.647153 0.88902,0.150349 1.35314,0.575247 0.46412,0.418362 0.46412,1.085125 0,0.686375 -0.48373,1.215864 -0.48373,0.529489 -1.40543,0.830186 -0.92171,0.300698 -2.18987,0.300698 z"
         id="path12412" /><path
         d="m 112.50733,48.687162 q -1.32046,0 -2.36636,-0.490268 -1.04591,-0.496804 -1.63423,-1.385823 -0.58832,-0.895555 -0.58832,-2.059123 0,-1.143958 0.56218,-2.026439 0.56217,-0.889019 1.56231,-1.379286 1.00015,-0.490268 2.26177,-0.490268 1.26816,0 2.20947,0.568711 0.94132,0.562173 1.44466,1.608077 0.50988,1.039367 0.50988,2.42519 h -6.21006 q 0.2484,0.75828 0.96746,1.170105 0.71906,0.411825 1.8238,0.411825 0.84326,0 1.69306,-0.241866 0.84979,-0.241865 1.52309,-0.679837 v 1.464265 q -0.73867,0.522952 -1.7192,0.817113 -0.974,0.287624 -2.03951,0.287624 z m 1.83686,-4.680421 q -0.18957,-0.73867 -0.71905,-1.137421 -0.52296,-0.405287 -1.30738,-0.405287 -0.83019,0 -1.39236,0.418361 -0.55564,0.411825 -0.73214,1.124347 z"
         id="path12414" /><path
         d="m 126.61397,41.058599 v 7.432456 h -2.18986 v -5.785157 h -3.41227 q 0.085,1.170105 0.085,1.863017 0,1.438118 -0.28108,2.333673 -0.27455,0.889018 -0.86287,1.313917 -0.58179,0.424898 -1.5231,0.424898 -0.81058,0 -1.45773,-0.359529 v -1.58193 q 0.47719,0.18957 0.88248,0.18957 0.45105,0 0.7256,-0.268013 0.28108,-0.268013 0.40529,-0.836723 0.13073,-0.575247 0.13073,-1.516561 0,-1.287769 -0.1961,-3.209618 z"
         id="path12416" /><path
         d="m 132.45796,48.687162 q -1.32045,0 -2.36636,-0.490268 -1.0459,-0.496804 -1.63422,-1.385823 -0.58832,-0.895555 -0.58832,-2.059123 0,-1.143958 0.56217,-2.026439 0.56217,-0.889019 1.56232,-1.379286 1.00014,-0.490268 2.26177,-0.490268 1.26815,0 2.20947,0.568711 0.94131,0.562173 1.44465,1.608077 0.50988,1.039367 0.50988,2.42519 h -6.21005 q 0.2484,0.75828 0.96746,1.170105 0.71906,0.411825 1.82379,0.411825 0.84326,0 1.69306,-0.241866 0.8498,-0.241865 1.5231,-0.679837 v 1.464265 q -0.73867,0.522952 -1.71921,0.817113 -0.974,0.287624 -2.03951,0.287624 z m -3.43187,-9.576559 q 0,-0.483731 0.33992,-0.777891 0.34645,-0.294161 0.91516,-0.294161 0.56218,0 0.90863,0.294161 0.34646,0.29416 0.34646,0.777891 0,0.503341 -0.34646,0.797502 -0.33992,0.29416 -0.90863,0.29416 -0.57525,0 -0.91516,-0.29416 -0.33992,-0.294161 -0.33992,-0.797502 z m 5.26874,4.896138 q -0.18957,-0.73867 -0.71906,-1.137421 -0.52295,-0.405287 -1.30738,-0.405287 -0.83019,0 -1.39236,0.418361 -0.55564,0.411825 -0.73213,1.124347 z m -1.35968,-4.896138 q 0,-0.483731 0.34646,-0.777891 0.34645,-0.294161 0.90863,-0.294161 0.56217,0 0.90209,0.294161 0.34646,0.29416 0.34646,0.777891 0,0.503341 -0.34646,0.797502 -0.33992,0.29416 -0.90209,0.29416 -0.56871,0 -0.91517,-0.29416 -0.33992,-0.294161 -0.33992,-0.797502 z"
         id="path12418" /><path
         d="m 139.86427,41.058599 v 2.823941 h 4.06595 v -2.823941 h 2.17679 v 7.432456 h -2.17679 v -2.961216 h -4.06595 v 2.961216 h -2.17679 v -7.432456 z"
         id="path12420" /><path
         d="m 158.52057,41.058599 v 7.432456 h -2.18986 v -7.432456 z m -10.77935,0 h 2.18333 v 2.137566 h 2.52324 q 0.93478,0 1.64076,0.333382 0.71252,0.326845 1.0982,0.92824 0.39222,0.601395 0.39222,1.385823 0,0.790965 -0.39222,1.39236 -0.38568,0.594858 -1.09166,0.92824 -0.69945,0.326845 -1.62115,0.326845 h -4.73272 z m 4.37319,5.870136 q 0.58832,0 0.9217,-0.29416 0.33992,-0.300697 0.33992,-0.817113 0,-0.516415 -0.33992,-0.810575 -0.33338,-0.300698 -0.9217,-0.300698 h -2.18986 v 2.222546 z"
         id="path12422" /><path
         d="m 160.15478,41.058599 h 2.15718 v 5.392943 l 3.94175,-5.392943 h 2.81087 v 7.432456 h -2.15064 v -5.497533 l -4.0202,5.497533 h -2.73896 z m 4.39934,-0.686374 q -1.26816,0 -2.03952,-0.621006 -0.77135,-0.627542 -0.95438,-1.804184 h 1.70613 q 0.10459,0.555636 0.43797,0.856334 0.33338,0.29416 0.8498,0.29416 0.51641,0 0.84979,-0.29416 0.33338,-0.300698 0.43144,-0.856334 h 1.70613 q -0.18303,1.176642 -0.95439,1.804184 -0.76482,0.621006 -2.03297,0.621006 z"
         id="path12424" /></g><path
       d="m 20.565545,57.223786 h 7.578464 l -2.21976,13.077652 c -0.07668,0.438645 0.04734,0.888647 0.338607,1.22601 0.290959,0.337347 0.717921,0.526055 1.163158,0.514066 0.445268,-0.01168 0.861502,-0.222792 1.134155,-0.575287 l 12.621212,-16.131366 3.2e-4,3.21e-4 c 0.23163,-0.294111 0.343657,-0.664596 0.313677,-1.037294 -0.02966,-0.373006 -0.199122,-0.721081 -0.474618,-0.974442 -0.275497,-0.253086 -0.636191,-0.393202 -1.010473,-0.391627 h -7.57846 l 2.219759,-13.07765 c 0.07637,-0.438644 -0.04797,-0.888647 -0.338921,-1.225686 -0.290959,-0.337032 -0.717922,-0.525425 -1.163159,-0.513751 -0.444953,0.01199 -0.86118,0.223107 -1.133832,0.574971 L 19.394462,54.821069 c -0.230999,0.29411 -0.342711,0.664281 -0.312731,1.036971 0.02998,0.372375 0.19976,0.720135 0.474619,0.97323 0.275174,0.253086 0.63556,0.392887 1.009502,0.391942 z"
       id="path40"
       style="fill:#1aae6e;fill-opacity:1;stroke:none;stroke-width:0.0807861" /><g
       aria-label="У этого кода нет срока годности -
он может дополняться всегда!"
       id="text1463"
       style="font-weight:500;font-size:8.31932px;font-family:Unbounded;-inkscape-font-specification:'Unbounded Medium';fill:#127f59;stroke-width:6.2393;stroke-linecap:round;stroke-linejoin:round"><path
         d="m 51.141779,60.06557 -2.832728,-4.862643 h 1.559872 l 2.054872,3.539871 2.038234,-3.539871 h 1.534914 l -3.618904,6.23949 h -1.534914 z"
         id="path12297" /><path
         d="m 60.426132,61.567207 q -0.73626,0 -1.34357,-0.24542 -0.603151,-0.24542 -0.989999,-0.690504 -0.386848,-0.445083 -0.49084,-1.019116 h 1.360209 q 0.07903,0.287016 0.287016,0.507478 0.212143,0.216303 0.511639,0.336933 0.303655,0.12063 0.661385,0.12063 0.586513,0 0.973361,-0.278697 0.391008,-0.282857 0.507478,-0.794495 H 59.71483 v -0.852731 h 2.187981 q -0.11647,-0.511638 -0.507478,-0.790335 -0.386848,-0.282857 -0.973361,-0.282857 -0.35773,0 -0.661385,0.12063 -0.303656,0.12063 -0.511639,0.341092 -0.207983,0.216303 -0.287016,0.49916 h -1.360209 q 0.103992,-0.574034 0.49084,-1.014957 0.386848,-0.445084 0.989999,-0.690504 0.60731,-0.24958 1.34357,-0.24958 0.840251,0 1.493318,0.316135 0.653067,0.316134 1.014957,0.881847 0.36605,0.565714 0.36605,1.297814 0,0.727941 -0.36605,1.293655 -0.36189,0.565713 -1.014957,0.881847 -0.653067,0.311975 -1.493318,0.311975 z"
         id="path12299" /><path
         d="m 68.670572,56.712884 v 1.064873 h -1.880166 v 3.66466 H 65.39692 v -3.66466 h -1.880166 v -1.064873 z"
         id="path12301" /><path
         d="m 71.844391,61.567207 q -0.873529,0 -1.547394,-0.311975 -0.669705,-0.311974 -1.039915,-0.873528 -0.37021,-0.565714 -0.37021,-1.301974 0,-0.740419 0.37021,-1.306133 0.37021,-0.565714 1.039915,-0.877688 0.673865,-0.311975 1.547394,-0.311975 0.873528,0 1.543233,0.311975 0.673865,0.311974 1.044075,0.877688 0.37021,0.565714 0.37021,1.306133 0,0.73626 -0.37021,1.301974 -0.37021,0.561554 -1.044075,0.873528 -0.669705,0.311975 -1.543233,0.311975 z M 70.292838,59.07973 q 0,0.440924 0.187184,0.765378 0.187185,0.320294 0.536596,0.494999 0.349412,0.174706 0.827773,0.174706 0.478361,0 0.823612,-0.174706 0.349412,-0.174705 0.536596,-0.494999 0.187185,-0.324454 0.187185,-0.765378 0,-0.440924 -0.187185,-0.765377 -0.187184,-0.324454 -0.536596,-0.499159 -0.349411,-0.174706 -0.823612,-0.174706 -0.478361,0 -0.827773,0.174706 -0.349411,0.174705 -0.536596,0.499159 -0.187184,0.324453 -0.187184,0.765377 z"
         id="path12303" /><path
         d="m 79.531441,57.777757 h -2.537393 v 3.66466 h -1.393486 v -4.729533 h 3.930879 z"
         id="path12305" /><path
         d="m 82.692791,61.567207 q -0.873529,0 -1.547394,-0.311975 -0.669705,-0.311974 -1.039915,-0.873528 -0.370209,-0.565714 -0.370209,-1.301974 0,-0.740419 0.370209,-1.306133 0.37021,-0.565714 1.039915,-0.877688 0.673865,-0.311975 1.547394,-0.311975 0.873528,0 1.543234,0.311975 0.673864,0.311974 1.044074,0.877688 0.37021,0.565714 0.37021,1.306133 0,0.73626 -0.37021,1.301974 -0.37021,0.561554 -1.044074,0.873528 -0.669706,0.311975 -1.543234,0.311975 z M 81.141238,59.07973 q 0,0.440924 0.187184,0.765378 0.187185,0.320294 0.536596,0.494999 0.349412,0.174706 0.827773,0.174706 0.478361,0 0.823612,-0.174706 0.349412,-0.174705 0.536597,-0.494999 0.187184,-0.324454 0.187184,-0.765378 0,-0.440924 -0.187184,-0.765377 -0.187185,-0.324454 -0.536597,-0.499159 -0.349411,-0.174706 -0.823612,-0.174706 -0.478361,0 -0.827773,0.174706 -0.349411,0.174705 -0.536596,0.499159 -0.187184,0.324453 -0.187184,0.765377 z"
         id="path12307" /><path
         d="m 88.582869,56.712884 h 1.393487 v 2.961678 l 2.412602,-2.961678 h 1.514116 l -1.647225,1.917603 1.788654,2.81193 h -1.58899 l -1.081512,-1.784494 -1.534914,1.784494 h -1.256218 z"
         id="path12309" /><path
         d="m 96.960424,61.567207 q -0.873528,0 -1.547393,-0.311975 -0.669706,-0.311974 -1.039915,-0.873528 -0.37021,-0.565714 -0.37021,-1.301974 0,-0.740419 0.37021,-1.306133 0.370209,-0.565714 1.039915,-0.877688 0.673865,-0.311975 1.547393,-0.311975 0.873529,0 1.543234,0.311975 0.673865,0.311974 1.044075,0.877688 0.370209,0.565714 0.370209,1.306133 0,0.73626 -0.370209,1.301974 -0.37021,0.561554 -1.044075,0.873528 -0.669705,0.311975 -1.543234,0.311975 z M 95.408871,59.07973 q 0,0.440924 0.187185,0.765378 0.187184,0.320294 0.536596,0.494999 0.349411,0.174706 0.827772,0.174706 0.478361,0 0.823613,-0.174706 0.349411,-0.174705 0.536596,-0.494999 0.187185,-0.324454 0.187185,-0.765378 0,-0.440924 -0.187185,-0.765377 -0.187185,-0.324454 -0.536596,-0.499159 -0.349412,-0.174706 -0.823613,-0.174706 -0.478361,0 -0.827772,0.174706 -0.349412,0.174705 -0.536596,0.499159 -0.187185,0.324453 -0.187185,0.765377 z"
         id="path12311" /><path
         d="m 106.99769,62.607122 h -1.20215 v -1.164705 h -4.43003 v 1.164705 h -1.20215 v -2.212939 h 0.61979 q 0.24958,-0.282857 0.37021,-0.815293 0.12479,-0.532437 0.12479,-1.335251 0,-0.715462 -0.0957,-1.530755 h 4.94584 v 3.681299 h 0.86937 z m -2.25454,-2.192141 V 57.74448 h -2.23374 q 0.0374,0.316134 0.0374,0.773696 0,0.61563 -0.0998,1.09815 -0.0957,0.478361 -0.28702,0.798655 z"
         id="path12313" /><path
         d="m 111.84786,60.377544 q -0.35357,0.565714 -0.89433,0.877688 -0.5366,0.311975 -1.19382,0.311975 -0.68635,0 -1.22294,-0.311975 -0.5366,-0.311974 -0.83609,-0.877688 -0.29534,-0.565714 -0.29534,-1.297814 0,-0.736259 0.29534,-1.301973 0.29949,-0.569874 0.83193,-0.881848 0.53659,-0.311975 1.2271,-0.311975 0.65722,0 1.19382,0.311975 0.54076,0.307815 0.89849,0.873528 l 0.12063,-1.056553 h 1.43924 l -0.27454,2.362687 0.27454,2.366846 h -1.43924 z m -3.0324,-1.297814 q 0,0.407647 0.17055,0.727941 0.17055,0.320294 0.47004,0.499159 0.30366,0.178865 0.68635,0.178865 0.38684,0 0.73626,-0.178865 0.34941,-0.178865 0.61147,-0.495 0.26621,-0.320293 0.41596,-0.7321 -0.14975,-0.411806 -0.41596,-0.7321 -0.26206,-0.320294 -0.61147,-0.499159 -0.34942,-0.183025 -0.73626,-0.183025 -0.38269,0 -0.68635,0.183025 -0.29949,0.178865 -0.47004,0.503319 -0.17055,0.320294 -0.17055,0.72794 z"
         id="path12315" /><path
         d="m 117.85857,56.712884 v 1.796973 h 2.5873 v -1.796973 h 1.38517 v 4.729533 h -1.38517 v -1.884326 h -2.5873 v 1.884326 h -1.38517 v -4.729533 z"
         id="path12317" /><path
         d="m 125.54976,61.567207 q -0.84025,0 -1.50579,-0.311975 -0.66555,-0.316134 -1.03992,-0.881847 -0.37437,-0.569874 -0.37437,-1.310293 0,-0.727941 0.35773,-1.289495 0.35774,-0.565714 0.99416,-0.877688 0.63643,-0.311975 1.43925,-0.311975 0.80697,0 1.40596,0.361891 0.59899,0.357731 0.91929,1.023276 0.32445,0.661386 0.32445,1.543234 h -3.95168 q 0.15807,0.482521 0.61563,0.744579 0.45756,0.262059 1.16055,0.262059 0.53659,0 1.07735,-0.153908 0.54075,-0.153907 0.9692,-0.432604 v 0.931763 q -0.47004,0.332773 -1.09399,0.519958 -0.61979,0.183025 -1.29782,0.183025 z m 1.16887,-2.978317 q -0.12063,-0.470041 -0.45756,-0.72378 -0.33278,-0.257899 -0.83194,-0.257899 -0.52827,0 -0.886,0.266218 -0.35357,0.262059 -0.46588,0.715461 z"
         id="path12319" /><path
         d="m 133.43232,56.712884 v 1.064873 h -1.88017 v 3.66466 h -1.39349 v -3.66466 h -1.88016 v -1.064873 z"
         id="path12321" /><path
         d="m 141.39806,59.512335 q -0.0749,0.60731 -0.46172,1.073192 -0.38269,0.465882 -0.99832,0.723781 -0.61563,0.257899 -1.36021,0.257899 -0.83609,0 -1.48499,-0.311975 -0.64891,-0.316134 -1.0108,-0.877688 -0.35773,-0.565714 -0.35773,-1.297814 0,-0.7321 0.35773,-1.297814 0.36189,-0.565713 1.0108,-0.881847 0.6489,-0.316135 1.48499,-0.316135 0.74458,0 1.36021,0.257899 0.61563,0.257899 0.99832,0.727941 0.38685,0.470041 0.46172,1.077352 h -1.38932 q -0.10399,-0.474202 -0.49084,-0.74042 -0.38269,-0.266218 -0.94009,-0.266218 -0.44092,0 -0.76953,0.170546 -0.32446,0.170546 -0.50332,0.495 -0.17471,0.324453 -0.17471,0.773696 0,0.445084 0.17471,0.769537 0.17886,0.324454 0.50332,0.495 0.32861,0.170546 0.76953,0.170546 0.36605,0 0.66555,-0.12063 0.30366,-0.12479 0.49916,-0.353571 0.19966,-0.228782 0.26622,-0.528277 z"
         id="path12323" /><path
         d="m 143.54029,56.712884 v 1.060713 q 0.35773,-0.569873 0.89433,-0.877688 0.54076,-0.311975 1.20214,-0.311975 0.69051,0 1.22294,0.311975 0.5366,0.311974 0.83193,0.881848 0.2995,0.565714 0.2995,1.301973 0,0.7321 -0.2995,1.297814 -0.29533,0.565714 -0.83193,0.877688 -0.53659,0.311975 -1.22294,0.311975 -0.66138,0 -1.20214,-0.311975 -0.5366,-0.316134 -0.89433,-0.886007 v 2.44588 h -1.39348 v -6.102221 z m -0.0499,2.366846 q 0.14975,0.411807 0.4118,0.7321 0.26622,0.316135 0.61563,0.495 0.34942,0.178865 0.73626,0.178865 0.38269,0 0.68219,-0.178865 0.30365,-0.178865 0.4742,-0.499159 0.17055,-0.320294 0.17055,-0.727941 0,-0.407646 -0.17055,-0.72794 -0.17055,-0.324454 -0.4742,-0.503319 -0.2995,-0.183025 -0.68219,-0.183025 -0.38684,0 -0.73626,0.183025 -0.34941,0.178865 -0.61563,0.499159 -0.26205,0.320294 -0.4118,0.7321 z"
         id="path12325" /><path
         d="m 151.52269,61.567207 q -0.87353,0 -1.5474,-0.311975 -0.6697,-0.311974 -1.03991,-0.873528 -0.37021,-0.565714 -0.37021,-1.301974 0,-0.740419 0.37021,-1.306133 0.37021,-0.565714 1.03991,-0.877688 0.67387,-0.311975 1.5474,-0.311975 0.87353,0 1.54323,0.311975 0.67387,0.311974 1.04408,0.877688 0.37021,0.565714 0.37021,1.306133 0,0.73626 -0.37021,1.301974 -0.37021,0.561554 -1.04408,0.873528 -0.6697,0.311975 -1.54323,0.311975 z m -1.55156,-2.487477 q 0,0.440924 0.18719,0.765378 0.18718,0.320294 0.5366,0.494999 0.34941,0.174706 0.82777,0.174706 0.47836,0 0.82361,-0.174706 0.34941,-0.174705 0.5366,-0.494999 0.18718,-0.324454 0.18718,-0.765378 0,-0.440924 -0.18718,-0.765377 -0.18719,-0.324454 -0.5366,-0.499159 -0.34941,-0.174706 -0.82361,-0.174706 -0.47836,0 -0.82777,0.174706 -0.34942,0.174705 -0.5366,0.499159 -0.18719,0.324453 -0.18719,0.765377 z"
         id="path12327" /><path
         d="m 155.27886,56.712884 h 1.39348 v 2.961678 l 2.41261,-2.961678 h 1.51411 l -1.64722,1.917603 1.78865,2.81193 h -1.58899 l -1.08151,-1.784494 -1.53492,1.784494 h -1.25621 z"
         id="path12329" /><path
         d="m 165.19964,60.377544 q -0.35357,0.565714 -0.89433,0.877688 -0.53659,0.311975 -1.19382,0.311975 -0.68634,0 -1.22294,-0.311975 -0.53659,-0.311974 -0.83609,-0.877688 -0.29534,-0.565714 -0.29534,-1.297814 0,-0.736259 0.29534,-1.301973 0.2995,-0.569874 0.83193,-0.881848 0.5366,-0.311975 1.2271,-0.311975 0.65723,0 1.19382,0.311975 0.54076,0.307815 0.89849,0.873528 l 0.12063,-1.056553 h 1.43924 l -0.27453,2.362687 0.27453,2.366846 h -1.43924 z m -3.03239,-1.297814 q 0,0.407647 0.17054,0.727941 0.17055,0.320294 0.47005,0.499159 0.30365,0.178865 0.68634,0.178865 0.38685,0 0.73626,-0.178865 0.34941,-0.178865 0.61147,-0.495 0.26622,-0.320293 0.41597,-0.7321 -0.14975,-0.411806 -0.41597,-0.7321 -0.26206,-0.320294 -0.61147,-0.499159 -0.34941,-0.183025 -0.73626,-0.183025 -0.38269,0 -0.68634,0.183025 -0.2995,0.178865 -0.47005,0.503319 -0.17054,0.320294 -0.17054,0.72794 z"
         id="path12331" /><path
         d="m 173.75605,57.777757 h -2.53739 v 3.66466 h -1.39348 v -4.729533 h 3.93087 z"
         id="path12333" /><path
         d="m 176.91741,61.567207 q -0.87353,0 -1.54739,-0.311975 -0.66971,-0.311974 -1.03992,-0.873528 -0.37021,-0.565714 -0.37021,-1.301974 0,-0.740419 0.37021,-1.306133 0.37021,-0.565714 1.03992,-0.877688 0.67386,-0.311975 1.54739,-0.311975 0.87353,0 1.54323,0.311975 0.67387,0.311974 1.04408,0.877688 0.37021,0.565714 0.37021,1.306133 0,0.73626 -0.37021,1.301974 -0.37021,0.561554 -1.04408,0.873528 -0.6697,0.311975 -1.54323,0.311975 z m -1.55155,-2.487477 q 0,0.440924 0.18718,0.765378 0.18719,0.320294 0.5366,0.494999 0.34941,0.174706 0.82777,0.174706 0.47836,0 0.82361,-0.174706 0.34941,-0.174705 0.5366,-0.494999 0.18718,-0.324454 0.18718,-0.765378 0,-0.440924 -0.18718,-0.765377 -0.18719,-0.324454 -0.5366,-0.499159 -0.34941,-0.174706 -0.82361,-0.174706 -0.47836,0 -0.82777,0.174706 -0.34941,0.174705 -0.5366,0.499159 -0.18718,0.324453 -0.18718,0.765377 z"
         id="path12335" /><path
         d="m 186.95467,62.607122 h -1.20214 v -1.164705 h -4.43004 v 1.164705 h -1.20214 v -2.212939 h 0.61979 q 0.24958,-0.282857 0.37021,-0.815293 0.12479,-0.532437 0.12479,-1.335251 0,-0.715462 -0.0957,-1.530755 h 4.94583 v 3.681299 h 0.86937 z m -2.25453,-2.192141 V 57.74448 h -2.23374 q 0.0374,0.316134 0.0374,0.773696 0,0.61563 -0.0998,1.09815 -0.0957,0.478361 -0.28701,0.798655 z"
         id="path12337" /><path
         d="m 189.07194,56.712884 v 1.796973 h 2.58731 v -1.796973 h 1.38516 v 4.729533 h -1.38516 v -1.884326 h -2.58731 v 1.884326 h -1.38517 v -4.729533 z"
         id="path12339" /><path
         d="m 196.80058,61.567207 q -0.87353,0 -1.54739,-0.311975 -0.66971,-0.311974 -1.03992,-0.873528 -0.37021,-0.565714 -0.37021,-1.301974 0,-0.740419 0.37021,-1.306133 0.37021,-0.565714 1.03992,-0.877688 0.67386,-0.311975 1.54739,-0.311975 0.87353,0 1.54323,0.311975 0.67387,0.311974 1.04408,0.877688 0.37021,0.565714 0.37021,1.306133 0,0.73626 -0.37021,1.301974 -0.37021,0.561554 -1.04408,0.873528 -0.6697,0.311975 -1.54323,0.311975 z m -1.55155,-2.487477 q 0,0.440924 0.18718,0.765378 0.18719,0.320294 0.5366,0.494999 0.34941,0.174706 0.82777,0.174706 0.47836,0 0.82361,-0.174706 0.34941,-0.174705 0.5366,-0.494999 0.18718,-0.324454 0.18718,-0.765378 0,-0.440924 -0.18718,-0.765377 -0.18719,-0.324454 -0.5366,-0.499159 -0.34941,-0.174706 -0.82361,-0.174706 -0.47836,0 -0.82777,0.174706 -0.34941,0.174705 -0.5366,0.499159 -0.18718,0.324453 -0.18718,0.765377 z"
         id="path12341" /><path
         d="m 205.98927,59.512335 q -0.0749,0.60731 -0.46173,1.073192 -0.38268,0.465882 -0.99831,0.723781 -0.61563,0.257899 -1.36021,0.257899 -0.8361,0 -1.485,-0.311975 -0.64891,-0.316134 -1.0108,-0.877688 -0.35773,-0.565714 -0.35773,-1.297814 0,-0.7321 0.35773,-1.297814 0.36189,-0.565713 1.0108,-0.881847 0.6489,-0.316135 1.485,-0.316135 0.74458,0 1.36021,0.257899 0.61563,0.257899 0.99831,0.727941 0.38685,0.470041 0.46173,1.077352 h -1.38933 q -0.10399,-0.474202 -0.49084,-0.74042 -0.38269,-0.266218 -0.94008,-0.266218 -0.44093,0 -0.76954,0.170546 -0.32445,0.170546 -0.50332,0.495 -0.17471,0.324453 -0.17471,0.773696 0,0.445084 0.17471,0.769537 0.17887,0.324454 0.50332,0.495 0.32861,0.170546 0.76954,0.170546 0.36605,0 0.66554,-0.12063 0.30366,-0.12479 0.49916,-0.353571 0.19967,-0.228782 0.26622,-0.528277 z"
         id="path12343" /><path
         d="m 211.30947,56.712884 v 1.064873 h -1.88017 v 3.66466 h -1.39348 v -3.66466 h -1.88017 v -1.064873 z"
         id="path12345" /><path
         d="m 211.94173,56.712884 h 1.37269 v 3.431719 l 2.50827,-3.431719 h 1.78866 v 4.729533 h -1.36853 v -3.498274 l -2.55819,3.498274 h -1.7429 z"
         id="path12347" /><path
         d="m 222.8026,57.969101 v 1.114789 h -2.06319 v -1.114789 z"
         id="path12349" /><path
         d="m 51.478712,71.966357 q -0.873529,0 -1.547394,-0.311975 -0.669705,-0.311974 -1.039915,-0.873528 -0.370209,-0.565714 -0.370209,-1.301974 0,-0.740419 0.370209,-1.306133 0.37021,-0.565714 1.039915,-0.877688 0.673865,-0.311975 1.547394,-0.311975 0.873528,0 1.543234,0.311975 0.673865,0.311974 1.044074,0.877688 0.37021,0.565714 0.37021,1.306133 0,0.73626 -0.37021,1.301974 -0.370209,0.561554 -1.044074,0.873528 -0.669706,0.311975 -1.543234,0.311975 z M 49.927159,69.47888 q 0,0.440924 0.187184,0.765377 0.187185,0.320294 0.536597,0.495 0.349411,0.174706 0.827772,0.174706 0.478361,0 0.823613,-0.174706 0.349411,-0.174706 0.536596,-0.495 0.187184,-0.324453 0.187184,-0.765377 0,-0.440924 -0.187184,-0.765377 -0.187185,-0.324454 -0.536596,-0.49916 -0.349412,-0.174705 -0.823613,-0.174705 -0.478361,0 -0.827772,0.174705 -0.349412,0.174706 -0.536597,0.49916 -0.187184,0.324453 -0.187184,0.765377 z"
         id="path12351" /><path
         d="m 56.62005,67.112034 v 1.796973 h 2.587309 v -1.796973 h 1.385167 v 4.729533 H 59.207359 V 69.957241 H 56.62005 v 1.884326 h -1.385166 v -4.729533 z"
         id="path12353" /><path
         d="m 63.76634,67.112034 h 2.07983 l 1.501637,3.485795 1.480839,-3.485795 h 2.07983 v 4.729533 h -1.301973 v -3.606425 l -1.613948,3.606425 h -1.306134 l -1.613948,-3.593946 v 3.593946 H 63.76634 Z"
         id="path12355" /><path
         d="m 74.668802,71.966357 q -0.873529,0 -1.547393,-0.311975 -0.669706,-0.311974 -1.039915,-0.873528 -0.37021,-0.565714 -0.37021,-1.301974 0,-0.740419 0.37021,-1.306133 0.370209,-0.565714 1.039915,-0.877688 0.673864,-0.311975 1.547393,-0.311975 0.873529,0 1.543234,0.311975 0.673865,0.311974 1.044074,0.877688 0.37021,0.565714 0.37021,1.306133 0,0.73626 -0.37021,1.301974 -0.370209,0.561554 -1.044074,0.873528 -0.669705,0.311975 -1.543234,0.311975 z M 73.117249,69.47888 q 0,0.440924 0.187185,0.765377 0.187184,0.320294 0.536596,0.495 0.349411,0.174706 0.827772,0.174706 0.478361,0 0.823613,-0.174706 0.349411,-0.174706 0.536596,-0.495 0.187185,-0.324453 0.187185,-0.765377 0,-0.440924 -0.187185,-0.765377 -0.187185,-0.324454 -0.536596,-0.49916 -0.349412,-0.174705 -0.823613,-0.174705 -0.478361,0 -0.827772,0.174705 -0.349412,0.174706 -0.536596,0.49916 -0.187185,0.324453 -0.187185,0.765377 z"
         id="path12357" /><path
         d="m 79.377538,69.029637 -1.643066,-1.917603 h 1.572352 l 2.337728,2.93256 v -2.93256 h 1.368529 v 2.936719 l 2.337728,-2.936719 h 1.576511 l -1.647225,1.921762 1.784494,2.807771 h -1.609788 l -1.056554,-1.784494 -1.530755,1.784494 h -1.077351 l -1.526596,-1.780335 -1.060713,1.780335 h -1.609788 z"
         id="path12359" /><path
         d="m 89.951388,71.966357 q -0.840252,0 -1.505797,-0.311975 -0.665546,-0.316134 -1.039915,-0.881848 -0.37437,-0.569873 -0.37437,-1.310293 0,-0.72794 0.357731,-1.289494 0.357731,-0.565714 0.994159,-0.877688 0.636428,-0.311975 1.439242,-0.311975 0.806974,0 1.405965,0.36189 0.598991,0.357731 0.919285,1.023277 0.324454,0.661386 0.324454,1.543234 h -3.951677 q 0.158067,0.48252 0.615629,0.744579 0.457563,0.262058 1.160545,0.262058 0.536597,0 1.077352,-0.153907 0.540756,-0.153908 0.969201,-0.432605 v 0.931764 q -0.470041,0.332773 -1.09399,0.519958 -0.61979,0.183025 -1.297814,0.183025 z m 1.168864,-2.978317 q -0.12063,-0.470041 -0.457562,-0.723781 -0.332773,-0.257899 -0.831932,-0.257899 -0.528277,0 -0.886008,0.266219 -0.353571,0.262058 -0.465882,0.715461 z"
         id="path12361" /><path
         d="m 97.833939,67.112034 v 1.064872 h -1.880166 v 3.664661 h -1.393486 v -3.664661 h -1.880166 v -1.064872 z"
         id="path12363" /><path
         d="m 106.68985,73.006272 h -1.20214 v -1.164705 h -4.43004 v 1.164705 h -1.20214 v -2.212939 h 0.61979 q 0.24958,-0.282857 0.37021,-0.815294 0.12479,-0.532436 0.12479,-1.335251 0,-0.715461 -0.0957,-1.530754 h 4.94583 v 3.681299 h 0.86937 z m -2.25453,-2.192141 v -2.670502 h -2.23374 q 0.0374,0.316134 0.0374,0.773697 0,0.61563 -0.0998,1.09815 -0.0957,0.478361 -0.28701,0.798655 z"
         id="path12365" /><path
         d="m 110.01343,71.966357 q -0.87353,0 -1.5474,-0.311975 -0.6697,-0.311974 -1.03991,-0.873528 -0.37021,-0.565714 -0.37021,-1.301974 0,-0.740419 0.37021,-1.306133 0.37021,-0.565714 1.03991,-0.877688 0.67387,-0.311975 1.5474,-0.311975 0.87352,0 1.54323,0.311975 0.67386,0.311974 1.04407,0.877688 0.37021,0.565714 0.37021,1.306133 0,0.73626 -0.37021,1.301974 -0.37021,0.561554 -1.04407,0.873528 -0.66971,0.311975 -1.54323,0.311975 z m -1.55156,-2.487477 q 0,0.440924 0.18719,0.765377 0.18718,0.320294 0.53659,0.495 0.34941,0.174706 0.82778,0.174706 0.47836,0 0.82361,-0.174706 0.34941,-0.174706 0.53659,-0.495 0.18719,-0.324453 0.18719,-0.765377 0,-0.440924 -0.18719,-0.765377 -0.18718,-0.324454 -0.53659,-0.49916 -0.34941,-0.174705 -0.82361,-0.174705 -0.47837,0 -0.82778,0.174705 -0.34941,0.174706 -0.53659,0.49916 -0.18719,0.324453 -0.18719,0.765377 z"
         id="path12367" /><path
         d="m 119.09396,71.841567 h -1.39349 v -3.681299 h -2.53739 v 3.681299 h -1.39348 v -4.729533 h 5.32436 z"
         id="path12369" /><path
         d="m 122.85013,71.966357 q -0.87353,0 -1.5474,-0.311975 -0.6697,-0.311974 -1.03991,-0.873528 -0.37021,-0.565714 -0.37021,-1.301974 0,-0.740419 0.37021,-1.306133 0.37021,-0.565714 1.03991,-0.877688 0.67387,-0.311975 1.5474,-0.311975 0.87352,0 1.54323,0.311975 0.67386,0.311974 1.04407,0.877688 0.37021,0.565714 0.37021,1.306133 0,0.73626 -0.37021,1.301974 -0.37021,0.561554 -1.04407,0.873528 -0.66971,0.311975 -1.54323,0.311975 z m -1.55156,-2.487477 q 0,0.440924 0.18719,0.765377 0.18718,0.320294 0.53659,0.495 0.34942,0.174706 0.82778,0.174706 0.47836,0 0.82361,-0.174706 0.34941,-0.174706 0.53659,-0.495 0.18719,-0.324453 0.18719,-0.765377 0,-0.440924 -0.18719,-0.765377 -0.18718,-0.324454 -0.53659,-0.49916 -0.34941,-0.174705 -0.82361,-0.174705 -0.47836,0 -0.82778,0.174705 -0.34941,0.174706 -0.53659,0.49916 -0.18719,0.324453 -0.18719,0.765377 z"
         id="path12371" /><path
         d="m 132.18024,67.112034 v 4.729533 h -1.39348 v -3.681299 h -2.17135 q 0.0541,0.744579 0.0541,1.185503 0,0.915125 -0.17887,1.484998 -0.1747,0.565714 -0.54907,0.836092 -0.37021,0.270378 -0.9692,0.270378 -0.5158,0 -0.92761,-0.228781 V 70.70182 q 0.30366,0.12063 0.56156,0.12063 0.28701,0 0.46172,-0.170546 0.17887,-0.170546 0.2579,-0.532436 0.0832,-0.36605 0.0832,-0.965041 0,-0.819453 -0.12479,-2.042393 z"
         id="path12373" /><path
         d="m 134.60532,67.112034 v 1.796973 h 2.58731 v -1.796973 h 1.38517 v 4.729533 h -1.38517 v -1.884326 h -2.58731 v 1.884326 h -1.38516 v -4.729533 z"
         id="path12375" /><path
         d="m 140.6701,70.102829 q -0.56987,-0.137269 -0.89848,-0.519958 -0.32862,-0.382688 -0.32862,-0.931763 0,-0.453403 0.22463,-0.802815 0.22878,-0.349411 0.63642,-0.540755 0.41181,-0.195504 0.94841,-0.195504 h 3.3402 v 4.729533 h -1.38932 v -1.638906 h -1.0732 l -1.21878,1.638906 h -1.58483 z m 0.17887,-1.435083 q 0,0.287017 0.1955,0.457563 0.19967,0.170546 0.54076,0.170546 h 1.61811 v -1.247898 h -1.61811 q -0.34109,0 -0.54076,0.166386 -0.1955,0.166387 -0.1955,0.453403 z"
         id="path12377" /><path
         d="m 150.37874,67.112034 v 1.064872 h -1.88016 v 3.664661 h -1.39349 v -3.664661 h -1.88017 v -1.064872 z"
         id="path12379" /><path
         d="m 151.01101,67.112034 h 1.38933 v 1.360208 h 1.60563 q 0.59483,0 1.04407,0.212143 0.4534,0.207983 0.69882,0.590672 0.24958,0.382688 0.24958,0.881848 0,0.503318 -0.24958,0.886007 -0.24542,0.378529 -0.69466,0.590672 -0.44508,0.207983 -1.03159,0.207983 h -3.0116 z m 2.78281,3.735374 q 0.37437,0 0.58652,-0.187185 0.2163,-0.191344 0.2163,-0.519957 0,-0.328613 -0.2163,-0.515798 -0.21215,-0.191344 -0.58652,-0.191344 h -1.39348 v 1.414284 z"
         id="path12381" /><path
         d="m 162.10898,69.911485 q -0.0749,0.60731 -0.46172,1.073192 -0.38269,0.465882 -0.99832,0.723781 -0.61563,0.257899 -1.36021,0.257899 -0.83609,0 -1.485,-0.311975 -0.64891,-0.316134 -1.0108,-0.877688 -0.35773,-0.565714 -0.35773,-1.297814 0,-0.7321 0.35773,-1.297814 0.36189,-0.565714 1.0108,-0.881848 0.64891,-0.316134 1.485,-0.316134 0.74458,0 1.36021,0.257899 0.61563,0.257899 0.99832,0.72794 0.38684,0.470042 0.46172,1.077352 h -1.38933 q -0.10399,-0.474201 -0.49084,-0.740419 -0.38269,-0.266218 -0.94008,-0.266218 -0.44092,0 -0.76954,0.170546 -0.32445,0.170546 -0.50332,0.494999 -0.1747,0.324454 -0.1747,0.773697 0,0.445084 0.1747,0.769537 0.17887,0.324454 0.50332,0.495 0.32862,0.170546 0.76954,0.170546 0.36605,0 0.66555,-0.12063 0.30365,-0.12479 0.49915,-0.353572 0.19967,-0.228781 0.26622,-0.528276 z"
         id="path12383" /><path
         d="m 163.91012,70.102829 q -0.56988,-0.137269 -0.89849,-0.519958 -0.32861,-0.382688 -0.32861,-0.931763 0,-0.453403 0.22462,-0.802815 0.22878,-0.349411 0.63643,-0.540755 0.4118,-0.195504 0.9484,-0.195504 h 3.34021 v 4.729533 h -1.38933 v -1.638906 h -1.07319 l -1.21878,1.638906 h -1.58483 z m 0.17886,-1.435083 q 0,0.287017 0.19551,0.457563 0.19966,0.170546 0.54075,0.170546 h 1.61811 v -1.247898 h -1.61811 q -0.34109,0 -0.54075,0.166386 -0.19551,0.166387 -0.19551,0.453403 z"
         id="path12385" /><path
         d="m 171.16456,69.47472 -0.27038,-2.362686 h 3.63971 q 0.4534,0 0.78617,0.145588 0.33694,0.141428 0.5158,0.411806 0.17887,0.266218 0.17887,0.632268 0,0.36605 -0.20383,0.636428 -0.19966,0.266218 -0.58235,0.415966 0.53244,0.12063 0.80697,0.415966 0.27454,0.295336 0.27454,0.748739 0,0.403487 -0.20382,0.702982 -0.19967,0.299496 -0.57819,0.461723 -0.37437,0.158067 -0.88601,0.158067 h -3.74786 z m 1.27286,-0.428445 h 1.51411 q 0.33278,0 0.49916,-0.137268 0.17055,-0.141429 0.17055,-0.382689 0,-0.24126 -0.15391,-0.378529 -0.14975,-0.137269 -0.46172,-0.137269 h -1.69714 z m 1.78449,1.892646 q 0.69051,0 0.69051,-0.553235 0,-0.24958 -0.19551,-0.399327 -0.19134,-0.149748 -0.58651,-0.149748 h -1.68466 l -0.13311,1.10231 z"
         id="path12387" /><path
         d="m 182.52459,69.911485 q -0.0749,0.60731 -0.46172,1.073192 -0.38269,0.465882 -0.99832,0.723781 -0.61563,0.257899 -1.36021,0.257899 -0.83609,0 -1.485,-0.311975 -0.6489,-0.316134 -1.0108,-0.877688 -0.35773,-0.565714 -0.35773,-1.297814 0,-0.7321 0.35773,-1.297814 0.3619,-0.565714 1.0108,-0.881848 0.64891,-0.316134 1.485,-0.316134 0.74458,0 1.36021,0.257899 0.61563,0.257899 0.99832,0.72794 0.38685,0.470042 0.46172,1.077352 h -1.38933 q -0.10399,-0.474201 -0.49084,-0.740419 -0.38268,-0.266218 -0.94008,-0.266218 -0.44092,0 -0.76954,0.170546 -0.32445,0.170546 -0.50332,0.494999 -0.1747,0.324454 -0.1747,0.773697 0,0.445084 0.1747,0.769537 0.17887,0.324454 0.50332,0.495 0.32862,0.170546 0.76954,0.170546 0.36605,0 0.66555,-0.12063 0.30365,-0.12479 0.49916,-0.353572 0.19966,-0.228781 0.26621,-0.528276 z"
         id="path12389" /><path
         d="m 185.95215,71.966357 q -0.84025,0 -1.50579,-0.311975 -0.66555,-0.316134 -1.03992,-0.881848 -0.37437,-0.569873 -0.37437,-1.310293 0,-0.72794 0.35773,-1.289494 0.35773,-0.565714 0.99416,-0.877688 0.63643,-0.311975 1.43924,-0.311975 0.80698,0 1.40597,0.36189 0.59899,0.357731 0.91928,1.023277 0.32446,0.661386 0.32446,1.543234 h -3.95168 q 0.15807,0.48252 0.61563,0.744579 0.45756,0.262058 1.16055,0.262058 0.53659,0 1.07735,-0.153907 0.54075,-0.153908 0.9692,-0.432605 v 0.931764 q -0.47004,0.332773 -1.09399,0.519958 -0.61979,0.183025 -1.29782,0.183025 z m 1.16887,-2.978317 q -0.12063,-0.470041 -0.45756,-0.723781 -0.33278,-0.257899 -0.83194,-0.257899 -0.52827,0 -0.886,0.266219 -0.35357,0.262058 -0.46589,0.715461 z"
         id="path12391" /><path
         d="m 193.21076,68.176906 h -2.53739 v 3.664661 h -1.39349 v -4.729533 h 3.93088 z"
         id="path12393" /><path
         d="m 199.80382,73.006272 h -1.20214 v -1.164705 h -4.43004 v 1.164705 h -1.20214 v -2.212939 h 0.61979 q 0.24958,-0.282857 0.37021,-0.815294 0.12479,-0.532436 0.12479,-1.335251 0,-0.715461 -0.0957,-1.530754 h 4.94583 v 3.681299 h 0.86937 z m -2.25453,-2.192141 v -2.670502 h -2.23374 q 0.0374,0.316134 0.0374,0.773697 0,0.61563 -0.0998,1.09815 -0.0957,0.478361 -0.28701,0.798655 z"
         id="path12395" /><path
         d="m 204.65399,70.776694 q -0.35357,0.565714 -0.89432,0.877688 -0.5366,0.311975 -1.19383,0.311975 -0.68634,0 -1.22294,-0.311975 -0.53659,-0.311974 -0.83609,-0.877688 -0.29533,-0.565714 -0.29533,-1.297814 0,-0.73626 0.29533,-1.301974 0.2995,-0.569873 0.83194,-0.881847 0.53659,-0.311975 1.22709,-0.311975 0.65723,0 1.19383,0.311975 0.54075,0.307814 0.89848,0.873528 l 0.12063,-1.056553 h 1.43925 l -0.27454,2.362686 0.27454,2.366847 h -1.43925 z M 201.6216,69.47888 q 0,0.407647 0.17055,0.72794 0.17054,0.320294 0.47004,0.49916 0.30365,0.178865 0.68634,0.178865 0.38685,0 0.73626,-0.178865 0.34941,-0.178866 0.61147,-0.495 0.26622,-0.320294 0.41597,-0.7321 -0.14975,-0.411806 -0.41597,-0.7321 -0.26206,-0.320294 -0.61147,-0.499159 -0.34941,-0.183025 -0.73626,-0.183025 -0.38269,0 -0.68634,0.183025 -0.2995,0.178865 -0.47004,0.503319 -0.17055,0.320293 -0.17055,0.72794 z"
         id="path12397" /><path
         d="m 208.60151,65.602077 -0.22878,4.188777 h -0.98584 l -0.22878,-4.188777 z m -1.53075,5.557306 q 0,-0.220462 0.0998,-0.395168 0.10399,-0.174706 0.28702,-0.270378 0.18718,-0.09567 0.42428,-0.09567 0.2371,0 0.42013,0.09567 0.18302,0.09567 0.28285,0.270378 0.104,0.174706 0.104,0.395168 0,0.220462 -0.104,0.395167 -0.0998,0.170546 -0.28285,0.266219 -0.18303,0.09567 -0.42013,0.09567 -0.2371,0 -0.42428,-0.09567 -0.18303,-0.09567 -0.28702,-0.266219 -0.0998,-0.174705 -0.0998,-0.395167 z"
         id="path12399" /></g><path
       d="m 27.792778,38.926306 c 0,-0.113689 -0.08002,-0.211701 -0.191532,-0.234207 l -3.012995,-0.61028 c -0.129862,-0.2092 -0.304883,-0.384232 -0.514093,-0.514093 L 23.463707,34.55486 c -0.0225,-0.111358 -0.120522,-0.191534 -0.234207,-0.191534 -0.11369,0 -0.211702,0.08002 -0.234208,0.191534 l -0.61045,3.012866 c -0.2092,0.129862 -0.384232,0.304884 -0.514094,0.514093 l -3.012865,0.610451 c -0.111358,0.0225 -0.191534,0.120523 -0.191534,0.234207 0,0.113689 0.08002,0.211701 0.191534,0.234207 l 3.012865,0.610452 c 0.129862,0.2092 0.304717,0.384232 0.514094,0.514092 l 0.61045,3.012867 c 0.02251,0.111358 0.120523,0.191534 0.234208,0.191534 0.113689,0 0.211701,-0.08002 0.234207,-0.191534 l 0.610451,-3.012867 c 0.209201,-0.129862 0.384233,-0.304883 0.514093,-0.514092 l 3.012867,-0.610452 c 0.111518,-0.02267 0.1917,-0.120522 0.1917,-0.234373 z"
       id="path11996"
       style="fill:#1aae6e;fill-opacity:1;stroke:none;stroke-width:0.0426739" /><path
       d="m 19.765952,62.292318 -1.09308,-0.221436 c -0.04695,-0.07219 -0.108041,-0.133283 -0.180233,-0.180233 l -0.221436,-1.09308 c -0.0111,-0.05493 -0.05945,-0.09447 -0.115524,-0.09447 -0.05608,0 -0.104423,0.03947 -0.115524,0.09447 l -0.221436,1.092996 c -0.07219,0.04695 -0.133283,0.10804 -0.180234,0.180233 l -1.093079,0.221436 c -0.05493,0.0111 -0.09447,0.05945 -0.09447,0.115524 0,0.05608 0.03947,0.104423 0.09447,0.115524 l 1.093079,0.221437 c 0.04695,0.07219 0.108041,0.133283 0.180234,0.180233 l 0.221436,1.09308 c 0.0111,0.05493 0.05945,0.09447 0.115524,0.09447 0.05608,0 0.104422,-0.03947 0.115524,-0.09447 l 0.221436,-1.09308 c 0.07219,-0.04695 0.133283,-0.108041 0.180233,-0.180233 l 1.09308,-0.221437 c 0.05501,-0.0111 0.09447,-0.05945 0.09447,-0.115524 0,-0.056 -0.03955,-0.104341 -0.09447,-0.115442 z"
       id="path11998"
       style="fill:#1aae6e;fill-opacity:1;stroke:none;stroke-width:0.0210491" /><path
       d="M 41.857262,66.033033 40.16731,65.690689 C 40.09509,65.579068 40.000312,65.484626 39.888651,65.412042 L 39.546327,63.72211 c -0.01667,-0.08489 -0.09222,-0.146062 -0.178552,-0.146062 -0.08666,0 -0.161438,0.061 -0.17866,0.146062 l -0.342324,1.689797 c -0.111667,0.07255 -0.206107,0.167041 -0.278658,0.278647 l -1.689956,0.342347 c -0.08444,0.01722 -0.145994,0.09189 -0.145994,0.178605 0,0.08667 0.06111,0.161441 0.145994,0.178607 l 1.689956,0.342345 c 0.07222,0.111608 0.166991,0.206051 0.278658,0.278638 l 0.342324,1.689929 c 0.01666,0.08489 0.09222,0.146064 0.17866,0.146064 0.08666,0 0.161441,-0.061 0.178552,-0.146064 l 0.342324,-1.689929 c 0.111661,-0.07256 0.206107,-0.16703 0.278659,-0.278638 l 1.689952,-0.342345 c 0.08444,-0.01711 0.145997,-0.09189 0.145997,-0.178607 0,-0.08655 -0.06111,-0.161318 -0.145997,-0.178482 z"
       id="path11998-6"
       style="fill:#1aae6e;fill-opacity:1;stroke:none;stroke-width:0.0325424" /><path
       d="m 41.599403,45.847419 -1.337219,-0.270923 c -0.05709,-0.08592 -0.130312,-0.159145 -0.216235,-0.216235 l -0.270923,-1.337219 c -0.01544,-0.07643 -0.08272,-0.131458 -0.160747,-0.131458 -0.07803,0 -0.1453,0.05492 -0.160747,0.131458 l -0.270923,1.337219 c -0.08592,0.05709 -0.159145,0.130312 -0.216235,0.216235 l -1.337219,0.270923 c -0.07643,0.01544 -0.131458,0.08272 -0.131458,0.160747 0,0.07803 0.05492,0.1453 0.131458,0.160747 l 1.337219,0.270923 c 0.05709,0.08592 0.130313,0.159145 0.216235,0.216235 l 0.270923,1.337219 c 0.01545,0.07643 0.08272,0.131458 0.160747,0.131458 0.07803,0 0.1453,-0.05492 0.160747,-0.131458 l 0.270923,-1.337219 c 0.08592,-0.05709 0.159145,-0.130313 0.216235,-0.216235 l 1.337219,-0.270923 c 0.07643,-0.01545 0.131458,-0.08272 0.131458,-0.160747 0,-0.07791 -0.05492,-0.145186 -0.131458,-0.160747 z"
       id="path12000"
       style="fill:#1aae6e;fill-opacity:1;stroke:none;stroke-width:0.029289" /></g></svg>
