<?xml version="1.0" encoding="UTF-8" standalone="no"?>
<!-- Created with Inkscape (http://www.inkscape.org/) -->

<svg
   width="224.93739mm"
   height="69.234001mm"
   viewBox="0 0 224.93739 69.234001"
   version="1.1"
   id="svg5"
   xml:space="preserve"
   inkscape:export-filename="finished.svg"
   inkscape:export-xdpi="96"
   inkscape:export-ydpi="96"
   sodipodi:docname="status-template.svg"
   inkscape:version="1.2.2 (b0a8486541, 2022-12-01)"
   xmlns:inkscape="http://www.inkscape.org/namespaces/inkscape"
   xmlns:sodipodi="http://sodipodi.sourceforge.net/DTD/sodipodi-0.dtd"
   xmlns="http://www.w3.org/2000/svg"
   xmlns:svg="http://www.w3.org/2000/svg"><sodipodi:namedview
     id="namedview7"
     pagecolor="#00212e"
     bordercolor="#000000"
     borderopacity="0.25"
     inkscape:showpageshadow="2"
     inkscape:pageopacity="1"
     inkscape:pagecheckerboard="0"
     inkscape:deskcolor="#d1d1d1"
     inkscape:document-units="mm"
     showgrid="false"
     inkscape:zoom="0.92198806"
     inkscape:cx="320.50307"
     inkscape:cy="259.22245"
     inkscape:window-width="1920"
     inkscape:window-height="1131"
     inkscape:window-x="0"
     inkscape:window-y="0"
     inkscape:window-maximized="1"
     inkscape:current-layer="layer1" /><defs
     id="defs2" /><g
     inkscape:label="Layer 1"
     inkscape:groupmode="layer"
     id="layer1"
     transform="translate(-12.546532,-9.3468567)"><g
       aria-label="Статус проекта"
       id="text202"
       style="font-weight:500;font-size:15.4622px;font-family:Unbounded;-inkscape-font-specification:'Unbounded Medium';fill:#ffff00;fill-opacity:0;stroke-width:11.5963;stroke-linecap:round;stroke-linejoin:round"><path
         d="m 32.188891,22.990543 q -0.170084,1.468909 -1.028236,2.597649 -0.858152,1.12101 -2.265213,1.739498 -1.40706,0.618488 -3.185213,0.618488 -1.97143,0 -3.478995,-0.749917 -1.499833,-0.757648 -2.327061,-2.126052 -0.827228,-1.368405 -0.827228,-3.154289 0,-1.785884 0.827228,-3.154289 0.827228,-1.368405 2.327061,-2.118321 1.507565,-0.757648 3.478995,-0.757648 1.778153,0 3.185213,0.618488 1.407061,0.618488 2.265213,1.747228 0.858152,1.12101 1.028236,2.589919 H 29.552586 Q 29.390233,20.0218 28.87998,19.426506 28.377459,18.82348 27.565693,18.506505 q -0.811765,-0.324707 -1.863195,-0.324707 -1.213783,0 -2.11059,0.456135 -0.889077,0.456135 -1.376136,1.298825 -0.479328,0.84269 -0.479328,1.979162 0,1.136471 0.479328,1.979161 0.487059,0.84269 1.376136,1.298825 0.896807,0.456135 2.11059,0.456135 1.592607,0 2.59765,-0.695799 1.012774,-0.695799 1.252438,-1.963699 z"
         style="fill:#23dd83;fill-opacity:1"
         id="path6449" /><path
         d="m 42.363012,18.923984 v 1.979162 h -3.494457 v 6.811099 h -2.589919 v -6.811099 h -3.494457 v -1.979162 z"
         style="fill:#23dd83;fill-opacity:1"
         id="path6451" /><path
         d="m 51.068218,25.735083 q -0.657143,1.05143 -1.662186,1.631262 -0.997312,0.579833 -2.218826,0.579833 -1.275632,0 -2.272944,-0.579833 -0.997312,-0.579832 -1.553951,-1.631262 -0.548908,-1.051429 -0.548908,-2.412103 0,-1.368405 0.548908,-2.419834 0.556639,-1.059161 1.54622,-1.638994 0.997312,-0.579832 2.280675,-0.579832 1.221514,0 2.218826,0.579832 1.005043,0.572102 1.669917,1.623531 l 0.224202,-1.963699 h 2.674961 l -0.510253,4.391265 0.510253,4.398996 H 51.300151 Z M 45.432246,23.32298 q 0,0.757648 0.316975,1.352943 0.316975,0.595294 0.873614,0.927732 0.564371,0.332437 1.275632,0.332437 0.718992,0 1.368405,-0.332437 0.649412,-0.332438 1.136471,-0.920001 0.494791,-0.595295 0.77311,-1.360674 -0.278319,-0.765379 -0.77311,-1.360674 -0.487059,-0.595294 -1.136471,-0.927732 -0.649413,-0.340168 -1.368405,-0.340168 -0.711261,0 -1.275632,0.340168 -0.556639,0.332438 -0.873614,0.935463 -0.316975,0.595295 -0.316975,1.352943 z"
         style="fill:#23dd83;fill-opacity:1"
         id="path6453" /><path
         d="m 64.520325,18.923984 v 1.979162 h -3.494458 v 6.811099 h -2.589918 v -6.811099 h -3.494457 v -1.979162 z"
         style="fill:#23dd83;fill-opacity:1"
         id="path6455" /><path
         d="m 68.200323,30.497441 q -0.858152,0 -1.553951,-0.20874 -0.695799,-0.20874 -1.329749,-0.641681 v -1.863195 q 0.672606,0.42521 1.252438,0.603026 0.579833,0.185546 1.283363,0.185546 0.672605,0 1.151934,-0.301513 0.487059,-0.293782 0.788572,-0.989581 l 0.05412,-0.115966 h -1.090085 l -3.888743,-8.241353 h 2.845045 l 2.852776,6.594628 2.891431,-6.594628 h 2.744541 l -4.383534,9.184547 q -0.587564,1.252438 -1.523027,1.816808 -0.935463,0.572102 -2.095128,0.572102 z"
         style="fill:#23dd83;fill-opacity:1"
         id="path6457" /><path
         d="m 86.847737,24.127014 q -0.13916,1.128741 -0.858152,1.994624 -0.711262,0.865883 -1.855464,1.345212 -1.144203,0.479328 -2.52807,0.479328 -1.553951,0 -2.760003,-0.579833 -1.206051,-0.587563 -1.878657,-1.631262 -0.664875,-1.051429 -0.664875,-2.412103 0,-1.360674 0.664875,-2.412103 0.672606,-1.05143 1.878657,-1.638993 1.206052,-0.587564 2.760003,-0.587564 1.383867,0 2.52807,0.479328 1.144202,0.479328 1.855464,1.352943 0.718992,0.873614 0.858152,2.002355 H 84.265549 Q 84.072272,21.6376 83.35328,21.14281 q -0.711262,-0.494791 -1.747229,-0.494791 -0.819497,0 -1.430254,0.316975 -0.603025,0.316976 -0.935463,0.920001 -0.324706,0.603026 -0.324706,1.437985 0,0.827228 0.324706,1.430254 0.332438,0.603025 0.935463,0.92 0.610757,0.316976 1.430254,0.316976 0.680337,0 1.236976,-0.224202 0.56437,-0.231933 0.927732,-0.657144 0.371093,-0.42521 0.49479,-0.98185 z"
         style="fill:#23dd83;fill-opacity:1"
         id="path6459" /><path
         d="m 102.1012,27.714245 h -2.589915 v -6.842024 h -4.715971 v 6.842024 h -2.589919 v -8.790261 h 9.895805 z"
         style="fill:#23dd83;fill-opacity:1"
         id="path6461" /><path
         d="m 106.62389,18.923984 v 1.971431 q 0.66487,-1.059161 1.66219,-1.631263 1.00504,-0.579832 2.23428,-0.579832 1.28337,0 2.27295,0.579832 0.99731,0.579833 1.54622,1.638994 0.55664,1.051429 0.55664,2.419834 0,1.360674 -0.55664,2.412103 -0.54891,1.05143 -1.54622,1.631262 -0.99731,0.579833 -2.27295,0.579833 -1.22924,0 -2.23428,-0.579833 -0.99732,-0.587563 -1.66219,-1.646724 v 4.545887 h -2.58992 V 18.923984 Z m -0.0928,4.398996 q 0.27832,0.765379 0.76537,1.360674 0.4948,0.587563 1.14421,0.920001 0.64941,0.332437 1.3684,0.332437 0.71126,0 1.2679,-0.332437 0.56437,-0.332438 0.88135,-0.927732 0.31697,-0.595295 0.31697,-1.352943 0,-0.757648 -0.31697,-1.352943 -0.31698,-0.603025 -0.88135,-0.935463 -0.55664,-0.340168 -1.2679,-0.340168 -0.71899,0 -1.3684,0.340168 -0.64941,0.332438 -1.14421,0.927732 -0.48705,0.595295 -0.76537,1.360674 z"
         style="fill:#23dd83;fill-opacity:1"
         id="path6463" /><path
         d="m 121.45988,27.946178 q -1.62353,0 -2.87597,-0.579833 -1.2447,-0.579832 -1.93277,-1.623531 -0.68807,-1.051429 -0.68807,-2.419834 0,-1.376136 0.68807,-2.427565 0.68807,-1.05143 1.93277,-1.631263 1.25244,-0.579832 2.87597,-0.579832 1.62353,0 2.86824,0.579832 1.25244,0.579833 1.94051,1.631263 0.68806,1.051429 0.68806,2.427565 0,1.368405 -0.68806,2.419834 -0.68807,1.043699 -1.94051,1.623531 -1.24471,0.579833 -2.86824,0.579833 z m -2.8837,-4.623198 q 0,0.819497 0.3479,1.422522 0.3479,0.595295 0.99731,0.920001 0.64941,0.324707 1.53849,0.324707 0.88908,0 1.53076,-0.324707 0.64941,-0.324706 0.99731,-0.920001 0.3479,-0.603025 0.3479,-1.422522 0,-0.819497 -0.3479,-1.422522 -0.3479,-0.603026 -0.99731,-0.927732 -0.64941,-0.324707 -1.53076,-0.324707 -0.88908,0 -1.53849,0.324707 -0.64941,0.324706 -0.99731,0.927732 -0.3479,0.603025 -0.3479,1.422522 z"
         style="fill:#23dd83;fill-opacity:1"
         id="path6465" /><path
         d="m 133.41989,27.946178 q -1.56168,0 -2.79866,-0.579833 -1.23698,-0.587563 -1.93277,-1.638993 -0.6958,-1.059161 -0.6958,-2.435296 0,-1.352943 0.66487,-2.396641 0.66488,-1.05143 1.84773,-1.631263 1.18286,-0.579832 2.67496,-0.579832 1.49984,0 2.61312,0.672606 1.11327,0.664874 1.70857,1.90185 0.60302,1.229245 0.60302,2.868238 h -7.34454 q 0.29378,0.896808 1.1442,1.383867 0.85042,0.48706 2.15698,0.48706 0.99731,0 2.00235,-0.286051 1.00505,-0.286051 1.80135,-0.804034 v 1.731766 q -0.87361,0.618488 -2.03328,0.966387 -1.15193,0.340169 -2.4121,0.340169 z m 2.17244,-5.535468 q -0.2242,-0.873614 -0.85042,-1.345211 -0.61849,-0.479328 -1.54622,-0.479328 -0.98185,0 -1.64673,0.49479 -0.65714,0.487059 -0.86588,1.329749 z"
         style="fill:#23dd83;fill-opacity:1"
         id="path6467" /><path
         d="m 139.60477,18.923984 h 2.58992 v 5.504543 l 4.48404,-5.504543 h 2.81412 l -3.06152,3.564037 3.32438,5.226224 h -2.95328 l -2.01009,-3.316642 -2.85278,3.316642 h -2.33479 z"
         style="fill:#23dd83;fill-opacity:1"
         id="path6469" /><path
         d="m 159.44277,18.923984 v 1.979162 h -3.49446 v 6.811099 h -2.58991 v -6.811099 h -3.49446 v -1.979162 z"
         style="fill:#23dd83;fill-opacity:1"
         id="path6471" /><path
         d="m 168.14798,25.735083 q -0.65714,1.05143 -1.66219,1.631262 -0.99731,0.579833 -2.21882,0.579833 -1.27563,0 -2.27295,-0.579833 -0.99731,-0.579832 -1.55395,-1.631262 -0.54891,-1.051429 -0.54891,-2.412103 0,-1.368405 0.54891,-2.419834 0.55664,-1.059161 1.54622,-1.638994 0.99731,-0.579832 2.28068,-0.579832 1.22151,0 2.21882,0.579832 1.00505,0.572102 1.66992,1.623531 l 0.2242,-1.963699 h 2.67496 l -0.51025,4.391265 0.51025,4.398996 h -2.67496 z m -5.63597,-2.412103 q 0,0.757648 0.31697,1.352943 0.31698,0.595294 0.87362,0.927732 0.56437,0.332437 1.27563,0.332437 0.71899,0 1.3684,-0.332437 0.64942,-0.332438 1.13647,-0.920001 0.4948,-0.595295 0.77311,-1.360674 -0.27831,-0.765379 -0.77311,-1.360674 -0.48705,-0.595294 -1.13647,-0.927732 -0.64941,-0.340168 -1.3684,-0.340168 -0.71126,0 -1.27563,0.340168 -0.55664,0.332438 -0.87362,0.935463 -0.31697,0.595295 -0.31697,1.352943 z"
         style="fill:#23dd83;fill-opacity:1"
         id="path6473" /></g><g
       aria-label="Завершён"
       id="text202-3"
       style="font-weight:500;font-size:13.0738px;font-family:Unbounded;-inkscape-font-specification:'Unbounded Medium';fill:#1aae6e;stroke-width:9.80506;stroke-linecap:round;stroke-linejoin:round"><path
         d="m 53.583725,48.687162 q -1.49695,0 -2.627834,-0.424899 -1.124347,-0.424898 -1.764963,-1.209326 -0.634079,-0.784428 -0.686374,-1.836869 H 50.7271 q 0.111127,0.849797 0.836723,1.300843 0.732133,0.444509 2.019902,0.444509 1.242011,0 1.908775,-0.366066 0.6733,-0.366067 0.6733,-1.072052 0,-0.621006 -0.575247,-0.908629 -0.56871,-0.294161 -1.823795,-0.294161 h -1.87609 v -1.503487 h 1.836869 q 1.085125,0 1.640762,-0.339919 0.555636,-0.346455 0.555636,-0.928239 0,-0.640617 -0.621005,-0.987072 -0.614469,-0.346456 -1.693058,-0.346456 -1.176642,0 -1.869553,0.431435 -0.692911,0.431436 -0.823649,1.222401 h -2.202936 q 0.07844,-0.954388 0.686375,-1.719205 0.607932,-0.771354 1.712668,-1.215863 1.104736,-0.44451 2.601686,-0.44451 1.340064,0 2.353284,0.346456 1.013219,0.339919 1.562319,0.960924 0.555636,0.621006 0.555636,1.425045 0,0.804038 -0.536025,1.405433 -0.529489,0.594858 -1.58193,0.856334 1.13742,0.18957 1.751889,0.745207 0.621006,0.555636 0.621006,1.451192 0,0.895555 -0.575248,1.575392 -0.56871,0.679838 -1.666909,1.058978 -1.091662,0.372604 -2.61476,0.372604 z"
         id="path6476" /><path
         d="m 66.422192,46.817608 q -0.555637,0.889019 -1.405434,1.379286 -0.84326,0.490268 -1.87609,0.490268 -1.078589,0 -1.921849,-0.490268 -0.84326,-0.490267 -1.313917,-1.379286 -0.464119,-0.889018 -0.464119,-2.039513 0,-1.157031 0.464119,-2.046049 0.470657,-0.895556 1.30738,-1.385823 0.843261,-0.490268 1.928386,-0.490268 1.03283,0 1.87609,0.490268 0.849797,0.48373 1.411971,1.372749 l 0.18957,-1.660373 h 2.261767 l -0.431435,3.712959 0.431435,3.719497 h -2.261767 z m -4.7654,-2.039513 q 0,0.640617 0.268013,1.143958 0.268012,0.503341 0.738669,0.784428 0.477194,0.281087 1.078589,0.281087 0.607931,0 1.157031,-0.281087 0.5491,-0.281087 0.960924,-0.777891 0.418362,-0.503342 0.65369,-1.150495 -0.235328,-0.647153 -0.65369,-1.150494 -0.411824,-0.503341 -0.960924,-0.784428 -0.5491,-0.287624 -1.157031,-0.287624 -0.601395,0 -1.078589,0.287624 -0.470657,0.281087 -0.738669,0.790965 -0.268013,0.503341 -0.268013,1.143957 z"
         id="path6478" /><path
         d="m 70.58619,44.771558 -0.424898,-3.712959 h 5.719787 q 0.712523,0 1.235475,0.228792 0.529488,0.222254 0.810575,0.647153 0.281087,0.418361 0.281087,0.993609 0,0.575247 -0.320308,1.000145 -0.313771,0.418362 -0.915166,0.65369 0.836723,0.18957 1.268158,0.65369 0.431436,0.46412 0.431436,1.176642 0,0.63408 -0.320308,1.104736 -0.313772,0.470657 -0.908629,0.725596 -0.588321,0.248403 -1.39236,0.248403 h -5.889747 z m 2.000292,-0.6733 h 2.379431 q 0.522952,0 0.784428,-0.215718 0.268013,-0.222255 0.268013,-0.601395 0,-0.37914 -0.241865,-0.594858 -0.235328,-0.215717 -0.725596,-0.215717 h -2.667055 z m 2.80433,2.974289 q 1.085125,0 1.085125,-0.869407 0,-0.392214 -0.307234,-0.627543 Q 75.868006,45.340269 75.247,45.340269 h -2.647444 l -0.209181,1.732278 z"
         id="path6480" /><path
         d="m 84.111044,48.687162 q -1.320454,0 -2.366358,-0.490268 -1.045904,-0.496804 -1.634225,-1.385823 -0.588321,-0.895555 -0.588321,-2.059123 0,-1.143958 0.562173,-2.026439 0.562174,-0.889019 1.562319,-1.379286 1.000146,-0.490268 2.261768,-0.490268 1.268158,0 2.209472,0.568711 0.941314,0.562173 1.444655,1.608077 0.509878,1.039367 0.509878,2.42519 H 81.86235 q 0.248402,0.75828 0.967461,1.170105 0.719059,0.411825 1.823795,0.411825 0.84326,0 1.693057,-0.241866 0.849797,-0.241865 1.523098,-0.679837 v 1.464265 q -0.73867,0.522952 -1.719205,0.817113 -0.973998,0.287624 -2.039512,0.287624 z m 1.836869,-4.680421 q -0.189571,-0.73867 -0.719059,-1.137421 -0.522952,-0.405287 -1.30738,-0.405287 -0.830187,0 -1.39236,0.418361 -0.555637,0.411825 -0.732133,1.124347 z"
         id="path6482" /><path
         d="m 91.530427,41.058599 v 1.66691 q 0.562173,-0.895556 1.405433,-1.379286 0.849797,-0.490268 1.889164,-0.490268 1.085126,0 1.921849,0.490268 0.84326,0.490267 1.30738,1.385823 0.470657,0.889018 0.470657,2.046049 0,1.150495 -0.470657,2.039513 -0.46412,0.889019 -1.30738,1.379286 -0.84326,0.490268 -1.921849,0.490268 -1.039367,0 -1.889164,-0.490268 -0.84326,-0.496804 -1.405433,-1.39236 v 3.843698 h -2.189862 v -9.589633 z m -0.07844,3.719496 q 0.235328,0.647153 0.647153,1.150495 0.418362,0.496804 0.967461,0.777891 0.5491,0.281087 1.157032,0.281087 0.601394,0 1.072051,-0.281087 0.477194,-0.281087 0.745207,-0.784428 0.268013,-0.503341 0.268013,-1.143958 0,-0.640616 -0.268013,-1.143957 -0.268013,-0.509878 -0.745207,-0.790965 -0.470657,-0.287624 -1.072051,-0.287624 -0.607932,0 -1.157032,0.287624 -0.549099,0.281087 -0.967461,0.784428 -0.411825,0.503341 -0.647153,1.150494 z"
         id="path6484" /><path
         d="m 99.806157,41.058599 h 2.189863 v 5.785157 h 3.40572 v -5.785157 h 2.18986 v 5.785157 h 3.40573 v -5.785157 h 2.18986 v 7.432456 H 99.806157 Z"
         id="path6486" /><path
         d="m 119.03119,48.687162 q -1.32046,0 -2.36636,-0.490268 -1.04591,-0.496804 -1.63423,-1.385823 -0.58832,-0.895555 -0.58832,-2.059123 0,-1.143958 0.56218,-2.026439 0.56217,-0.889019 1.56232,-1.379286 1.00014,-0.490268 2.26176,-0.490268 1.26816,0 2.20948,0.568711 0.94131,0.562173 1.44465,1.608077 0.50988,1.039367 0.50988,2.42519 h -6.21006 q 0.24841,0.75828 0.96746,1.170105 0.71906,0.411825 1.8238,0.411825 0.84326,0 1.69306,-0.241866 0.84979,-0.241865 1.52309,-0.679837 v 1.464265 q -0.73867,0.522952 -1.7192,0.817113 -0.974,0.287624 -2.03951,0.287624 z m -3.43188,-9.576559 q 0,-0.483731 0.33992,-0.777891 0.34646,-0.294161 0.91517,-0.294161 0.56217,0 0.90863,0.294161 0.34645,0.29416 0.34645,0.777891 0,0.503341 -0.34645,0.797502 -0.33992,0.29416 -0.90863,0.29416 -0.57525,0 -0.91517,-0.29416 -0.33992,-0.294161 -0.33992,-0.797502 z m 5.26875,4.896138 q -0.18957,-0.73867 -0.71906,-1.137421 -0.52296,-0.405287 -1.30738,-0.405287 -0.83019,0 -1.39236,0.418361 -0.55564,0.411825 -0.73214,1.124347 z m -1.35968,-4.896138 q 0,-0.483731 0.34646,-0.777891 0.34645,-0.294161 0.90863,-0.294161 0.56217,0 0.90209,0.294161 0.34645,0.29416 0.34645,0.777891 0,0.503341 -0.34645,0.797502 -0.33992,0.29416 -0.90209,0.29416 -0.56872,0 -0.91517,-0.29416 -0.33992,-0.294161 -0.33992,-0.797502 z"
         id="path6488" /><path
         d="m 126.4375,41.058599 v 2.823941 h 4.06595 v -2.823941 h 2.17679 v 7.432456 h -2.17679 v -2.961216 h -4.06595 v 2.961216 h -2.17679 v -7.432456 z"
         id="path6490" /></g><path
       d="m 20.565545,57.223786 h 7.578464 l -2.21976,13.077652 c -0.07668,0.438645 0.04734,0.888647 0.338607,1.22601 0.290959,0.337347 0.717921,0.526055 1.163158,0.514066 0.445268,-0.01168 0.861502,-0.222792 1.134155,-0.575287 l 12.621212,-16.131366 3.2e-4,3.21e-4 c 0.23163,-0.294111 0.343657,-0.664596 0.313677,-1.037294 -0.02966,-0.373006 -0.199122,-0.721081 -0.474618,-0.974442 -0.275497,-0.253086 -0.636191,-0.393202 -1.010473,-0.391627 h -7.57846 l 2.219759,-13.07765 c 0.07637,-0.438644 -0.04797,-0.888647 -0.338921,-1.225686 -0.290959,-0.337032 -0.717922,-0.525425 -1.163159,-0.513751 -0.444953,0.01199 -0.86118,0.223107 -1.133832,0.574971 L 19.394462,54.821069 c -0.230999,0.29411 -0.342711,0.664281 -0.312731,1.036971 0.02998,0.372375 0.19976,0.720135 0.474619,0.97323 0.275174,0.253086 0.63556,0.392887 1.009502,0.391942 z"
       id="path40"
       style="fill:#1aae6e;fill-opacity:1;stroke:none;stroke-width:0.0807861" /><g
       aria-label="Этот код полностью дописан
и готов к использованию."
       id="text1463"
       style="font-weight:500;font-size:8.31932px;font-family:Unbounded;-inkscape-font-specification:'Unbounded Medium';fill:#127f59;stroke-width:6.2393;stroke-linecap:round;stroke-linejoin:round"><path
         d="m 52.027787,61.567207 q -0.948402,0 -1.71378,-0.324454 -0.761218,-0.324453 -1.235419,-0.910965 -0.470041,-0.586512 -0.574033,-1.351889 h 1.405965 q 0.08319,0.436764 0.361891,0.752898 0.278697,0.316134 0.72378,0.48668 0.449244,0.166387 1.023277,0.166387 0.590671,0 1.044074,-0.187185 0.457563,-0.187185 0.744579,-0.540756 0.291177,-0.357731 0.382689,-0.85273 h -3.219577 v -0.965041 h 3.219577 q -0.09151,-0.495 -0.382689,-0.848571 -0.287016,-0.357731 -0.744579,-0.544915 -0.453403,-0.187185 -1.044074,-0.187185 -0.569874,0 -1.014957,0.170546 -0.445084,0.166386 -0.727941,0.482521 -0.278697,0.316134 -0.36605,0.752898 h -1.405965 q 0.103992,-0.765377 0.574033,-1.351889 0.474201,-0.586513 1.235419,-0.910966 0.765378,-0.324453 1.71378,-0.324453 1.069033,0 1.884326,0.407646 0.819453,0.403487 1.268696,1.139747 0.453403,0.73626 0.453403,1.697141 0,0.960882 -0.453403,1.697141 -0.449243,0.73626 -1.268696,1.143907 -0.815293,0.403487 -1.884326,0.403487 z"
         id="path6493" /><path
         d="m 61.149913,56.712884 v 1.064873 h -1.880167 v 3.66466 H 57.87626 v -3.66466 h -1.880166 v -1.064873 z"
         id="path6495" /><path
         d="m 64.32373,61.567207 q -0.873528,0 -1.547393,-0.311975 -0.669705,-0.311974 -1.039915,-0.873528 -0.37021,-0.565714 -0.37021,-1.301974 0,-0.740419 0.37021,-1.306133 0.37021,-0.565714 1.039915,-0.877688 0.673865,-0.311975 1.547393,-0.311975 0.873529,0 1.543234,0.311975 0.673865,0.311974 1.044075,0.877688 0.370209,0.565714 0.370209,1.306133 0,0.73626 -0.370209,1.301974 -0.37021,0.561554 -1.044075,0.873528 -0.669705,0.311975 -1.543234,0.311975 z M 62.772177,59.07973 q 0,0.440924 0.187185,0.765378 0.187185,0.320294 0.536596,0.494999 0.349411,0.174706 0.827772,0.174706 0.478361,0 0.823613,-0.174706 0.349411,-0.174705 0.536596,-0.494999 0.187185,-0.324454 0.187185,-0.765378 0,-0.440924 -0.187185,-0.765377 -0.187185,-0.324454 -0.536596,-0.499159 -0.349412,-0.174706 -0.823613,-0.174706 -0.478361,0 -0.827772,0.174706 -0.349411,0.174705 -0.536596,0.499159 -0.187185,0.324453 -0.187185,0.765377 z"
         id="path6497" /><path
         d="m 72.65137,56.712884 v 1.064873 h -1.880166 v 3.66466 h -1.393486 v -3.66466 h -1.880167 v -1.064873 z"
         id="path6499" /><path
         d="m 75.184602,56.712884 h 1.393486 v 2.961678 l 2.412602,-2.961678 h 1.514117 l -1.647226,1.917603 1.788654,2.81193 h -1.58899 l -1.081512,-1.784494 -1.534914,1.784494 h -1.256217 z"
         id="path6501" /><path
         d="m 83.562158,61.567207 q -0.873528,0 -1.547393,-0.311975 -0.669705,-0.311974 -1.039915,-0.873528 -0.37021,-0.565714 -0.37021,-1.301974 0,-0.740419 0.37021,-1.306133 0.37021,-0.565714 1.039915,-0.877688 0.673865,-0.311975 1.547393,-0.311975 0.873529,0 1.543234,0.311975 0.673865,0.311974 1.044075,0.877688 0.37021,0.565714 0.37021,1.306133 0,0.73626 -0.37021,1.301974 -0.37021,0.561554 -1.044075,0.873528 -0.669705,0.311975 -1.543234,0.311975 z M 82.010605,59.07973 q 0,0.440924 0.187185,0.765378 0.187185,0.320294 0.536596,0.494999 0.349411,0.174706 0.827772,0.174706 0.478361,0 0.823613,-0.174706 0.349411,-0.174705 0.536596,-0.494999 0.187185,-0.324454 0.187185,-0.765378 0,-0.440924 -0.187185,-0.765377 -0.187185,-0.324454 -0.536596,-0.499159 -0.349411,-0.174706 -0.823613,-0.174706 -0.478361,0 -0.827772,0.174706 -0.349411,0.174705 -0.536596,0.499159 -0.187185,0.324453 -0.187185,0.765377 z"
         id="path6503" /><path
         d="M 93.59942,62.607122 H 92.397278 V 61.442417 H 87.96724 v 1.164705 h -1.202141 v -2.212939 h 0.619789 q 0.24958,-0.282857 0.37021,-0.815293 0.12479,-0.532437 0.12479,-1.335251 0,-0.715462 -0.09567,-1.530755 h 4.945836 v 3.681299 H 93.59942 Z M 91.344884,60.414981 V 57.74448 h -2.233737 q 0.03744,0.316134 0.03744,0.773696 0,0.61563 -0.09983,1.09815 -0.09567,0.478361 -0.287017,0.798655 z"
         id="path6505" /><path
         d="m 101.78979,61.442417 h -1.39349 v -3.681299 h -2.537388 v 3.681299 h -1.393486 v -4.729533 h 5.324364 z"
         id="path6507" /><path
         d="m 105.54596,61.567207 q -0.87353,0 -1.5474,-0.311975 -0.6697,-0.311974 -1.03991,-0.873528 -0.37021,-0.565714 -0.37021,-1.301974 0,-0.740419 0.37021,-1.306133 0.37021,-0.565714 1.03991,-0.877688 0.67387,-0.311975 1.5474,-0.311975 0.87353,0 1.54323,0.311975 0.67387,0.311974 1.04408,0.877688 0.37021,0.565714 0.37021,1.306133 0,0.73626 -0.37021,1.301974 -0.37021,0.561554 -1.04408,0.873528 -0.6697,0.311975 -1.54323,0.311975 z M 103.9944,59.07973 q 0,0.440924 0.18719,0.765378 0.18718,0.320294 0.5366,0.494999 0.34941,0.174706 0.82777,0.174706 0.47836,0 0.82361,-0.174706 0.34941,-0.174705 0.5366,-0.494999 0.18718,-0.324454 0.18718,-0.765378 0,-0.440924 -0.18718,-0.765377 -0.18719,-0.324454 -0.5366,-0.499159 -0.34941,-0.174706 -0.82361,-0.174706 -0.47836,0 -0.82777,0.174706 -0.34942,0.174705 -0.5366,0.499159 -0.18719,0.324453 -0.18719,0.765377 z"
         id="path6509" /><path
         d="m 114.87607,56.712884 v 4.729533 h -1.39348 v -3.681299 h -2.17135 q 0.0541,0.744579 0.0541,1.185503 0,0.915125 -0.17886,1.484999 -0.17471,0.565714 -0.54908,0.836091 -0.37021,0.270378 -0.9692,0.270378 -0.5158,0 -0.9276,-0.228781 V 60.30267 q 0.30365,0.12063 0.56155,0.12063 0.28702,0 0.46172,-0.170546 0.17887,-0.170546 0.2579,-0.532436 0.0832,-0.36605 0.0832,-0.965041 0,-0.819453 -0.12479,-2.042393 z"
         id="path6511" /><path
         d="m 117.30115,56.712884 v 1.796973 h 2.58731 v -1.796973 h 1.38517 v 4.729533 h -1.38517 v -1.884326 h -2.58731 v 1.884326 h -1.38516 v -4.729533 z"
         id="path6513" /><path
         d="m 125.0298,61.567207 q -0.87353,0 -1.5474,-0.311975 -0.6697,-0.311974 -1.03991,-0.873528 -0.37021,-0.565714 -0.37021,-1.301974 0,-0.740419 0.37021,-1.306133 0.37021,-0.565714 1.03991,-0.877688 0.67387,-0.311975 1.5474,-0.311975 0.87353,0 1.54323,0.311975 0.67387,0.311974 1.04408,0.877688 0.37021,0.565714 0.37021,1.306133 0,0.73626 -0.37021,1.301974 -0.37021,0.561554 -1.04408,0.873528 -0.6697,0.311975 -1.54323,0.311975 z m -1.55155,-2.487477 q 0,0.440924 0.18718,0.765378 0.18718,0.320294 0.5366,0.494999 0.34941,0.174706 0.82777,0.174706 0.47836,0 0.82361,-0.174706 0.34941,-0.174705 0.5366,-0.494999 0.18718,-0.324454 0.18718,-0.765378 0,-0.440924 -0.18718,-0.765377 -0.18719,-0.324454 -0.5366,-0.499159 -0.34941,-0.174706 -0.82361,-0.174706 -0.47836,0 -0.82777,0.174706 -0.34942,0.174705 -0.5366,0.499159 -0.18718,0.324453 -0.18718,0.765377 z"
         id="path6515" /><path
         d="m 134.21848,59.512335 q -0.0749,0.60731 -0.46172,1.073192 -0.38269,0.465882 -0.99832,0.723781 -0.61563,0.257899 -1.36021,0.257899 -0.83609,0 -1.48499,-0.311975 -0.64891,-0.316134 -1.0108,-0.877688 -0.35773,-0.565714 -0.35773,-1.297814 0,-0.7321 0.35773,-1.297814 0.36189,-0.565713 1.0108,-0.881847 0.6489,-0.316135 1.48499,-0.316135 0.74458,0 1.36021,0.257899 0.61563,0.257899 0.99832,0.727941 0.38685,0.470041 0.46172,1.077352 h -1.38932 q -0.10399,-0.474202 -0.49084,-0.74042 -0.38269,-0.266218 -0.94009,-0.266218 -0.44092,0 -0.76953,0.170546 -0.32446,0.170546 -0.50332,0.495 -0.17471,0.324453 -0.17471,0.773696 0,0.445084 0.17471,0.769537 0.17886,0.324454 0.50332,0.495 0.32861,0.170546 0.76953,0.170546 0.36605,0 0.66555,-0.12063 0.30365,-0.12479 0.49916,-0.353571 0.19966,-0.228782 0.26622,-0.528277 z"
         id="path6517" /><path
         d="m 139.53869,56.712884 v 1.064873 h -1.88016 v 3.66466 h -1.39349 v -3.66466 h -1.88017 v -1.064873 z"
         id="path6519" /><path
         d="m 140.17095,56.712884 h 1.38933 v 1.360209 h 1.60563 q 0.59483,0 1.04407,0.212142 0.45341,0.207983 0.69883,0.590672 0.24958,0.382689 0.24958,0.881848 0,0.503319 -0.24958,0.886007 -0.24542,0.378529 -0.69467,0.590672 -0.44508,0.207983 -1.03159,0.207983 h -3.0116 z m 2.78282,3.735374 q 0.37437,0 0.58651,-0.187184 0.2163,-0.191345 0.2163,-0.519958 0,-0.328613 -0.2163,-0.515798 -0.21214,-0.191344 -0.58651,-0.191344 h -1.39349 v 1.414284 z"
         id="path6521" /><path
         d="m 150.94032,61.567207 q -0.76954,0 -1.38101,-0.24542 -0.61147,-0.24958 -0.99832,-0.702983 -0.38269,-0.457562 -0.495,-1.064872 h -0.83609 v 1.888485 h -1.39349 v -4.729533 h 1.39349 v 1.796973 h 0.85689 q 0.12895,-0.582352 0.5158,-1.014957 0.38685,-0.436764 0.98584,-0.673865 0.60315,-0.237101 1.35189,-0.237101 0.86521,0 1.52659,0.311975 0.66555,0.311974 1.0316,0.877688 0.36605,0.565714 0.36605,1.306133 0,0.73626 -0.36605,1.301974 -0.36605,0.561554 -1.0316,0.873528 -0.66138,0.311975 -1.52659,0.311975 z m -1.51828,-2.487477 q 0,0.436765 0.18303,0.761218 0.18302,0.324454 0.52411,0.499159 0.34525,0.174706 0.81114,0.174706 0.46588,0 0.80697,-0.174706 0.34525,-0.174705 0.52412,-0.499159 0.18302,-0.324453 0.18302,-0.761218 0,-0.440924 -0.18302,-0.765377 -0.17887,-0.324454 -0.52412,-0.499159 -0.34109,-0.174706 -0.80697,-0.174706 -0.46589,0 -0.81114,0.174706 -0.34109,0.174705 -0.52411,0.499159 -0.18303,0.324453 -0.18303,0.765377 z"
         id="path6523" /><path
         d="m 163.1198,62.607122 h -1.20214 v -1.164705 h -4.43004 v 1.164705 h -1.20214 v -2.212939 h 0.61979 q 0.24958,-0.282857 0.37021,-0.815293 0.12479,-0.532437 0.12479,-1.335251 0,-0.715462 -0.0957,-1.530755 h 4.94583 v 3.681299 h 0.86937 z m -2.25453,-2.192141 V 57.74448 h -2.23374 q 0.0374,0.316134 0.0374,0.773696 0,0.61563 -0.0998,1.09815 -0.0957,0.478361 -0.28701,0.798655 z"
         id="path6525" /><path
         d="m 166.44338,61.567207 q -0.87353,0 -1.54739,-0.311975 -0.66971,-0.311974 -1.03992,-0.873528 -0.37021,-0.565714 -0.37021,-1.301974 0,-0.740419 0.37021,-1.306133 0.37021,-0.565714 1.03992,-0.877688 0.67386,-0.311975 1.54739,-0.311975 0.87353,0 1.54323,0.311975 0.67387,0.311974 1.04408,0.877688 0.37021,0.565714 0.37021,1.306133 0,0.73626 -0.37021,1.301974 -0.37021,0.561554 -1.04408,0.873528 -0.6697,0.311975 -1.54323,0.311975 z m -1.55155,-2.487477 q 0,0.440924 0.18718,0.765378 0.18719,0.320294 0.5366,0.494999 0.34941,0.174706 0.82777,0.174706 0.47836,0 0.82361,-0.174706 0.34941,-0.174705 0.5366,-0.494999 0.18718,-0.324454 0.18718,-0.765378 0,-0.440924 -0.18718,-0.765377 -0.18719,-0.324454 -0.5366,-0.499159 -0.34941,-0.174706 -0.82361,-0.174706 -0.47836,0 -0.82777,0.174706 -0.34941,0.174705 -0.5366,0.499159 -0.18718,0.324453 -0.18718,0.765377 z"
         id="path6527" /><path
         d="m 175.52391,61.442417 h -1.39348 v -3.681299 h -2.53739 v 3.681299 h -1.39349 v -4.729533 h 5.32436 z"
         id="path6529" /><path
         d="m 176.56382,56.712884 h 1.37269 v 3.431719 l 2.50828,-3.431719 h 1.78865 v 4.729533 h -1.36853 v -3.498274 l -2.55819,3.498274 h -1.7429 z"
         id="path6531" /><path
         d="m 188.71003,59.512335 q -0.0749,0.60731 -0.46172,1.073192 -0.38269,0.465882 -0.99832,0.723781 -0.61563,0.257899 -1.36021,0.257899 -0.83609,0 -1.485,-0.311975 -0.6489,-0.316134 -1.0108,-0.877688 -0.35773,-0.565714 -0.35773,-1.297814 0,-0.7321 0.35773,-1.297814 0.3619,-0.565713 1.0108,-0.881847 0.64891,-0.316135 1.485,-0.316135 0.74458,0 1.36021,0.257899 0.61563,0.257899 0.99832,0.727941 0.38685,0.470041 0.46172,1.077352 h -1.38933 q -0.10399,-0.474202 -0.49084,-0.74042 -0.38268,-0.266218 -0.94008,-0.266218 -0.44092,0 -0.76954,0.170546 -0.32445,0.170546 -0.50332,0.495 -0.1747,0.324453 -0.1747,0.773696 0,0.445084 0.1747,0.769537 0.17887,0.324454 0.50332,0.495 0.32862,0.170546 0.76954,0.170546 0.36605,0 0.66555,-0.12063 0.30365,-0.12479 0.49916,-0.353571 0.19966,-0.228782 0.26621,-0.528277 z"
         id="path6533" /><path
         d="m 193.67665,60.377544 q -0.35357,0.565714 -0.89432,0.877688 -0.5366,0.311975 -1.19383,0.311975 -0.68634,0 -1.22294,-0.311975 -0.53659,-0.311974 -0.83609,-0.877688 -0.29533,-0.565714 -0.29533,-1.297814 0,-0.736259 0.29533,-1.301973 0.2995,-0.569874 0.83193,-0.881848 0.5366,-0.311975 1.2271,-0.311975 0.65723,0 1.19383,0.311975 0.54075,0.307815 0.89848,0.873528 l 0.12063,-1.056553 h 1.43925 l -0.27454,2.362687 0.27454,2.366846 h -1.43925 z m -3.03239,-1.297814 q 0,0.407647 0.17055,0.727941 0.17054,0.320294 0.47004,0.499159 0.30365,0.178865 0.68634,0.178865 0.38685,0 0.73626,-0.178865 0.34941,-0.178865 0.61147,-0.495 0.26622,-0.320293 0.41597,-0.7321 -0.14975,-0.411806 -0.41597,-0.7321 -0.26206,-0.320294 -0.61147,-0.499159 -0.34941,-0.183025 -0.73626,-0.183025 -0.38269,0 -0.68634,0.183025 -0.2995,0.178865 -0.47004,0.503319 -0.17055,0.320294 -0.17055,0.72794 z"
         id="path6535" /><path
         d="m 197.55346,56.712884 v 1.796973 h 2.58731 v -1.796973 h 1.38516 v 4.729533 h -1.38516 v -1.884326 h -2.58731 v 1.884326 h -1.38517 v -4.729533 z"
         id="path6537" /><path
         d="m 48.762454,67.112034 h 1.372688 v 3.431719 l 2.508275,-3.431719 h 1.788653 v 4.729533 h -1.368528 v -3.498274 l -2.558191,3.498274 h -1.742897 z"
         id="path6539" /><path
         d="m 61.540925,68.176906 h -2.537393 v 3.664661 h -1.393486 v -4.729533 h 3.930879 z"
         id="path6541" /><path
         d="m 64.702274,71.966357 q -0.873528,0 -1.547393,-0.311975 -0.669706,-0.311974 -1.039915,-0.873528 -0.37021,-0.565714 -0.37021,-1.301974 0,-0.740419 0.37021,-1.306133 0.370209,-0.565714 1.039915,-0.877688 0.673865,-0.311975 1.547393,-0.311975 0.873529,0 1.543234,0.311975 0.673865,0.311974 1.044075,0.877688 0.370209,0.565714 0.370209,1.306133 0,0.73626 -0.370209,1.301974 -0.37021,0.561554 -1.044075,0.873528 -0.669705,0.311975 -1.543234,0.311975 z M 63.150721,69.47888 q 0,0.440924 0.187185,0.765377 0.187184,0.320294 0.536596,0.495 0.349411,0.174706 0.827772,0.174706 0.478361,0 0.823613,-0.174706 0.349411,-0.174706 0.536596,-0.495 0.187185,-0.324453 0.187185,-0.765377 0,-0.440924 -0.187185,-0.765377 -0.187185,-0.324454 -0.536596,-0.49916 -0.349412,-0.174705 -0.823613,-0.174705 -0.478361,0 -0.827772,0.174705 -0.349412,0.174706 -0.536596,0.49916 -0.187185,0.324453 -0.187185,0.765377 z"
         id="path6543" /><path
         d="m 73.029914,67.112034 v 1.064872 h -1.880166 v 3.664661 h -1.393487 v -3.664661 h -1.880166 v -1.064872 z"
         id="path6545" /><path
         d="m 76.203731,71.966357 q -0.873528,0 -1.547393,-0.311975 -0.669705,-0.311974 -1.039915,-0.873528 -0.37021,-0.565714 -0.37021,-1.301974 0,-0.740419 0.37021,-1.306133 0.37021,-0.565714 1.039915,-0.877688 0.673865,-0.311975 1.547393,-0.311975 0.873529,0 1.543234,0.311975 0.673865,0.311974 1.044075,0.877688 0.370209,0.565714 0.370209,1.306133 0,0.73626 -0.370209,1.301974 -0.37021,0.561554 -1.044075,0.873528 -0.669705,0.311975 -1.543234,0.311975 z M 74.652178,69.47888 q 0,0.440924 0.187185,0.765377 0.187185,0.320294 0.536596,0.495 0.349411,0.174706 0.827772,0.174706 0.478361,0 0.823613,-0.174706 0.349411,-0.174706 0.536596,-0.495 0.187185,-0.324453 0.187185,-0.765377 0,-0.440924 -0.187185,-0.765377 -0.187185,-0.324454 -0.536596,-0.49916 -0.349411,-0.174705 -0.823613,-0.174705 -0.478361,0 -0.827772,0.174705 -0.349411,0.174706 -0.536596,0.49916 -0.187185,0.324453 -0.187185,0.765377 z"
         id="path6547" /><path
         d="m 80.101324,69.47472 -0.270378,-2.362686 h 3.639703 q 0.453403,0 0.786176,0.145588 0.336932,0.141428 0.515797,0.411806 0.178866,0.266218 0.178866,0.632268 0,0.36605 -0.203824,0.636428 -0.199663,0.266218 -0.582352,0.415966 0.532436,0.12063 0.806974,0.415966 0.274538,0.295336 0.274538,0.748739 0,0.403487 -0.203824,0.702982 -0.199663,0.299496 -0.578192,0.461723 -0.37437,0.158067 -0.886008,0.158067 h -3.747854 z m 1.272856,-0.428445 h 1.514116 q 0.332773,0 0.49916,-0.137268 0.170546,-0.141429 0.170546,-0.382689 0,-0.24126 -0.153908,-0.378529 -0.149747,-0.137269 -0.461722,-0.137269 h -1.697141 z m 1.784494,1.892646 q 0.690504,0 0.690504,-0.553235 0,-0.24958 -0.195504,-0.399327 -0.191344,-0.149748 -0.586512,-0.149748 H 81.3825 l -0.13311,1.10231 z"
         id="path6549" /><path
         d="m 88.171069,67.112034 h 1.393486 v 2.961677 l 2.412603,-2.961677 h 1.514116 l -1.647225,1.917603 1.788653,2.81193 h -1.58899 l -1.081511,-1.784494 -1.534915,1.784494 h -1.256217 z"
         id="path6551" /><path
         d="m 96.232486,67.112034 h 1.372687 v 3.431719 l 2.508277,-3.431719 h 1.78865 v 4.729533 h -1.36853 v -3.498274 l -2.558187,3.498274 h -1.742897 z"
         id="path6553" /><path
         d="m 108.37869,69.911485 q -0.0749,0.60731 -0.46173,1.073192 -0.38269,0.465882 -0.99832,0.723781 -0.61562,0.257899 -1.3602,0.257899 -0.8361,0 -1.485,-0.311975 -0.64891,-0.316134 -1.0108,-0.877688 -0.35773,-0.565714 -0.35773,-1.297814 0,-0.7321 0.35773,-1.297814 0.36189,-0.565714 1.0108,-0.881848 0.6489,-0.316134 1.485,-0.316134 0.74458,0 1.3602,0.257899 0.61563,0.257899 0.99832,0.72794 0.38685,0.470042 0.46173,1.077352 h -1.38933 q -0.10399,-0.474201 -0.49084,-0.740419 -0.38269,-0.266218 -0.94008,-0.266218 -0.44093,0 -0.76954,0.170546 -0.32445,0.170546 -0.50332,0.494999 -0.17471,0.324454 -0.17471,0.773697 0,0.445084 0.17471,0.769537 0.17887,0.324454 0.50332,0.495 0.32861,0.170546 0.76954,0.170546 0.36605,0 0.66554,-0.12063 0.30366,-0.12479 0.49916,-0.353572 0.19966,-0.228781 0.26622,-0.528276 z"
         id="path6555" /><path
         d="m 114.45179,71.841567 h -1.39349 v -3.681299 h -2.53739 v 3.681299 h -1.39348 v -4.729533 h 5.32436 z"
         id="path6557" /><path
         d="m 118.20796,71.966357 q -0.87353,0 -1.54739,-0.311975 -0.66971,-0.311974 -1.03992,-0.873528 -0.37021,-0.565714 -0.37021,-1.301974 0,-0.740419 0.37021,-1.306133 0.37021,-0.565714 1.03992,-0.877688 0.67386,-0.311975 1.54739,-0.311975 0.87353,0 1.54323,0.311975 0.67387,0.311974 1.04408,0.877688 0.37021,0.565714 0.37021,1.306133 0,0.73626 -0.37021,1.301974 -0.37021,0.561554 -1.04408,0.873528 -0.6697,0.311975 -1.54323,0.311975 z m -1.55155,-2.487477 q 0,0.440924 0.18718,0.765377 0.18719,0.320294 0.5366,0.495 0.34941,0.174706 0.82777,0.174706 0.47836,0 0.82361,-0.174706 0.34941,-0.174706 0.5366,-0.495 0.18718,-0.324453 0.18718,-0.765377 0,-0.440924 -0.18718,-0.765377 -0.18719,-0.324454 -0.5366,-0.49916 -0.34941,-0.174705 -0.82361,-0.174705 -0.47836,0 -0.82777,0.174705 -0.34941,0.174706 -0.5366,0.49916 -0.18718,0.324453 -0.18718,0.765377 z"
         id="path6559" /><path
         d="m 127.53808,67.112034 v 4.729533 h -1.39349 v -3.681299 h -2.17134 q 0.0541,0.744579 0.0541,1.185503 0,0.915125 -0.17886,1.484998 -0.17471,0.565714 -0.54908,0.836092 -0.37021,0.270378 -0.9692,0.270378 -0.5158,0 -0.9276,-0.228781 V 70.70182 q 0.30365,0.12063 0.56155,0.12063 0.28702,0 0.46172,-0.170546 0.17887,-0.170546 0.2579,-0.532436 0.0832,-0.36605 0.0832,-0.965041 0,-0.819453 -0.12479,-2.042393 z"
         id="path6561" /><path
         d="m 128.57799,67.112034 h 1.38933 v 1.360208 h 1.60563 q 0.59483,0 1.04407,0.212143 0.4534,0.207983 0.69882,0.590672 0.24958,0.382688 0.24958,0.881848 0,0.503318 -0.24958,0.886007 -0.24542,0.378529 -0.69466,0.590672 -0.44508,0.207983 -1.0316,0.207983 h -3.01159 z m 2.78281,3.735374 q 0.37437,0 0.58651,-0.187185 0.21631,-0.191344 0.21631,-0.519957 0,-0.328613 -0.21631,-0.515798 -0.21214,-0.191344 -0.58651,-0.191344 h -1.39348 v 1.414284 z"
         id="path6563" /><path
         d="m 136.58534,71.966357 q -0.78202,0 -1.37685,-0.203824 -0.59483,-0.207983 -0.93176,-0.594831 -0.33278,-0.386848 -0.35773,-0.910966 h 1.34357 q 0.0541,0.353571 0.391,0.540756 0.3411,0.183025 0.93177,0.183025 0.56987,0 0.87769,-0.149748 0.30781,-0.149747 0.30781,-0.449243 0,-0.257899 -0.26622,-0.378529 -0.26206,-0.12063 -0.83609,-0.12063 h -0.88601 v -0.831932 h 0.86105 q 0.49916,0 0.7529,-0.137269 0.25374,-0.141428 0.25374,-0.382688 0,-0.270378 -0.28286,-0.411807 -0.28285,-0.145588 -0.77369,-0.145588 -0.54076,0 -0.86521,0.170546 -0.3203,0.170546 -0.37437,0.499159 h -1.33941 q 0.0374,-0.470041 0.35773,-0.844411 0.32029,-0.378529 0.90264,-0.594831 0.58236,-0.220462 1.37269,-0.220462 0.7113,0 1.25622,0.174706 0.54907,0.174706 0.84857,0.48668 0.30366,0.307815 0.30366,0.702983 0,0.370209 -0.2579,0.657226 -0.25374,0.282857 -0.7737,0.411806 0.56571,0.09567 0.86105,0.36605 0.29534,0.266218 0.29534,0.690504 0,0.436764 -0.30782,0.773696 -0.30781,0.336933 -0.89433,0.528277 -0.58651,0.191345 -1.39348,0.191345 z"
         id="path6565" /><path
         d="m 142.7042,71.966357 q -0.87353,0 -1.54739,-0.311975 -0.66971,-0.311974 -1.03992,-0.873528 -0.37021,-0.565714 -0.37021,-1.301974 0,-0.740419 0.37021,-1.306133 0.37021,-0.565714 1.03992,-0.877688 0.67386,-0.311975 1.54739,-0.311975 0.87353,0 1.54323,0.311975 0.67387,0.311974 1.04408,0.877688 0.37021,0.565714 0.37021,1.306133 0,0.73626 -0.37021,1.301974 -0.37021,0.561554 -1.04408,0.873528 -0.6697,0.311975 -1.54323,0.311975 z m -1.55155,-2.487477 q 0,0.440924 0.18718,0.765377 0.18718,0.320294 0.5366,0.495 0.34941,0.174706 0.82777,0.174706 0.47836,0 0.82361,-0.174706 0.34941,-0.174706 0.5366,-0.495 0.18718,-0.324453 0.18718,-0.765377 0,-0.440924 -0.18718,-0.765377 -0.18719,-0.324454 -0.5366,-0.49916 -0.34941,-0.174705 -0.82361,-0.174705 -0.47836,0 -0.82777,0.174705 -0.34942,0.174706 -0.5366,0.49916 -0.18718,0.324453 -0.18718,0.765377 z"
         id="path6567" /><path
         d="m 146.60179,69.47472 -0.27038,-2.362686 h 3.6397 q 0.45341,0 0.78618,0.145588 0.33693,0.141428 0.5158,0.411806 0.17886,0.266218 0.17886,0.632268 0,0.36605 -0.20382,0.636428 -0.19967,0.266218 -0.58235,0.415966 0.53243,0.12063 0.80697,0.415966 0.27454,0.295336 0.27454,0.748739 0,0.403487 -0.20383,0.702982 -0.19966,0.299496 -0.57819,0.461723 -0.37437,0.158067 -0.88601,0.158067 h -3.74785 z m 1.27285,-0.428445 h 1.51412 q 0.33277,0 0.49916,-0.137268 0.17055,-0.141429 0.17055,-0.382689 0,-0.24126 -0.15391,-0.378529 -0.14975,-0.137269 -0.46172,-0.137269 h -1.69715 z m 1.7845,1.892646 q 0.6905,0 0.6905,-0.553235 0,-0.24958 -0.1955,-0.399327 -0.19135,-0.149748 -0.58651,-0.149748 h -1.68467 l -0.13311,1.10231 z"
         id="path6569" /><path
         d="m 156.75552,70.776694 q -0.35357,0.565714 -0.89433,0.877688 -0.53659,0.311975 -1.19382,0.311975 -0.68634,0 -1.22294,-0.311975 -0.5366,-0.311974 -0.83609,-0.877688 -0.29534,-0.565714 -0.29534,-1.297814 0,-0.73626 0.29534,-1.301974 0.29949,-0.569873 0.83193,-0.881847 0.5366,-0.311975 1.2271,-0.311975 0.65723,0 1.19382,0.311975 0.54076,0.307814 0.89849,0.873528 l 0.12063,-1.056553 h 1.43924 l -0.27454,2.362686 0.27454,2.366847 h -1.43924 z m -3.03239,-1.297814 q 0,0.407647 0.17054,0.72794 0.17055,0.320294 0.47004,0.49916 0.30366,0.178865 0.68635,0.178865 0.38685,0 0.73626,-0.178865 0.34941,-0.178866 0.61147,-0.495 0.26622,-0.320294 0.41596,-0.7321 -0.14974,-0.411806 -0.41596,-0.7321 -0.26206,-0.320294 -0.61147,-0.499159 -0.34941,-0.183025 -0.73626,-0.183025 -0.38269,0 -0.68635,0.183025 -0.29949,0.178865 -0.47004,0.503319 -0.17054,0.320293 -0.17054,0.72794 z"
         id="path6571" /><path
         d="m 160.63232,67.112034 v 1.796973 h 2.5873 v -1.796973 h 1.38517 v 4.729533 h -1.38517 v -1.884326 h -2.5873 v 1.884326 h -1.38517 v -4.729533 z"
         id="path6573" /><path
         d="m 165.6447,67.112034 h 1.37269 v 3.431719 l 2.50827,-3.431719 h 1.78866 v 4.729533 h -1.36853 v -3.498274 l -2.55819,3.498274 h -1.7429 z"
         id="path6575" /><path
         d="m 177.46229,71.966357 q -0.76954,0 -1.38101,-0.24542 -0.61147,-0.24958 -0.99832,-0.702983 -0.38269,-0.457562 -0.495,-1.064873 h -0.83609 v 1.888486 h -1.39348 v -4.729533 h 1.39348 v 1.796973 h 0.85689 q 0.12895,-0.582353 0.5158,-1.014957 0.38685,-0.436765 0.98584,-0.673865 0.60315,-0.237101 1.35189,-0.237101 0.86521,0 1.52659,0.311975 0.66555,0.311974 1.0316,0.877688 0.36605,0.565714 0.36605,1.306133 0,0.73626 -0.36605,1.301974 -0.36605,0.561554 -1.0316,0.873528 -0.66138,0.311975 -1.52659,0.311975 z m -1.51828,-2.487477 q 0,0.436764 0.18303,0.761218 0.18302,0.324453 0.52411,0.499159 0.34526,0.174706 0.81114,0.174706 0.46588,0 0.80697,-0.174706 0.34525,-0.174706 0.52412,-0.499159 0.18302,-0.324454 0.18302,-0.761218 0,-0.440924 -0.18302,-0.765377 -0.17887,-0.324454 -0.52412,-0.49916 -0.34109,-0.174705 -0.80697,-0.174705 -0.46588,0 -0.81114,0.174705 -0.34109,0.174706 -0.52411,0.49916 -0.18303,0.324453 -0.18303,0.765377 z"
         id="path6577" /><path
         d="m 181.73426,71.916441 q -0.22878,0 -0.41596,-0.108151 -0.18719,-0.108152 -0.29534,-0.295336 -0.10815,-0.187185 -0.10815,-0.415966 0,-0.224622 0.10815,-0.411807 0.10815,-0.191344 0.29534,-0.299495 0.18718,-0.108151 0.41596,-0.108151 0.22879,0 0.41597,0.108151 0.18718,0.108151 0.29534,0.299495 0.10815,0.187185 0.10815,0.411807 0,0.228781 -0.10815,0.415966 -0.10816,0.187184 -0.29534,0.295336 -0.18718,0.108151 -0.41597,0.108151 z"
         id="path6579" /></g></g></svg>
