<?xml version="1.0" encoding="UTF-8" standalone="no"?>
<!-- Created with Inkscape (http://www.inkscape.org/) -->

<svg
   width="224.93741mm"
   height="69.234001mm"
   viewBox="0 0 224.93741 69.234001"
   version="1.1"
   id="svg5"
   xml:space="preserve"
   inkscape:export-filename="fragments.svg"
   inkscape:export-xdpi="96"
   inkscape:export-ydpi="96"
   xmlns:inkscape="http://www.inkscape.org/namespaces/inkscape"
   xmlns:sodipodi="http://sodipodi.sourceforge.net/DTD/sodipodi-0.dtd"
   xmlns="http://www.w3.org/2000/svg"
   xmlns:svg="http://www.w3.org/2000/svg"><sodipodi:namedview
     id="namedview7"
     pagecolor="#ffffff"
     bordercolor="#000000"
     borderopacity="0.25"
     inkscape:showpageshadow="2"
     inkscape:pageopacity="0"
     inkscape:pagecheckerboard="0"
     inkscape:deskcolor="#d1d1d1"
     inkscape:document-units="mm"
     showgrid="false"
     inkscape:zoom="0.92198806"
     inkscape:cx="254.34169"
     inkscape:cy="259.22245"
     inkscape:window-width="1920"
     inkscape:window-height="1131"
     inkscape:window-x="0"
     inkscape:window-y="0"
     inkscape:window-maximized="1"
     inkscape:current-layer="layer1" /><defs
     id="defs2" /><g
     inkscape:label="Layer 1"
     inkscape:groupmode="layer"
     id="layer1"
     transform="translate(-12.546532,-9.3468567)"><g
       aria-label="Статус проекта"
       id="text202"
       style="font-weight:500;font-size:15.4622px;font-family:Unbounded;-inkscape-font-specification:'Unbounded Medium';fill:#ffff00;fill-opacity:0;stroke-width:11.5963;stroke-linecap:round;stroke-linejoin:round"><path
         d="m 32.188891,22.990543 q -0.170084,1.468909 -1.028236,2.597649 -0.858152,1.12101 -2.265213,1.739498 -1.40706,0.618488 -3.185213,0.618488 -1.97143,0 -3.478995,-0.749917 -1.499833,-0.757648 -2.327061,-2.126052 -0.827228,-1.368405 -0.827228,-3.154289 0,-1.785884 0.827228,-3.154289 0.827228,-1.368405 2.327061,-2.118321 1.507565,-0.757648 3.478995,-0.757648 1.778153,0 3.185213,0.618488 1.407061,0.618488 2.265213,1.747228 0.858152,1.12101 1.028236,2.589919 H 29.552586 Q 29.390233,20.0218 28.87998,19.426506 28.377459,18.82348 27.565693,18.506505 q -0.811765,-0.324707 -1.863195,-0.324707 -1.213783,0 -2.11059,0.456135 -0.889077,0.456135 -1.376136,1.298825 -0.479328,0.84269 -0.479328,1.979162 0,1.136471 0.479328,1.979161 0.487059,0.84269 1.376136,1.298825 0.896807,0.456135 2.11059,0.456135 1.592607,0 2.59765,-0.695799 1.012774,-0.695799 1.252438,-1.963699 z"
         style="fill:#23dd83;fill-opacity:1"
         id="path5421" /><path
         d="m 42.363012,18.923984 v 1.979162 h -3.494457 v 6.811099 h -2.589919 v -6.811099 h -3.494457 v -1.979162 z"
         style="fill:#23dd83;fill-opacity:1"
         id="path5423" /><path
         d="m 51.068218,25.735083 q -0.657143,1.05143 -1.662186,1.631262 -0.997312,0.579833 -2.218826,0.579833 -1.275632,0 -2.272944,-0.579833 -0.997312,-0.579832 -1.553951,-1.631262 -0.548908,-1.051429 -0.548908,-2.412103 0,-1.368405 0.548908,-2.419834 0.556639,-1.059161 1.54622,-1.638994 0.997312,-0.579832 2.280675,-0.579832 1.221514,0 2.218826,0.579832 1.005043,0.572102 1.669917,1.623531 l 0.224202,-1.963699 h 2.674961 l -0.510253,4.391265 0.510253,4.398996 H 51.300151 Z M 45.432246,23.32298 q 0,0.757648 0.316975,1.352943 0.316975,0.595294 0.873614,0.927732 0.564371,0.332437 1.275632,0.332437 0.718992,0 1.368405,-0.332437 0.649412,-0.332438 1.136471,-0.920001 0.494791,-0.595295 0.77311,-1.360674 -0.278319,-0.765379 -0.77311,-1.360674 -0.487059,-0.595294 -1.136471,-0.927732 -0.649413,-0.340168 -1.368405,-0.340168 -0.711261,0 -1.275632,0.340168 -0.556639,0.332438 -0.873614,0.935463 -0.316975,0.595295 -0.316975,1.352943 z"
         style="fill:#23dd83;fill-opacity:1"
         id="path5425" /><path
         d="m 64.520325,18.923984 v 1.979162 h -3.494458 v 6.811099 h -2.589918 v -6.811099 h -3.494457 v -1.979162 z"
         style="fill:#23dd83;fill-opacity:1"
         id="path5427" /><path
         d="m 68.200323,30.497441 q -0.858152,0 -1.553951,-0.20874 -0.695799,-0.20874 -1.329749,-0.641681 v -1.863195 q 0.672606,0.42521 1.252438,0.603026 0.579833,0.185546 1.283363,0.185546 0.672605,0 1.151934,-0.301513 0.487059,-0.293782 0.788572,-0.989581 l 0.05412,-0.115966 h -1.090085 l -3.888743,-8.241353 h 2.845045 l 2.852776,6.594628 2.891431,-6.594628 h 2.744541 l -4.383534,9.184547 q -0.587564,1.252438 -1.523027,1.816808 -0.935463,0.572102 -2.095128,0.572102 z"
         style="fill:#23dd83;fill-opacity:1"
         id="path5429" /><path
         d="m 86.847737,24.127014 q -0.13916,1.128741 -0.858152,1.994624 -0.711262,0.865883 -1.855464,1.345212 -1.144203,0.479328 -2.52807,0.479328 -1.553951,0 -2.760003,-0.579833 -1.206051,-0.587563 -1.878657,-1.631262 -0.664875,-1.051429 -0.664875,-2.412103 0,-1.360674 0.664875,-2.412103 0.672606,-1.05143 1.878657,-1.638993 1.206052,-0.587564 2.760003,-0.587564 1.383867,0 2.52807,0.479328 1.144202,0.479328 1.855464,1.352943 0.718992,0.873614 0.858152,2.002355 H 84.265549 Q 84.072272,21.6376 83.35328,21.14281 q -0.711262,-0.494791 -1.747229,-0.494791 -0.819497,0 -1.430254,0.316975 -0.603025,0.316976 -0.935463,0.920001 -0.324706,0.603026 -0.324706,1.437985 0,0.827228 0.324706,1.430254 0.332438,0.603025 0.935463,0.92 0.610757,0.316976 1.430254,0.316976 0.680337,0 1.236976,-0.224202 0.56437,-0.231933 0.927732,-0.657144 0.371093,-0.42521 0.49479,-0.98185 z"
         style="fill:#23dd83;fill-opacity:1"
         id="path5431" /><path
         d="m 102.1012,27.714245 h -2.589915 v -6.842024 h -4.715971 v 6.842024 h -2.589919 v -8.790261 h 9.895805 z"
         style="fill:#23dd83;fill-opacity:1"
         id="path5433" /><path
         d="m 106.62389,18.923984 v 1.971431 q 0.66487,-1.059161 1.66219,-1.631263 1.00504,-0.579832 2.23428,-0.579832 1.28337,0 2.27295,0.579832 0.99731,0.579833 1.54622,1.638994 0.55664,1.051429 0.55664,2.419834 0,1.360674 -0.55664,2.412103 -0.54891,1.05143 -1.54622,1.631262 -0.99731,0.579833 -2.27295,0.579833 -1.22924,0 -2.23428,-0.579833 -0.99732,-0.587563 -1.66219,-1.646724 v 4.545887 h -2.58992 V 18.923984 Z m -0.0928,4.398996 q 0.27832,0.765379 0.76537,1.360674 0.4948,0.587563 1.14421,0.920001 0.64941,0.332437 1.3684,0.332437 0.71126,0 1.2679,-0.332437 0.56437,-0.332438 0.88135,-0.927732 0.31697,-0.595295 0.31697,-1.352943 0,-0.757648 -0.31697,-1.352943 -0.31698,-0.603025 -0.88135,-0.935463 -0.55664,-0.340168 -1.2679,-0.340168 -0.71899,0 -1.3684,0.340168 -0.64941,0.332438 -1.14421,0.927732 -0.48705,0.595295 -0.76537,1.360674 z"
         style="fill:#23dd83;fill-opacity:1"
         id="path5435" /><path
         d="m 121.45988,27.946178 q -1.62353,0 -2.87597,-0.579833 -1.2447,-0.579832 -1.93277,-1.623531 -0.68807,-1.051429 -0.68807,-2.419834 0,-1.376136 0.68807,-2.427565 0.68807,-1.05143 1.93277,-1.631263 1.25244,-0.579832 2.87597,-0.579832 1.62353,0 2.86824,0.579832 1.25244,0.579833 1.94051,1.631263 0.68806,1.051429 0.68806,2.427565 0,1.368405 -0.68806,2.419834 -0.68807,1.043699 -1.94051,1.623531 -1.24471,0.579833 -2.86824,0.579833 z m -2.8837,-4.623198 q 0,0.819497 0.3479,1.422522 0.3479,0.595295 0.99731,0.920001 0.64941,0.324707 1.53849,0.324707 0.88908,0 1.53076,-0.324707 0.64941,-0.324706 0.99731,-0.920001 0.3479,-0.603025 0.3479,-1.422522 0,-0.819497 -0.3479,-1.422522 -0.3479,-0.603026 -0.99731,-0.927732 -0.64941,-0.324707 -1.53076,-0.324707 -0.88908,0 -1.53849,0.324707 -0.64941,0.324706 -0.99731,0.927732 -0.3479,0.603025 -0.3479,1.422522 z"
         style="fill:#23dd83;fill-opacity:1"
         id="path5437" /><path
         d="m 133.41989,27.946178 q -1.56168,0 -2.79866,-0.579833 -1.23698,-0.587563 -1.93277,-1.638993 -0.6958,-1.059161 -0.6958,-2.435296 0,-1.352943 0.66487,-2.396641 0.66488,-1.05143 1.84773,-1.631263 1.18286,-0.579832 2.67496,-0.579832 1.49984,0 2.61312,0.672606 1.11327,0.664874 1.70857,1.90185 0.60302,1.229245 0.60302,2.868238 h -7.34454 q 0.29378,0.896808 1.1442,1.383867 0.85042,0.48706 2.15698,0.48706 0.99731,0 2.00235,-0.286051 1.00505,-0.286051 1.80135,-0.804034 v 1.731766 q -0.87361,0.618488 -2.03328,0.966387 -1.15193,0.340169 -2.4121,0.340169 z m 2.17244,-5.535468 q -0.2242,-0.873614 -0.85042,-1.345211 -0.61849,-0.479328 -1.54622,-0.479328 -0.98185,0 -1.64673,0.49479 -0.65714,0.487059 -0.86588,1.329749 z"
         style="fill:#23dd83;fill-opacity:1"
         id="path5439" /><path
         d="m 139.60477,18.923984 h 2.58992 v 5.504543 l 4.48404,-5.504543 h 2.81412 l -3.06152,3.564037 3.32438,5.226224 h -2.95328 l -2.01009,-3.316642 -2.85278,3.316642 h -2.33479 z"
         style="fill:#23dd83;fill-opacity:1"
         id="path5441" /><path
         d="m 159.44277,18.923984 v 1.979162 h -3.49446 v 6.811099 h -2.58991 v -6.811099 h -3.49446 v -1.979162 z"
         style="fill:#23dd83;fill-opacity:1"
         id="path5443" /><path
         d="m 168.14798,25.735083 q -0.65714,1.05143 -1.66219,1.631262 -0.99731,0.579833 -2.21882,0.579833 -1.27563,0 -2.27295,-0.579833 -0.99731,-0.579832 -1.55395,-1.631262 -0.54891,-1.051429 -0.54891,-2.412103 0,-1.368405 0.54891,-2.419834 0.55664,-1.059161 1.54622,-1.638994 0.99731,-0.579832 2.28068,-0.579832 1.22151,0 2.21882,0.579832 1.00505,0.572102 1.66992,1.623531 l 0.2242,-1.963699 h 2.67496 l -0.51025,4.391265 0.51025,4.398996 h -2.67496 z m -5.63597,-2.412103 q 0,0.757648 0.31697,1.352943 0.31698,0.595294 0.87362,0.927732 0.56437,0.332437 1.27563,0.332437 0.71899,0 1.3684,-0.332437 0.64942,-0.332438 1.13647,-0.920001 0.4948,-0.595295 0.77311,-1.360674 -0.27831,-0.765379 -0.77311,-1.360674 -0.48705,-0.595294 -1.13647,-0.927732 -0.64941,-0.340168 -1.3684,-0.340168 -0.71126,0 -1.27563,0.340168 -0.55664,0.332438 -0.87362,0.935463 -0.31697,0.595295 -0.31697,1.352943 z"
         style="fill:#23dd83;fill-opacity:1"
         id="path5445" /></g><g
       aria-label="Фрагменты"
       id="text202-3"
       style="font-weight:500;font-size:13.0738px;font-family:Unbounded;-inkscape-font-specification:'Unbounded Medium';fill:#1aae6e;stroke-width:9.80506;stroke-linecap:round;stroke-linejoin:round"><path
         d="m 52.701243,46.896051 q -1.261621,0 -2.202935,-0.444509 -0.941314,-0.444509 -1.451192,-1.248548 -0.509878,-0.804039 -0.509878,-1.863017 0,-1.058978 0.509878,-1.863016 0.509878,-0.804039 1.451192,-1.242011 0.941314,-0.444509 2.202935,-0.444509 h 2.542854 v -1.385823 h 2.21601 v 1.385823 h 2.542854 q 1.261621,0 2.202935,0.444509 0.941314,0.437972 1.451192,1.242011 0.509878,0.804038 0.509878,1.863016 0,1.058978 -0.509878,1.863017 -0.509878,0.804039 -1.451192,1.248548 -0.941314,0.444509 -2.202935,0.444509 h -2.542854 v 1.87609 h -2.21601 v -1.87609 z m -1.921848,-3.556074 q 0,0.5491 0.241865,0.954388 0.248402,0.398751 0.705985,0.614468 0.457583,0.215718 1.078589,0.215718 h 2.438263 V 41.56194 h -2.438263 q -0.621006,0 -1.078589,0.215718 -0.457583,0.215718 -0.705985,0.621006 -0.241865,0.398751 -0.241865,0.941313 z m 9.105901,1.784574 q 0.627543,0 1.085126,-0.215718 0.46412,-0.215717 0.705985,-0.614468 0.248402,-0.405288 0.248402,-0.954388 0,-0.542562 -0.248402,-0.941313 -0.241865,-0.405288 -0.705985,-0.621006 -0.457583,-0.215718 -1.085126,-0.215718 h -2.425189 v 3.562611 z"
         id="path5448" /><path
         d="m 67.54655,41.058599 v 1.66691 q 0.562173,-0.895556 1.405433,-1.379286 0.849797,-0.490268 1.889164,-0.490268 1.085126,0 1.921849,0.490268 0.84326,0.490267 1.30738,1.385823 0.470657,0.889018 0.470657,2.046049 0,1.150495 -0.470657,2.039513 -0.46412,0.889019 -1.30738,1.379286 -0.84326,0.490268 -1.921849,0.490268 -1.039367,0 -1.889164,-0.490268 -0.84326,-0.496804 -1.405433,-1.39236 v 3.843698 h -2.189862 v -9.589633 z m -0.07844,3.719496 q 0.235328,0.647153 0.647153,1.150495 0.418362,0.496804 0.967461,0.777891 0.5491,0.281087 1.157031,0.281087 0.601395,0 1.072052,-0.281087 0.477194,-0.281087 0.745207,-0.784428 0.268013,-0.503341 0.268013,-1.143958 0,-0.640616 -0.268013,-1.143957 -0.268013,-0.509878 -0.745207,-0.790965 -0.470657,-0.287624 -1.072052,-0.287624 -0.607931,0 -1.157031,0.287624 -0.549099,0.281087 -0.967461,0.784428 -0.411825,0.503341 -0.647153,1.150494 z"
         id="path5450" /><path
         d="m 82.450694,46.817608 q -0.555636,0.889019 -1.405433,1.379286 -0.84326,0.490268 -1.876091,0.490268 -1.078588,0 -1.921848,-0.490268 -0.84326,-0.490267 -1.313917,-1.379286 -0.46412,-0.889018 -0.46412,-2.039513 0,-1.157031 0.46412,-2.046049 0.470657,-0.895556 1.30738,-1.385823 0.84326,-0.490268 1.928385,-0.490268 1.032831,0 1.876091,0.490268 0.849797,0.48373 1.41197,1.372749 l 0.18957,-1.660373 h 2.261768 l -0.431436,3.712959 0.431436,3.719497 h -2.261768 z m -4.7654,-2.039513 q 0,0.640617 0.268013,1.143958 0.268013,0.503341 0.73867,0.784428 0.477193,0.281087 1.078588,0.281087 0.607932,0 1.157032,-0.281087 0.549099,-0.281087 0.960924,-0.777891 0.418361,-0.503342 0.65369,-1.150495 -0.235329,-0.647153 -0.65369,-1.150494 -0.411825,-0.503341 -0.960924,-0.784428 -0.5491,-0.287624 -1.157032,-0.287624 -0.601395,0 -1.078588,0.287624 -0.470657,0.281087 -0.73867,0.790965 -0.268013,0.503341 -0.268013,1.143957 z"
         id="path5452" /><path
         d="m 92.543662,42.732046 h -3.987509 v 5.759009 h -2.189861 v -7.432456 h 6.17737 z"
         id="path5454" /><path
         d="m 93.530736,41.058599 h 3.26845 l 2.35982,5.477922 2.327134,-5.477922 h 3.26845 v 7.432456 h -2.04605 v -5.667493 l -2.53631,5.667493 h -2.052591 l -2.536317,-5.647882 v 5.647882 h -2.052586 z"
         id="path5456" /><path
         d="m 110.60511,48.687162 q -1.32046,0 -2.36636,-0.490268 -1.0459,-0.496804 -1.63422,-1.385823 -0.58833,-0.895555 -0.58833,-2.059123 0,-1.143958 0.56218,-2.026439 0.56217,-0.889019 1.56232,-1.379286 1.00014,-0.490268 2.26176,-0.490268 1.26816,0 2.20948,0.568711 0.94131,0.562173 1.44465,1.608077 0.50988,1.039367 0.50988,2.42519 h -6.21006 q 0.24841,0.75828 0.96747,1.170105 0.71905,0.411825 1.82379,0.411825 0.84326,0 1.69306,-0.241866 0.84979,-0.241865 1.5231,-0.679837 v 1.464265 q -0.73867,0.522952 -1.71921,0.817113 -0.974,0.287624 -2.03951,0.287624 z m 1.83687,-4.680421 q -0.18957,-0.73867 -0.71906,-1.137421 -0.52295,-0.405287 -1.30738,-0.405287 -0.83019,0 -1.39236,0.418361 -0.55564,0.411825 -0.73213,1.124347 z"
         id="path5458" /><path
         d="m 118.01142,41.058599 v 2.823941 h 4.06595 v -2.823941 h 2.17679 v 7.432456 h -2.17679 v -2.961216 h -4.06595 v 2.961216 h -2.17679 v -7.432456 z"
         id="path5460" /><path
         d="m 133.34697,41.058599 v 1.673447 h -2.95467 v 5.759009 h -2.18987 v -5.759009 h -2.95468 v -1.673447 z"
         id="path5462" /><path
         d="m 145.11993,41.058599 v 7.432456 h -2.18986 v -7.432456 z m -10.77935,0 h 2.18333 v 2.137566 h 2.52324 q 0.93478,0 1.64076,0.333382 0.71252,0.326845 1.0982,0.92824 0.39221,0.601395 0.39221,1.385823 0,0.790965 -0.39221,1.39236 -0.38568,0.594858 -1.09166,0.92824 -0.69945,0.326845 -1.62115,0.326845 h -4.73272 z m 4.37319,5.870136 q 0.58832,0 0.9217,-0.29416 0.33992,-0.300697 0.33992,-0.817113 0,-0.516415 -0.33992,-0.810575 -0.33338,-0.300698 -0.9217,-0.300698 h -2.18986 v 2.222546 z"
         id="path5464" /></g><path
       id="path40"
       style="fill:none;fill-opacity:1;stroke:#1aae6e;stroke-width:0.264583;stroke-linecap:butt;stroke-linejoin:round;stroke-dasharray:none;stroke-dashoffset:0;stroke-opacity:1"
       d="m 33.149408,38.11461 c -0.444952,0.01199 -0.861129,0.223295 -1.133781,0.575158 l -5.769673,7.374744 c 0.0027,-0.0011 0.0051,-0.0025 0.0078,-0.0036 1.203992,-0.505172 2.618184,-0.758093 4.243152,-0.758093 1.177318,0 2.232578,0.120361 3.169316,0.356567 l 0.985469,-5.80533 c 0.07637,-0.438644 -0.04805,-0.888727 -0.338997,-1.225765 -0.290959,-0.337032 -0.718,-0.525338 -1.163237,-0.513664 z m -2.652551,10.535274 c -1.203992,0 -2.176216,0.26937 -2.917134,0.808219 -0.740919,0.53885 -1.170421,1.279617 -1.288294,2.222604 h -4.054016 c 0.01359,-0.195215 0.03555,-0.385002 0.06201,-0.572058 l -2.904733,3.712435 c -0.230998,0.294109 -0.343139,0.664456 -0.313159,1.037146 0.02998,0.372374 0.200048,0.719972 0.474907,0.973067 0.275173,0.253086 0.635299,0.392652 1.00924,0.391707 v 10e-4 h 7.575765 c 0.07206,-0.575451 0.275085,-1.089044 0.612883,-1.539441 0.429396,-0.572528 1.115285,-1.094819 2.058272,-1.566313 l 1.945101,-0.959631 c 0.14074,-0.0716 0.269277,-0.148014 0.391191,-0.22686 H 32.431623 L 33.063109,49.21264 C 32.41782,48.838627 31.563761,48.649884 30.496857,48.649884 Z m 7.390247,4.281909 c -0.09228,0.180833 -0.197205,0.357673 -0.31781,0.529684 -0.505172,0.724079 -1.250438,1.326178 -2.235523,1.806091 l -2.096513,1.047998 c -0.463074,0.235747 -0.803769,0.488668 -1.022676,0.758093 -0.218908,0.261006 -0.328662,0.589235 -0.328662,0.984953 v 0.606165 h -3.64939 c -0.08419,-0.286264 -0.126607,-0.606012 -0.126607,-0.959632 0,-0.150393 0.01069,-0.295957 0.02687,-0.438733 L 25.92401,70.301276 c -0.07668,0.438644 0.04773,0.888919 0.338997,1.226281 0.290959,0.337347 0.718,0.52617 1.163237,0.514181 0.445267,-0.01168 0.861128,-0.223181 1.13378,-0.575676 L 41.181476,55.335264 v -5.17e-4 c 0.231454,-0.294057 0.343645,-0.664071 0.313676,-1.036629 -0.02966,-0.373006 -0.198894,-0.721257 -0.474389,-0.974617 -0.275497,-0.253086 -0.635993,-0.393283 -1.010275,-0.391708 z m -7.882723,7.311699 c 0.479913,0 0.904915,0.09677 1.275374,0.290421 0.370459,0.193649 0.656794,0.467519 0.858862,0.821139 0.210489,0.35362 0.315743,0.753175 0.315743,1.19941 0,0.446235 -0.105254,0.846306 -0.315743,1.199926 -0.202068,0.345201 -0.488403,0.614571 -0.858862,0.80822 -0.370459,0.193649 -0.795461,0.290421 -1.275374,0.290421 -0.479913,0 -0.909415,-0.09677 -1.288294,-0.290421 -0.370459,-0.193649 -0.660776,-0.463019 -0.871264,-0.80822 -0.202069,-0.35362 -0.303341,-0.753691 -0.303341,-1.199926 0,-0.446235 0.101272,-0.84579 0.303341,-1.19941 0.210488,-0.35362 0.500805,-0.62749 0.871264,-0.821139 0.378879,-0.193649 0.808381,-0.290421 1.288294,-0.290421 z" /><g
       aria-label="?"
       id="text5119"
       style="font-weight:500;font-size:25.2586px;font-family:Unbounded;-inkscape-font-specification:'Unbounded Medium';display:inline;fill:none;stroke:#1aae6e;stroke-width:0.473599;stroke-linejoin:round"><path
         d="m 28.109995,57.705029 q 0,-1.161896 0.644094,-2.020688 0.644094,-0.858793 2.058576,-1.566034 l 1.944912,-0.959826 q 0.71987,-0.36625 1.111378,-0.858793 0.404138,-0.505172 0.404138,-1.08612 0,-1.187154 -0.997715,-1.869136 -0.997714,-0.694612 -2.778446,-0.694612 -1.80599,0 -2.917368,0.808276 -1.111378,0.808275 -1.288189,2.222756 H 22.23737 q 0.138922,-1.995429 1.174525,-3.42254 1.035603,-1.43974 2.841593,-2.197498 1.805989,-0.757758 4.243444,-0.757758 2.450085,0 4.205557,0.681982 1.768102,0.681982 2.702671,1.970171 0.934568,1.275559 0.934568,3.06892 0,1.338706 -0.770388,2.437455 -0.757758,1.08612 -2.235386,1.80599 l -2.096464,1.048232 q -0.694611,0.35362 -1.022973,0.757758 -0.328362,0.391508 -0.328362,0.985085 v 0.606206 h -3.649867 q -0.126293,-0.429396 -0.126293,-0.959826 z m -0.568319,4.849651 q 0,-0.669353 0.303103,-1.199784 0.315733,-0.53043 0.871422,-0.820904 0.568319,-0.290474 1.288189,-0.290474 0.71987,0 1.275559,0.290474 0.555689,0.290474 0.858792,0.820904 0.315733,0.530431 0.315733,1.199784 0,0.669353 -0.315733,1.199783 -0.303103,0.517802 -0.858792,0.808276 -0.555689,0.290473 -1.275559,0.290473 -0.71987,0 -1.288189,-0.290473 -0.555689,-0.290474 -0.871422,-0.808276 -0.303103,-0.53043 -0.303103,-1.199783 z"
         id="path5467" /></g><g
       aria-label="Бессвязные куски кода, которые
были использованы при работе."
       id="text1463"
       style="font-weight:500;font-size:8.31932px;font-family:Unbounded;-inkscape-font-specification:'Unbounded Medium';fill:#127f59;stroke-width:6.2393;stroke-linecap:round;stroke-linejoin:round"><path
         d="m 52.60598,57.636328 q 0.72794,0 1.231259,0.237101 0.503319,0.237101 0.757058,0.665546 0.253739,0.428445 0.253739,1.006637 0,0.565714 -0.274537,0.998319 -0.270378,0.428445 -0.777857,0.665545 -0.503318,0.232941 -1.189662,0.232941 h -3.926719 l 0.48668,-3.265333 -0.48668,-2.974157 h 5.669616 v 1.11063 h -4.138861 l 0.216302,1.322771 z m -0.162227,2.737057 q 0.461722,0 0.72794,-0.228782 0.270378,-0.228781 0.270378,-0.632268 0,-0.399327 -0.270378,-0.628109 -0.270377,-0.232941 -0.7321,-0.232941 h -2.004956 l -0.262058,1.7221 z"
         id="path5470" /><path
         d="m 58.308877,61.567207 q -0.840251,0 -1.505797,-0.311975 -0.665545,-0.316134 -1.039915,-0.881847 -0.374369,-0.569874 -0.374369,-1.310293 0,-0.727941 0.357731,-1.289495 0.357731,-0.565714 0.994159,-0.877688 0.636427,-0.311975 1.439242,-0.311975 0.806974,0 1.405965,0.361891 0.598991,0.357731 0.919285,1.023276 0.324453,0.661386 0.324453,1.543234 h -3.951677 q 0.158067,0.482521 0.61563,0.744579 0.457563,0.262059 1.160545,0.262059 0.536596,0 1.077352,-0.153908 0.540756,-0.153907 0.969201,-0.432604 v 0.931763 q -0.470042,0.332773 -1.093991,0.519958 -0.619789,0.183025 -1.297814,0.183025 z m 1.168865,-2.978317 q -0.12063,-0.470041 -0.457563,-0.72378 -0.332773,-0.257899 -0.831932,-0.257899 -0.528277,0 -0.886007,0.266218 -0.353572,0.262059 -0.465882,0.715461 z"
         id="path5472" /><path
         d="m 67.069122,59.512335 q -0.07487,0.60731 -0.461722,1.073192 -0.382689,0.465882 -0.998319,0.723781 -0.615629,0.257899 -1.360208,0.257899 -0.836092,0 -1.484999,-0.311975 -0.648907,-0.316134 -1.010797,-0.877688 -0.357731,-0.565714 -0.357731,-1.297814 0,-0.7321 0.357731,-1.297814 0.36189,-0.565713 1.010797,-0.881847 0.648907,-0.316135 1.484999,-0.316135 0.744579,0 1.360208,0.257899 0.61563,0.257899 0.998319,0.727941 0.386848,0.470041 0.461722,1.077352 h -1.389326 q -0.103992,-0.474202 -0.49084,-0.74042 -0.382689,-0.266218 -0.940083,-0.266218 -0.440924,0 -0.769538,0.170546 -0.324453,0.170546 -0.503318,0.495 -0.174706,0.324453 -0.174706,0.773696 0,0.445084 0.174706,0.769537 0.178865,0.324454 0.503318,0.495 0.328614,0.170546 0.769538,0.170546 0.36605,0 0.665545,-0.12063 0.303655,-0.12479 0.499159,-0.353571 0.199664,-0.228782 0.266219,-0.528277 z"
         id="path5474" /><path
         d="m 73.250376,59.512335 q -0.07487,0.60731 -0.461722,1.073192 -0.382689,0.465882 -0.998318,0.723781 -0.61563,0.257899 -1.360209,0.257899 -0.836092,0 -1.484999,-0.311975 Q 68.296221,60.939098 67.934331,60.377544 67.5766,59.81183 67.5766,59.07973 q 0,-0.7321 0.357731,-1.297814 0.36189,-0.565713 1.010797,-0.881847 0.648907,-0.316135 1.484999,-0.316135 0.744579,0 1.360209,0.257899 0.615629,0.257899 0.998318,0.727941 0.386848,0.470041 0.461722,1.077352 H 71.86105 q -0.103992,-0.474202 -0.49084,-0.74042 -0.382689,-0.266218 -0.940083,-0.266218 -0.440924,0 -0.769537,0.170546 -0.324454,0.170546 -0.503319,0.495 -0.174706,0.324453 -0.174706,0.773696 0,0.445084 0.174706,0.769537 0.178865,0.324454 0.503319,0.495 0.328613,0.170546 0.769537,0.170546 0.36605,0 0.665546,-0.12063 0.303655,-0.12479 0.499159,-0.353571 0.199663,-0.228782 0.266218,-0.528277 z"
         id="path5476" /><path
         d="M 74.140538,59.075571 73.87016,56.712884 h 3.639702 q 0.453403,0 0.786176,0.145588 0.336932,0.141428 0.515798,0.411806 0.178865,0.266219 0.178865,0.632269 0,0.36605 -0.203823,0.636428 -0.199664,0.266218 -0.582353,0.415966 0.532437,0.12063 0.806974,0.415966 0.274538,0.295335 0.274538,0.748738 0,0.403487 -0.203824,0.702983 -0.199663,0.299495 -0.578192,0.461722 -0.37437,0.158067 -0.886008,0.158067 H 73.87016 Z m 1.272855,-0.428445 h 1.514117 q 0.332772,0 0.499159,-0.137269 0.170546,-0.141428 0.170546,-0.382689 0,-0.24126 -0.153908,-0.378529 Q 77.29356,57.61137 76.981585,57.61137 h -1.697141 z m 1.784495,1.892645 q 0.690503,0 0.690503,-0.553235 0,-0.249579 -0.195504,-0.399327 -0.191344,-0.149748 -0.586512,-0.149748 h -1.684662 l -0.133109,1.10231 z"
         id="path5478" /><path
         d="m 81.128767,59.703679 q -0.569873,-0.137268 -0.898487,-0.519957 -0.328613,-0.382689 -0.328613,-0.931764 0,-0.453403 0.224622,-0.802814 0.228781,-0.349412 0.636428,-0.540756 0.411806,-0.195504 0.948402,-0.195504 h 3.340207 v 4.729533 H 83.662 v -1.638906 h -1.073192 l -1.218781,1.638906 h -1.58483 z m 0.178865,-1.435082 q 0,0.287016 0.195504,0.457562 0.199664,0.170546 0.540756,0.170546 H 83.662 v -1.247898 h -1.618108 q -0.341092,0 -0.540756,0.166387 -0.195504,0.166386 -0.195504,0.453403 z"
         id="path5480" /><path
         d="m 88.433124,61.567207 q -0.782016,0 -1.376848,-0.203823 -0.594831,-0.207983 -0.931764,-0.594832 -0.332772,-0.386848 -0.35773,-0.910965 h 1.34357 q 0.05407,0.353571 0.391008,0.540756 0.341092,0.183025 0.931764,0.183025 0.569873,0 0.877688,-0.149748 0.307815,-0.149748 0.307815,-0.449243 0,-0.257899 -0.266219,-0.37853 -0.262058,-0.12063 -0.836091,-0.12063 h -0.886008 v -0.831932 h 0.86105 q 0.499159,0 0.752898,-0.137268 0.25374,-0.141429 0.25374,-0.382689 0,-0.270378 -0.282857,-0.411806 -0.282857,-0.145589 -0.773697,-0.145589 -0.540756,0 -0.865209,0.170547 -0.320294,0.170546 -0.37437,0.499159 h -1.33941 q 0.03744,-0.470042 0.357731,-0.844411 0.320293,-0.378529 0.902646,-0.594832 0.582352,-0.220462 1.372688,-0.220462 0.711301,0 1.256217,0.174706 0.549075,0.174706 0.84857,0.48668 0.303656,0.307815 0.303656,0.702983 0,0.37021 -0.257899,0.657226 -0.25374,0.282857 -0.773697,0.411806 0.565714,0.09567 0.86105,0.366051 0.295335,0.266218 0.295335,0.690503 0,0.436764 -0.307814,0.773697 -0.307815,0.336932 -0.894327,0.528277 -0.586512,0.191344 -1.393486,0.191344 z"
         id="path5482" /><path
         d="m 93.229209,56.712884 v 1.796973 h 2.587309 v -1.796973 h 1.385167 v 4.729533 h -1.385167 v -1.884326 h -2.587309 v 1.884326 h -1.385166 v -4.729533 z"
         id="path5484" /><path
         d="m 105.10087,56.712884 v 4.729533 h -1.39348 v -4.729533 z m -6.859275,0 h 1.389327 v 1.360209 h 1.605628 q 0.59483,0 1.04407,0.212142 0.45341,0.207983 0.69883,0.590672 0.24958,0.382689 0.24958,0.881848 0,0.503319 -0.24958,0.886007 -0.24542,0.378529 -0.69467,0.590672 -0.44508,0.207983 -1.03159,0.207983 h -3.011595 z m 2.782815,3.735374 q 0.37437,0 0.58651,-0.187184 0.2163,-0.191345 0.2163,-0.519958 0,-0.328613 -0.2163,-0.515798 -0.21214,-0.191344 -0.58651,-0.191344 h -1.393488 v 1.414284 z"
         id="path5486" /><path
         d="m 108.8196,61.567207 q -0.84025,0 -1.5058,-0.311975 -0.66554,-0.316134 -1.03991,-0.881847 -0.37437,-0.569874 -0.37437,-1.310293 0,-0.727941 0.35773,-1.289495 0.35773,-0.565714 0.99416,-0.877688 0.63643,-0.311975 1.43924,-0.311975 0.80698,0 1.40597,0.361891 0.59899,0.357731 0.91928,1.023276 0.32446,0.661386 0.32446,1.543234 h -3.95168 q 0.15807,0.482521 0.61563,0.744579 0.45756,0.262059 1.16054,0.262059 0.5366,0 1.07736,-0.153908 0.54075,-0.153907 0.9692,-0.432604 v 0.931763 q -0.47005,0.332773 -1.09399,0.519958 -0.61979,0.183025 -1.29782,0.183025 z m 1.16887,-2.978317 q -0.12063,-0.470041 -0.45757,-0.72378 -0.33277,-0.257899 -0.83193,-0.257899 -0.52828,0 -0.88601,0.266218 -0.35357,0.262059 -0.46588,0.715461 z"
         id="path5488" /><path
         d="m 114.28124,56.712884 h 1.39348 v 2.961678 l 2.41261,-2.961678 h 1.51411 l -1.64722,1.917603 1.78865,2.81193 h -1.58899 l -1.08151,-1.784494 -1.53492,1.784494 h -1.25621 z"
         id="path5490" /><path
         d="m 121.55648,62.939895 q -0.46172,0 -0.83609,-0.112311 -0.37437,-0.112311 -0.71546,-0.345252 v -1.002478 q 0.36189,0.228781 0.67386,0.324454 0.31198,0.09983 0.69051,0.09983 0.36189,0 0.61979,-0.162226 0.26205,-0.158067 0.42428,-0.532437 l 0.0291,-0.0624 h -0.58651 l -2.09231,-4.434197 h 1.53075 l 1.53492,3.54819 1.55571,-3.54819 h 1.47668 l -2.35853,4.941676 q -0.31613,0.673865 -0.81945,0.97752 -0.50332,0.307815 -1.12727,0.307815 z"
         id="path5492" /><path
         d="m 131.58958,59.512335 q -0.0749,0.60731 -0.46172,1.073192 -0.38269,0.465882 -0.99832,0.723781 -0.61563,0.257899 -1.36021,0.257899 -0.83609,0 -1.485,-0.311975 -0.64891,-0.316134 -1.0108,-0.877688 -0.35773,-0.565714 -0.35773,-1.297814 0,-0.7321 0.35773,-1.297814 0.36189,-0.565713 1.0108,-0.881847 0.64891,-0.316135 1.485,-0.316135 0.74458,0 1.36021,0.257899 0.61563,0.257899 0.99832,0.727941 0.38684,0.470041 0.46172,1.077352 h -1.38933 q -0.10399,-0.474202 -0.49084,-0.74042 -0.38269,-0.266218 -0.94008,-0.266218 -0.44093,0 -0.76954,0.170546 -0.32445,0.170546 -0.50332,0.495 -0.1747,0.324453 -0.1747,0.773696 0,0.445084 0.1747,0.769537 0.17887,0.324454 0.50332,0.495 0.32861,0.170546 0.76954,0.170546 0.36605,0 0.66554,-0.12063 0.30366,-0.12479 0.49916,-0.353571 0.19967,-0.228782 0.26622,-0.528277 z"
         id="path5494" /><path
         d="m 132.33832,56.712884 h 1.39349 v 2.961678 l 2.4126,-2.961678 h 1.51412 l -1.64723,1.917603 1.78865,2.81193 h -1.58899 l -1.08151,-1.784494 -1.53491,1.784494 h -1.25622 z"
         id="path5496" /><path
         d="m 138.26583,56.712884 h 1.37269 v 3.431719 l 2.50828,-3.431719 h 1.78865 v 4.729533 h -1.36853 v -3.498274 l -2.55819,3.498274 h -1.7429 z"
         id="path5498" /><path
         d="m 147.11342,56.712884 h 1.39349 v 2.961678 l 2.4126,-2.961678 h 1.51412 l -1.64723,1.917603 1.78865,2.81193 h -1.58899 l -1.08151,-1.784494 -1.53491,1.784494 h -1.25622 z"
         id="path5500" /><path
         d="m 155.49098,61.567207 q -0.87353,0 -1.54739,-0.311975 -0.66971,-0.311974 -1.03992,-0.873528 -0.37021,-0.565714 -0.37021,-1.301974 0,-0.740419 0.37021,-1.306133 0.37021,-0.565714 1.03992,-0.877688 0.67386,-0.311975 1.54739,-0.311975 0.87353,0 1.54323,0.311975 0.67387,0.311974 1.04408,0.877688 0.37021,0.565714 0.37021,1.306133 0,0.73626 -0.37021,1.301974 -0.37021,0.561554 -1.04408,0.873528 -0.6697,0.311975 -1.54323,0.311975 z m -1.55155,-2.487477 q 0,0.440924 0.18718,0.765378 0.18719,0.320294 0.5366,0.494999 0.34941,0.174706 0.82777,0.174706 0.47836,0 0.82361,-0.174706 0.34941,-0.174705 0.5366,-0.494999 0.18718,-0.324454 0.18718,-0.765378 0,-0.440924 -0.18718,-0.765377 -0.18719,-0.324454 -0.5366,-0.499159 -0.34941,-0.174706 -0.82361,-0.174706 -0.47836,0 -0.82777,0.174706 -0.34941,0.174705 -0.5366,0.499159 -0.18718,0.324453 -0.18718,0.765377 z"
         id="path5502" /><path
         d="m 165.52824,62.607122 h -1.20214 v -1.164705 h -4.43004 v 1.164705 h -1.20214 v -2.212939 h 0.61979 q 0.24958,-0.282857 0.37021,-0.815293 0.12479,-0.532437 0.12479,-1.335251 0,-0.715462 -0.0957,-1.530755 h 4.94583 v 3.681299 h 0.86937 z m -2.25453,-2.192141 V 57.74448 h -2.23374 q 0.0374,0.316134 0.0374,0.773696 0,0.61563 -0.0998,1.09815 -0.0957,0.478361 -0.28701,0.798655 z"
         id="path5504" /><path
         d="m 170.37841,60.377544 q -0.35357,0.565714 -0.89432,0.877688 -0.5366,0.311975 -1.19383,0.311975 -0.68634,0 -1.22294,-0.311975 -0.53659,-0.311974 -0.83609,-0.877688 -0.29533,-0.565714 -0.29533,-1.297814 0,-0.736259 0.29533,-1.301973 0.2995,-0.569874 0.83193,-0.881848 0.5366,-0.311975 1.2271,-0.311975 0.65723,0 1.19383,0.311975 0.54075,0.307815 0.89848,0.873528 l 0.12063,-1.056553 h 1.43924 l -0.27453,2.362687 0.27453,2.366846 h -1.43924 z m -3.03239,-1.297814 q 0,0.407647 0.17055,0.727941 0.17054,0.320294 0.47004,0.499159 0.30365,0.178865 0.68634,0.178865 0.38685,0 0.73626,-0.178865 0.34941,-0.178865 0.61147,-0.495 0.26622,-0.320293 0.41597,-0.7321 -0.14975,-0.411806 -0.41597,-0.7321 -0.26206,-0.320294 -0.61147,-0.499159 -0.34941,-0.183025 -0.73626,-0.183025 -0.38269,0 -0.68634,0.183025 -0.2995,0.178865 -0.47004,0.503319 -0.17055,0.320294 -0.17055,0.72794 z"
         id="path5506" /><path
         d="m 173.22361,61.446577 q -0.2371,-0.08735 -0.38268,-0.291176 -0.14559,-0.207983 -0.14559,-0.465882 0,-0.220462 0.10815,-0.403487 0.10815,-0.187185 0.29533,-0.291176 0.19135,-0.108152 0.41597,-0.108152 0.22878,0 0.41597,0.112311 0.18718,0.108151 0.29533,0.299496 0.10815,0.191344 0.10815,0.420125 0,0.220462 -0.10399,0.470042 -0.0998,0.24542 -0.34941,0.636428 l -0.50332,0.806974 h -0.7113 z"
         id="path5508" /><path
         d="m 177.15448,56.712884 h 1.39349 v 2.961678 l 2.4126,-2.961678 h 1.51412 l -1.64723,1.917603 1.78866,2.81193 h -1.58899 l -1.08152,-1.784494 -1.53491,1.784494 h -1.25622 z"
         id="path5510" /><path
         d="m 185.53204,61.567207 q -0.87353,0 -1.54739,-0.311975 -0.66971,-0.311974 -1.03992,-0.873528 -0.37021,-0.565714 -0.37021,-1.301974 0,-0.740419 0.37021,-1.306133 0.37021,-0.565714 1.03992,-0.877688 0.67386,-0.311975 1.54739,-0.311975 0.87353,0 1.54324,0.311975 0.67386,0.311974 1.04407,0.877688 0.37021,0.565714 0.37021,1.306133 0,0.73626 -0.37021,1.301974 -0.37021,0.561554 -1.04407,0.873528 -0.66971,0.311975 -1.54324,0.311975 z m -1.55155,-2.487477 q 0,0.440924 0.18718,0.765378 0.18719,0.320294 0.5366,0.494999 0.34941,0.174706 0.82777,0.174706 0.47836,0 0.82361,-0.174706 0.34942,-0.174705 0.5366,-0.494999 0.18718,-0.324454 0.18718,-0.765378 0,-0.440924 -0.18718,-0.765377 -0.18718,-0.324454 -0.5366,-0.499159 -0.34941,-0.174706 -0.82361,-0.174706 -0.47836,0 -0.82777,0.174706 -0.34941,0.174705 -0.5366,0.499159 -0.18718,0.324453 -0.18718,0.765377 z"
         id="path5512" /><path
         d="m 193.85968,56.712884 v 1.064873 h -1.88016 v 3.66466 h -1.39349 v -3.66466 h -1.88016 v -1.064873 z"
         id="path5514" /><path
         d="m 197.03351,61.567207 q -0.87353,0 -1.5474,-0.311975 -0.6697,-0.311974 -1.03991,-0.873528 -0.37021,-0.565714 -0.37021,-1.301974 0,-0.740419 0.37021,-1.306133 0.37021,-0.565714 1.03991,-0.877688 0.67387,-0.311975 1.5474,-0.311975 0.87352,0 1.54323,0.311975 0.67386,0.311974 1.04407,0.877688 0.37021,0.565714 0.37021,1.306133 0,0.73626 -0.37021,1.301974 -0.37021,0.561554 -1.04407,0.873528 -0.66971,0.311975 -1.54323,0.311975 z m -1.55156,-2.487477 q 0,0.440924 0.18719,0.765378 0.18718,0.320294 0.53659,0.494999 0.34942,0.174706 0.82778,0.174706 0.47836,0 0.82361,-0.174706 0.34941,-0.174705 0.53659,-0.494999 0.18719,-0.324454 0.18719,-0.765378 0,-0.440924 -0.18719,-0.765377 -0.18718,-0.324454 -0.53659,-0.499159 -0.34941,-0.174706 -0.82361,-0.174706 -0.47836,0 -0.82778,0.174706 -0.34941,0.174705 -0.53659,0.499159 -0.18719,0.324453 -0.18719,0.765377 z"
         id="path5516" /><path
         d="m 202.18316,56.712884 v 1.060713 q 0.35773,-0.569873 0.89433,-0.877688 0.54075,-0.311975 1.20214,-0.311975 0.6905,0 1.22294,0.311975 0.5366,0.311974 0.83193,0.881848 0.2995,0.565714 0.2995,1.301973 0,0.7321 -0.2995,1.297814 -0.29533,0.565714 -0.83193,0.877688 -0.5366,0.311975 -1.22294,0.311975 -0.66139,0 -1.20214,-0.311975 -0.5366,-0.316134 -0.89433,-0.886007 v 2.44588 h -1.39348 v -6.102221 z m -0.0499,2.366846 q 0.14974,0.411807 0.4118,0.7321 0.26622,0.316135 0.61563,0.495 0.34941,0.178865 0.73626,0.178865 0.38269,0 0.68219,-0.178865 0.30365,-0.178865 0.4742,-0.499159 0.17054,-0.320294 0.17054,-0.727941 0,-0.407646 -0.17054,-0.72794 -0.17055,-0.324454 -0.4742,-0.503319 -0.2995,-0.183025 -0.68219,-0.183025 -0.38685,0 -0.73626,0.183025 -0.34941,0.178865 -0.61563,0.499159 -0.26206,0.320294 -0.4118,0.7321 z"
         id="path5518" /><path
         d="m 214.30858,56.712884 v 4.729533 h -1.39349 v -4.729533 z m -6.85928,0 h 1.38932 v 1.360209 h 1.60563 q 0.59483,0 1.04408,0.212142 0.4534,0.207983 0.69882,0.590672 0.24958,0.382689 0.24958,0.881848 0,0.503319 -0.24958,0.886007 -0.24542,0.378529 -0.69466,0.590672 -0.44509,0.207983 -1.0316,0.207983 h -3.01159 z m 2.78281,3.735374 q 0.37437,0 0.58651,-0.187184 0.2163,-0.191345 0.2163,-0.519958 0,-0.328613 -0.2163,-0.515798 -0.21214,-0.191344 -0.58651,-0.191344 h -1.39349 v 1.414284 z"
         id="path5520" /><path
         d="m 218.0273,61.567207 q -0.84025,0 -1.50579,-0.311975 -0.66555,-0.316134 -1.03992,-0.881847 -0.37437,-0.569874 -0.37437,-1.310293 0,-0.727941 0.35773,-1.289495 0.35773,-0.565714 0.99416,-0.877688 0.63643,-0.311975 1.43924,-0.311975 0.80698,0 1.40597,0.361891 0.59899,0.357731 0.91928,1.023276 0.32446,0.661386 0.32446,1.543234 h -3.95168 q 0.15807,0.482521 0.61563,0.744579 0.45756,0.262059 1.16055,0.262059 0.53659,0 1.07735,-0.153908 0.54075,-0.153907 0.9692,-0.432604 v 0.931763 q -0.47004,0.332773 -1.09399,0.519958 -0.61979,0.183025 -1.29782,0.183025 z m 1.16887,-2.978317 q -0.12063,-0.470041 -0.45756,-0.72378 -0.33278,-0.257899 -0.83194,-0.257899 -0.52827,0 -0.886,0.266218 -0.35357,0.262059 -0.46589,0.715461 z"
         id="path5522" /><path
         d="m 51.670056,71.966357 q -0.969201,0 -1.663864,-0.37021 -0.690503,-0.37021 -1.056553,-1.073192 -0.36605,-0.702983 -0.36605,-1.684663 0,-0.97336 0.353571,-1.684662 0.353571,-0.711302 1.035755,-1.118948 0.682184,-0.407647 1.659704,-0.49084 0.836092,-0.06655 1.256218,-0.112311 0.424285,-0.04576 0.669705,-0.09151 0.249579,-0.04991 0.48668,-0.133109 v 1.152226 q -0.270378,0.108151 -0.752898,0.170546 -0.482521,0.05824 -1.389327,0.09983 -2.142225,0.09983 -2.150544,2.171342 0.178865,-0.403487 0.515798,-0.694663 0.341092,-0.295336 0.802814,-0.449243 0.461722,-0.158067 0.994159,-0.158067 0.711302,0 1.256217,0.274537 0.549075,0.270378 0.848571,0.765378 0.303655,0.49084 0.303655,1.135587 0,0.686344 -0.349411,1.206301 -0.345252,0.519958 -0.98168,0.802815 -0.632268,0.282857 -1.47252,0.282856 z m -1.643065,-2.32941 q 0.08319,0.386848 0.316134,0.678025 0.2371,0.287016 0.586512,0.445083 0.349411,0.153908 0.773696,0.153908 0.407647,0 0.715462,-0.149748 0.311974,-0.153908 0.478361,-0.428445 0.170546,-0.274538 0.170546,-0.636428 0,-0.36189 -0.170546,-0.636428 -0.166387,-0.274538 -0.474201,-0.424285 -0.307815,-0.149748 -0.719622,-0.149748 -0.569873,0 -1.014957,0.303655 -0.440923,0.303655 -0.661385,0.844411 z"
         id="path5524" /><path
         d="m 62.144083,67.112034 v 4.729533 h -1.393486 v -4.729533 z m -6.859279,0 h 1.389326 v 1.360208 h 1.605629 q 0.594831,0 1.044075,0.212143 0.453402,0.207983 0.698822,0.590672 0.24958,0.382688 0.24958,0.881848 0,0.503318 -0.24958,0.886007 -0.24542,0.378529 -0.694663,0.590672 -0.445083,0.207983 -1.031595,0.207983 h -3.011594 z m 2.782812,3.735374 q 0.37437,0 0.586512,-0.187185 0.216303,-0.191344 0.216303,-0.519957 0,-0.328613 -0.216303,-0.515798 -0.212142,-0.191344 -0.586512,-0.191344 H 56.67413 v 1.414284 z"
         id="path5526" /><path
         d="m 68.899363,67.112034 v 4.729533 h -1.393486 v -3.681299 h -2.171342 q 0.05407,0.744579 0.05407,1.185503 0,0.915125 -0.178865,1.484998 -0.174706,0.565714 -0.549075,0.836092 -0.37021,0.270378 -0.969201,0.270378 -0.515798,0 -0.927604,-0.228781 V 70.70182 q 0.303655,0.12063 0.561554,0.12063 0.287016,0 0.461722,-0.170546 0.178865,-0.170546 0.257899,-0.532436 0.08319,-0.36605 0.08319,-0.965041 0,-0.819453 -0.12479,-2.042393 z"
         id="path5528" /><path
         d="m 69.93928,67.112034 h 1.372688 v 3.431719 l 2.508275,-3.431719 h 1.788654 v 4.729533 h -1.368528 v -3.498274 l -2.558191,3.498274 H 69.93928 Z"
         id="path5530" /><path
         d="m 78.786872,67.112034 h 1.372688 v 3.431719 l 2.508275,-3.431719 h 1.788653 v 4.729533 H 83.08796 v -3.498274 l -2.558191,3.498274 h -1.742897 z"
         id="path5532" /><path
         d="m 90.933072,69.911485 q -0.07487,0.60731 -0.461723,1.073192 -0.382688,0.465882 -0.998318,0.723781 -0.61563,0.257899 -1.360209,0.257899 -0.836091,0 -1.484998,-0.311975 -0.648907,-0.316134 -1.010798,-0.877688 -0.35773,-0.565714 -0.35773,-1.297814 0,-0.7321 0.35773,-1.297814 0.361891,-0.565714 1.010798,-0.881848 0.648907,-0.316134 1.484998,-0.316134 0.744579,0 1.360209,0.257899 0.61563,0.257899 0.998318,0.72794 0.386849,0.470042 0.461723,1.077352 h -1.389327 q -0.103991,-0.474201 -0.49084,-0.740419 -0.382688,-0.266218 -0.940083,-0.266218 -0.440924,0 -0.769537,0.170546 -0.324453,0.170546 -0.503319,0.494999 -0.174705,0.324454 -0.174705,0.773697 0,0.445084 0.174705,0.769537 0.178866,0.324454 0.503319,0.495 0.328613,0.170546 0.769537,0.170546 0.36605,0 0.665546,-0.12063 0.303655,-0.12479 0.499159,-0.353572 0.199664,-0.228781 0.266218,-0.528276 z"
         id="path5534" /><path
         d="M 97.006176,71.841567 H 95.61269 v -3.681299 h -2.537393 v 3.681299 h -1.393486 v -4.729533 h 5.324365 z"
         id="path5536" /><path
         d="m 100.76235,71.966357 q -0.873533,0 -1.547397,-0.311975 -0.669706,-0.311974 -1.039915,-0.873528 -0.37021,-0.565714 -0.37021,-1.301974 0,-0.740419 0.37021,-1.306133 0.370209,-0.565714 1.039915,-0.877688 0.673864,-0.311975 1.547397,-0.311975 0.87352,0 1.54323,0.311975 0.67386,0.311974 1.04407,0.877688 0.37021,0.565714 0.37021,1.306133 0,0.73626 -0.37021,1.301974 -0.37021,0.561554 -1.04407,0.873528 -0.66971,0.311975 -1.54323,0.311975 z M 99.210793,69.47888 q 0,0.440924 0.187185,0.765377 0.187184,0.320294 0.536596,0.495 0.349416,0.174706 0.827776,0.174706 0.47836,0 0.82361,-0.174706 0.34941,-0.174706 0.53659,-0.495 0.18719,-0.324453 0.18719,-0.765377 0,-0.440924 -0.18719,-0.765377 -0.18718,-0.324454 -0.53659,-0.49916 -0.34941,-0.174705 -0.82361,-0.174705 -0.47836,0 -0.827776,0.174705 -0.349412,0.174706 -0.536596,0.49916 -0.187185,0.324453 -0.187185,0.765377 z"
         id="path5538" /><path
         d="m 110.09246,67.112034 v 4.729533 h -1.39349 v -3.681299 h -2.17134 q 0.0541,0.744579 0.0541,1.185503 0,0.915125 -0.17887,1.484998 -0.17471,0.565714 -0.54908,0.836092 -0.3702,0.270378 -0.9692,0.270378 -0.51579,0 -0.9276,-0.228781 V 70.70182 q 0.30366,0.12063 0.56155,0.12063 0.28702,0 0.46173,-0.170546 0.17886,-0.170546 0.2579,-0.532436 0.0832,-0.36605 0.0832,-0.965041 0,-0.819453 -0.12479,-2.042393 z"
         id="path5540" /><path
         d="m 111.13238,67.112034 h 1.38932 v 1.360208 h 1.60563 q 0.59483,0 1.04408,0.212143 0.4534,0.207983 0.69882,0.590672 0.24958,0.382688 0.24958,0.881848 0,0.503318 -0.24958,0.886007 -0.24542,0.378529 -0.69466,0.590672 -0.44509,0.207983 -1.0316,0.207983 h -3.01159 z m 2.78281,3.735374 q 0.37437,0 0.58651,-0.187185 0.2163,-0.191344 0.2163,-0.519957 0,-0.328613 -0.2163,-0.515798 -0.21214,-0.191344 -0.58651,-0.191344 h -1.39349 v 1.414284 z"
         id="path5542" /><path
         d="m 119.13972,71.966357 q -0.78202,0 -1.37685,-0.203824 -0.59483,-0.207983 -0.93176,-0.594831 -0.33277,-0.386848 -0.35773,-0.910966 h 1.34357 q 0.0541,0.353571 0.39101,0.540756 0.34109,0.183025 0.93176,0.183025 0.56987,0 0.87769,-0.149748 0.30781,-0.149747 0.30781,-0.449243 0,-0.257899 -0.26622,-0.378529 -0.26205,-0.12063 -0.83609,-0.12063 h -0.886 v -0.831932 h 0.86105 q 0.49915,0 0.75289,-0.137269 0.25374,-0.141428 0.25374,-0.382688 0,-0.270378 -0.28285,-0.411807 -0.28286,-0.145588 -0.7737,-0.145588 -0.54076,0 -0.86521,0.170546 -0.32029,0.170546 -0.37437,0.499159 h -1.33941 q 0.0374,-0.470041 0.35773,-0.844411 0.32029,-0.378529 0.90265,-0.594831 0.58235,-0.220462 1.37268,-0.220462 0.71131,0 1.25622,0.174706 0.54908,0.174706 0.84857,0.48668 0.30366,0.307815 0.30366,0.702983 0,0.370209 -0.2579,0.657226 -0.25374,0.282857 -0.7737,0.411806 0.56572,0.09567 0.86105,0.36605 0.29534,0.266218 0.29534,0.690504 0,0.436764 -0.30782,0.773696 -0.30781,0.336933 -0.89432,0.528277 -0.58652,0.191345 -1.39349,0.191345 z"
         id="path5544" /><path
         d="m 125.25858,71.966357 q -0.87353,0 -1.54739,-0.311975 -0.66971,-0.311974 -1.03992,-0.873528 -0.37021,-0.565714 -0.37021,-1.301974 0,-0.740419 0.37021,-1.306133 0.37021,-0.565714 1.03992,-0.877688 0.67386,-0.311975 1.54739,-0.311975 0.87353,0 1.54323,0.311975 0.67387,0.311974 1.04408,0.877688 0.37021,0.565714 0.37021,1.306133 0,0.73626 -0.37021,1.301974 -0.37021,0.561554 -1.04408,0.873528 -0.6697,0.311975 -1.54323,0.311975 z m -1.55155,-2.487477 q 0,0.440924 0.18718,0.765377 0.18719,0.320294 0.5366,0.495 0.34941,0.174706 0.82777,0.174706 0.47836,0 0.82361,-0.174706 0.34942,-0.174706 0.5366,-0.495 0.18718,-0.324453 0.18718,-0.765377 0,-0.440924 -0.18718,-0.765377 -0.18718,-0.324454 -0.5366,-0.49916 -0.34941,-0.174705 -0.82361,-0.174705 -0.47836,0 -0.82777,0.174705 -0.34941,0.174706 -0.5366,0.49916 -0.18718,0.324453 -0.18718,0.765377 z"
         id="path5546" /><path
         d="m 129.15618,69.47472 -0.27038,-2.362686 h 3.6397 q 0.45341,0 0.78618,0.145588 0.33693,0.141428 0.5158,0.411806 0.17886,0.266218 0.17886,0.632268 0,0.36605 -0.20382,0.636428 -0.19967,0.266218 -0.58235,0.415966 0.53243,0.12063 0.80697,0.415966 0.27454,0.295336 0.27454,0.748739 0,0.403487 -0.20383,0.702982 -0.19966,0.299496 -0.57819,0.461723 -0.37437,0.158067 -0.88601,0.158067 h -3.74785 z m 1.27285,-0.428445 h 1.51412 q 0.33277,0 0.49916,-0.137268 0.17055,-0.141429 0.17055,-0.382689 0,-0.24126 -0.15391,-0.378529 -0.14975,-0.137269 -0.46172,-0.137269 h -1.69715 z m 1.7845,1.892646 q 0.6905,0 0.6905,-0.553235 0,-0.24958 -0.1955,-0.399327 -0.19135,-0.149748 -0.58651,-0.149748 h -1.68467 l -0.13311,1.10231 z"
         id="path5548" /><path
         d="m 139.30991,70.776694 q -0.35357,0.565714 -0.89433,0.877688 -0.53659,0.311975 -1.19382,0.311975 -0.68634,0 -1.22294,-0.311975 -0.5366,-0.311974 -0.83609,-0.877688 -0.29534,-0.565714 -0.29534,-1.297814 0,-0.73626 0.29534,-1.301974 0.29949,-0.569873 0.83193,-0.881847 0.5366,-0.311975 1.2271,-0.311975 0.65723,0 1.19382,0.311975 0.54076,0.307814 0.89849,0.873528 l 0.12063,-1.056553 h 1.43924 l -0.27454,2.362686 0.27454,2.366847 h -1.43924 z m -3.03239,-1.297814 q 0,0.407647 0.17054,0.72794 0.17055,0.320294 0.47004,0.49916 0.30366,0.178865 0.68635,0.178865 0.38685,0 0.73626,-0.178865 0.34941,-0.178866 0.61147,-0.495 0.26622,-0.320294 0.41596,-0.7321 -0.14974,-0.411806 -0.41596,-0.7321 -0.26206,-0.320294 -0.61147,-0.499159 -0.34941,-0.183025 -0.73626,-0.183025 -0.38269,0 -0.68635,0.183025 -0.29949,0.178865 -0.47004,0.503319 -0.17054,0.320293 -0.17054,0.72794 z"
         id="path5550" /><path
         d="m 143.18671,67.112034 v 1.796973 h 2.5873 v -1.796973 h 1.38517 v 4.729533 h -1.38517 v -1.884326 h -2.5873 v 1.884326 h -1.38517 v -4.729533 z"
         id="path5552" /><path
         d="m 155.05836,67.112034 v 4.729533 h -1.39348 v -4.729533 z m -6.85928,0 h 1.38933 v 1.360208 h 1.60563 q 0.59483,0 1.04407,0.212143 0.45341,0.207983 0.69883,0.590672 0.24958,0.382688 0.24958,0.881848 0,0.503318 -0.24958,0.886007 -0.24542,0.378529 -0.69467,0.590672 -0.44508,0.207983 -1.03159,0.207983 h -3.0116 z m 2.78282,3.735374 q 0.37437,0 0.58651,-0.187185 0.2163,-0.191344 0.2163,-0.519957 0,-0.328613 -0.2163,-0.515798 -0.21214,-0.191344 -0.58651,-0.191344 h -1.39349 v 1.414284 z"
         id="path5554" /><path
         d="m 163.55655,71.841567 h -1.39349 v -3.681299 h -2.53739 v 3.681299 h -1.39349 v -4.729533 h 5.32437 z"
         id="path5556" /><path
         d="m 165.98994,67.112034 v 1.060713 q 0.35773,-0.569874 0.89433,-0.877688 0.54075,-0.311975 1.20214,-0.311975 0.6905,0 1.22294,0.311975 0.53659,0.311974 0.83193,0.881847 0.2995,0.565714 0.2995,1.301974 0,0.7321 -0.2995,1.297814 -0.29534,0.565714 -0.83193,0.877688 -0.5366,0.311975 -1.22294,0.311975 -0.66139,0 -1.20214,-0.311975 -0.5366,-0.316134 -0.89433,-0.886007 v 2.44588 h -1.39349 v -6.102221 z m -0.0499,2.366846 q 0.14975,0.411806 0.41181,0.7321 0.26622,0.316134 0.61563,0.495 0.34941,0.178865 0.73626,0.178865 0.38269,0 0.68218,-0.178865 0.30366,-0.178866 0.4742,-0.49916 0.17055,-0.320293 0.17055,-0.72794 0,-0.407647 -0.17055,-0.72794 -0.17054,-0.324454 -0.4742,-0.503319 -0.29949,-0.183025 -0.68218,-0.183025 -0.38685,0 -0.73626,0.183025 -0.34941,0.178865 -0.61563,0.499159 -0.26206,0.320294 -0.41181,0.7321 z"
         id="path5558" /><path
         d="m 171.25608,67.112034 h 1.37268 v 3.431719 l 2.50828,-3.431719 h 1.78865 v 4.729533 h -1.36853 v -3.498274 l -2.55819,3.498274 h -1.74289 z"
         id="path5560" /><path
         d="m 181.49716,67.112034 v 1.060713 q 0.35773,-0.569874 0.89432,-0.877688 0.54076,-0.311975 1.20215,-0.311975 0.6905,0 1.22294,0.311975 0.53659,0.311974 0.83193,0.881847 0.29949,0.565714 0.29949,1.301974 0,0.7321 -0.29949,1.297814 -0.29534,0.565714 -0.83193,0.877688 -0.5366,0.311975 -1.22294,0.311975 -0.66139,0 -1.20215,-0.311975 -0.53659,-0.316134 -0.89432,-0.886007 v 2.44588 h -1.39349 v -6.102221 z m -0.0499,2.366846 q 0.14975,0.411806 0.41181,0.7321 0.26622,0.316134 0.61563,0.495 0.34941,0.178865 0.73626,0.178865 0.38269,0 0.68218,-0.178865 0.30366,-0.178866 0.4742,-0.49916 0.17055,-0.320293 0.17055,-0.72794 0,-0.407647 -0.17055,-0.72794 -0.17054,-0.324454 -0.4742,-0.503319 -0.29949,-0.183025 -0.68218,-0.183025 -0.38685,0 -0.73626,0.183025 -0.34941,0.178865 -0.61563,0.499159 -0.26206,0.320294 -0.41181,0.7321 z"
         id="path5562" /><path
         d="m 190.98119,70.776694 q -0.35357,0.565714 -0.89433,0.877688 -0.53659,0.311975 -1.19382,0.311975 -0.68634,0 -1.22294,-0.311975 -0.5366,-0.311974 -0.83609,-0.877688 -0.29534,-0.565714 -0.29534,-1.297814 0,-0.73626 0.29534,-1.301974 0.29949,-0.569873 0.83193,-0.881847 0.5366,-0.311975 1.2271,-0.311975 0.65723,0 1.19382,0.311975 0.54076,0.307814 0.89849,0.873528 l 0.12063,-1.056553 h 1.43924 l -0.27454,2.362686 0.27454,2.366847 h -1.43924 z M 187.9488,69.47888 q 0,0.407647 0.17054,0.72794 0.17055,0.320294 0.47004,0.49916 0.30366,0.178865 0.68635,0.178865 0.38685,0 0.73626,-0.178865 0.34941,-0.178866 0.61147,-0.495 0.26622,-0.320294 0.41596,-0.7321 -0.14974,-0.411806 -0.41596,-0.7321 -0.26206,-0.320294 -0.61147,-0.499159 -0.34941,-0.183025 -0.73626,-0.183025 -0.38269,0 -0.68635,0.183025 -0.29949,0.178865 -0.47004,0.503319 -0.17054,0.320293 -0.17054,0.72794 z"
         id="path5564" /><path
         d="m 196.36378,71.966357 q -0.9692,0 -1.66386,-0.37021 -0.69051,-0.37021 -1.05656,-1.073192 -0.36605,-0.702983 -0.36605,-1.684663 0,-0.97336 0.35358,-1.684662 0.35357,-0.711302 1.03575,-1.118948 0.68218,-0.407647 1.6597,-0.49084 0.8361,-0.06655 1.25622,-0.112311 0.42429,-0.04576 0.66971,-0.09151 0.24958,-0.04991 0.48668,-0.133109 v 1.152226 q -0.27038,0.108151 -0.7529,0.170546 -0.48252,0.05824 -1.38933,0.09983 -2.14222,0.09983 -2.15054,2.171342 0.17886,-0.403487 0.5158,-0.694663 0.34109,-0.295336 0.80281,-0.449243 0.46172,-0.158067 0.99416,-0.158067 0.7113,0 1.25622,0.274537 0.54907,0.270378 0.84857,0.765378 0.30365,0.49084 0.30365,1.135587 0,0.686344 -0.34941,1.206301 -0.34525,0.519958 -0.98168,0.802815 -0.63227,0.282857 -1.47252,0.282856 z m -1.64306,-2.32941 q 0.0832,0.386848 0.31613,0.678025 0.2371,0.287016 0.58651,0.445083 0.34941,0.153908 0.7737,0.153908 0.40765,0 0.71546,-0.149748 0.31198,-0.153908 0.47836,-0.428445 0.17055,-0.274538 0.17055,-0.636428 0,-0.36189 -0.17055,-0.636428 -0.16638,-0.274538 -0.4742,-0.424285 -0.30781,-0.149748 -0.71962,-0.149748 -0.56987,0 -1.01496,0.303655 -0.44092,0.303655 -0.66138,0.844411 z"
         id="path5566" /><path
         d="m 202.69478,71.966357 q -0.87353,0 -1.5474,-0.311975 -0.6697,-0.311974 -1.03991,-0.873528 -0.37021,-0.565714 -0.37021,-1.301974 0,-0.740419 0.37021,-1.306133 0.37021,-0.565714 1.03991,-0.877688 0.67387,-0.311975 1.5474,-0.311975 0.87352,0 1.54323,0.311975 0.67387,0.311974 1.04407,0.877688 0.37021,0.565714 0.37021,1.306133 0,0.73626 -0.37021,1.301974 -0.3702,0.561554 -1.04407,0.873528 -0.66971,0.311975 -1.54323,0.311975 z m -1.55156,-2.487477 q 0,0.440924 0.18719,0.765377 0.18718,0.320294 0.53659,0.495 0.34942,0.174706 0.82778,0.174706 0.47836,0 0.82361,-0.174706 0.34941,-0.174706 0.5366,-0.495 0.18718,-0.324453 0.18718,-0.765377 0,-0.440924 -0.18718,-0.765377 -0.18719,-0.324454 -0.5366,-0.49916 -0.34941,-0.174705 -0.82361,-0.174705 -0.47836,0 -0.82778,0.174705 -0.34941,0.174706 -0.53659,0.49916 -0.18719,0.324453 -0.18719,0.765377 z"
         id="path5568" /><path
         d="m 211.02242,67.112034 v 1.064872 h -1.88017 v 3.664661 h -1.39348 v -3.664661 h -1.88017 v -1.064872 z"
         id="path5570" /><path
         d="m 214.1588,71.966357 q -0.84025,0 -1.50579,-0.311975 -0.66555,-0.316134 -1.03992,-0.881848 -0.37437,-0.569873 -0.37437,-1.310293 0,-0.72794 0.35773,-1.289494 0.35773,-0.565714 0.99416,-0.877688 0.63643,-0.311975 1.43924,-0.311975 0.80698,0 1.40597,0.36189 0.59899,0.357731 0.91928,1.023277 0.32446,0.661386 0.32446,1.543234 h -3.95168 q 0.15807,0.48252 0.61563,0.744579 0.45756,0.262058 1.16055,0.262058 0.53659,0 1.07735,-0.153907 0.54075,-0.153908 0.9692,-0.432605 v 0.931764 q -0.47004,0.332773 -1.09399,0.519958 -0.61979,0.183025 -1.29782,0.183025 z m 1.16887,-2.978317 q -0.12063,-0.470041 -0.45756,-0.723781 -0.33278,-0.257899 -0.83194,-0.257899 -0.52827,0 -0.886,0.266219 -0.35357,0.262058 -0.46589,0.715461 z"
         id="path5572" /><path
         d="m 218.12712,71.916441 q -0.22878,0 -0.41597,-0.108151 -0.18718,-0.108152 -0.29533,-0.295336 -0.10816,-0.187185 -0.10816,-0.415966 0,-0.224622 0.10816,-0.411807 0.10815,-0.191344 0.29533,-0.299495 0.18719,-0.108151 0.41597,-0.108151 0.22878,0 0.41596,0.108151 0.18719,0.108151 0.29534,0.299495 0.10815,0.187185 0.10815,0.411807 0,0.228781 -0.10815,0.415966 -0.10815,0.187184 -0.29534,0.295336 -0.18718,0.108151 -0.41596,0.108151 z"
         id="path5574" /></g></g></svg>
