<?xml version="1.0" encoding="UTF-8" standalone="no"?>
<!-- Created with Inkscape (http://www.inkscape.org/) -->

<svg
   width="224.93741mm"
   height="69.234001mm"
   viewBox="0 0 224.93741 69.234001"
   version="1.1"
   id="svg5"
   xml:space="preserve"
   inkscape:export-filename="fragments.svg"
   inkscape:export-xdpi="96"
   inkscape:export-ydpi="96"
   xmlns:inkscape="http://www.inkscape.org/namespaces/inkscape"
   xmlns:sodipodi="http://sodipodi.sourceforge.net/DTD/sodipodi-0.dtd"
   xmlns="http://www.w3.org/2000/svg"
   xmlns:svg="http://www.w3.org/2000/svg"><sodipodi:namedview
     id="namedview7"
     pagecolor="#ffffff"
     bordercolor="#000000"
     borderopacity="0.25"
     inkscape:showpageshadow="2"
     inkscape:pageopacity="0"
     inkscape:pagecheckerboard="0"
     inkscape:deskcolor="#d1d1d1"
     inkscape:document-units="mm"
     showgrid="false"
     inkscape:zoom="0.92198806"
     inkscape:cx="254.34169"
     inkscape:cy="259.22245"
     inkscape:window-width="1920"
     inkscape:window-height="1131"
     inkscape:window-x="0"
     inkscape:window-y="0"
     inkscape:window-maximized="1"
     inkscape:current-layer="layer1" /><defs
     id="defs2" /><g
     inkscape:label="Layer 1"
     inkscape:groupmode="layer"
     id="layer1"
     transform="translate(-12.546532,-9.3468567)"><text
       xml:space="preserve"
       style="font-weight:500;font-size:15.4622px;font-family:Unbounded;-inkscape-font-specification:'Unbounded Medium';fill:#ffff00;fill-opacity:0;stroke:none;stroke-width:11.5963;stroke-linecap:round;stroke-linejoin:round;stroke-dasharray:none"
       x="18.442995"
       y="27.714245"
       id="text202"><tspan
         sodipodi:role="line"
         id="tspan200"
         style="fill:#23dd83;fill-opacity:1;stroke:none;stroke-width:11.5963;stroke-dasharray:none"
         x="18.442995"
         y="27.714245">Статус проекта</tspan></text><text
       xml:space="preserve"
       style="font-weight:500;font-size:13.0738px;font-family:Unbounded;-inkscape-font-specification:'Unbounded Medium';fill:#1aae6e;fill-opacity:1;stroke:none;stroke-width:9.80506;stroke-linecap:round;stroke-linejoin:round;stroke-dasharray:none"
       x="48.164635"
       y="48.491055"
       id="text202-3"><tspan
         sodipodi:role="line"
         id="tspan200-6"
         style="fill:#1aae6e;fill-opacity:1;stroke:none;stroke-width:9.80506;stroke-dasharray:none"
         x="48.164635"
         y="48.491055">Фрагменты</tspan></text><path
       id="path40"
       style="fill:none;fill-opacity:1;stroke:#1aae6e;stroke-width:0.264583;stroke-linecap:butt;stroke-linejoin:round;stroke-dasharray:none;stroke-dashoffset:0;stroke-opacity:1"
       d="m 33.149408,38.11461 c -0.444952,0.01199 -0.861129,0.223295 -1.133781,0.575158 l -5.769673,7.374744 c 0.0027,-0.0011 0.0051,-0.0025 0.0078,-0.0036 1.203992,-0.505172 2.618184,-0.758093 4.243152,-0.758093 1.177318,0 2.232578,0.120361 3.169316,0.356567 l 0.985469,-5.80533 c 0.07637,-0.438644 -0.04805,-0.888727 -0.338997,-1.225765 -0.290959,-0.337032 -0.718,-0.525338 -1.163237,-0.513664 z m -2.652551,10.535274 c -1.203992,0 -2.176216,0.26937 -2.917134,0.808219 -0.740919,0.53885 -1.170421,1.279617 -1.288294,2.222604 h -4.054016 c 0.01359,-0.195215 0.03555,-0.385002 0.06201,-0.572058 l -2.904733,3.712435 c -0.230998,0.294109 -0.343139,0.664456 -0.313159,1.037146 0.02998,0.372374 0.200048,0.719972 0.474907,0.973067 0.275173,0.253086 0.635299,0.392652 1.00924,0.391707 v 10e-4 h 7.575765 c 0.07206,-0.575451 0.275085,-1.089044 0.612883,-1.539441 0.429396,-0.572528 1.115285,-1.094819 2.058272,-1.566313 l 1.945101,-0.959631 c 0.14074,-0.0716 0.269277,-0.148014 0.391191,-0.22686 H 32.431623 L 33.063109,49.21264 C 32.41782,48.838627 31.563761,48.649884 30.496857,48.649884 Z m 7.390247,4.281909 c -0.09228,0.180833 -0.197205,0.357673 -0.31781,0.529684 -0.505172,0.724079 -1.250438,1.326178 -2.235523,1.806091 l -2.096513,1.047998 c -0.463074,0.235747 -0.803769,0.488668 -1.022676,0.758093 -0.218908,0.261006 -0.328662,0.589235 -0.328662,0.984953 v 0.606165 h -3.64939 c -0.08419,-0.286264 -0.126607,-0.606012 -0.126607,-0.959632 0,-0.150393 0.01069,-0.295957 0.02687,-0.438733 L 25.92401,70.301276 c -0.07668,0.438644 0.04773,0.888919 0.338997,1.226281 0.290959,0.337347 0.718,0.52617 1.163237,0.514181 0.445267,-0.01168 0.861128,-0.223181 1.13378,-0.575676 L 41.181476,55.335264 v -5.17e-4 c 0.231454,-0.294057 0.343645,-0.664071 0.313676,-1.036629 -0.02966,-0.373006 -0.198894,-0.721257 -0.474389,-0.974617 -0.275497,-0.253086 -0.635993,-0.393283 -1.010275,-0.391708 z m -7.882723,7.311699 c 0.479913,0 0.904915,0.09677 1.275374,0.290421 0.370459,0.193649 0.656794,0.467519 0.858862,0.821139 0.210489,0.35362 0.315743,0.753175 0.315743,1.19941 0,0.446235 -0.105254,0.846306 -0.315743,1.199926 -0.202068,0.345201 -0.488403,0.614571 -0.858862,0.80822 -0.370459,0.193649 -0.795461,0.290421 -1.275374,0.290421 -0.479913,0 -0.909415,-0.09677 -1.288294,-0.290421 -0.370459,-0.193649 -0.660776,-0.463019 -0.871264,-0.80822 -0.202069,-0.35362 -0.303341,-0.753691 -0.303341,-1.199926 0,-0.446235 0.101272,-0.84579 0.303341,-1.19941 0.210488,-0.35362 0.500805,-0.62749 0.871264,-0.821139 0.378879,-0.193649 0.808381,-0.290421 1.288294,-0.290421 z" /><text
       xml:space="preserve"
       style="font-weight:500;font-size:25.2586px;font-family:Unbounded;-inkscape-font-specification:'Unbounded Medium';display:inline;fill:none;fill-opacity:1;stroke:#1aae6e;stroke-width:0.473599;stroke-linecap:butt;stroke-linejoin:round;stroke-dasharray:none;stroke-dashoffset:0;stroke-opacity:1"
       x="21.807974"
       y="64.625885"
       id="text5119"><tspan
         sodipodi:role="line"
         id="tspan5117"
         style="fill:none;fill-opacity:1;stroke:#1aae6e;stroke-width:0.473599;stroke-opacity:1"
         x="21.807974"
         y="64.625885">?</tspan></text><text
       xml:space="preserve"
       style="font-weight:500;font-size:8.31932px;font-family:Unbounded;-inkscape-font-specification:'Unbounded Medium';fill:#127f59;fill-opacity:1;stroke:none;stroke-width:6.2393;stroke-linecap:round;stroke-linejoin:round;stroke-dasharray:none;stroke-opacity:1"
       x="48.242496"
       y="61.442417"
       id="text1463"><tspan
         sodipodi:role="line"
         style="fill:#127f59;fill-opacity:1;stroke-width:6.2393"
         x="48.242496"
         y="61.442417"
         id="tspan5057">Бессвязные куски кода, которые</tspan><tspan
         sodipodi:role="line"
         style="fill:#127f59;fill-opacity:1;stroke-width:6.2393"
         x="48.242496"
         y="71.841568"
         id="tspan5225">были использованы при работе.</tspan></text></g></svg>
